/* XPM */
static char *_8656742136649b7ae56d44606615079OyRiKZTB73d3Pt23[] = {
/* columns rows colors chars-per-pixel */
"64 64 38 1 ",
"  c #29B5B3",
". c #2AB6B4",
"X c #2BB6B4",
"o c #2CB7B5",
"O c #2CB8B7",
"+ c #2DB8B8",
"@ c #2CB8B9",
"# c #2EB9BA",
"$ c #2FBABB",
"% c #2FBBBD",
"& c #30BABD",
"* c #31BCBF",
"= c #33BCC1",
"- c #32BDC1",
"; c #33BDC3",
": c #36BFC7",
"> c #36C0C8",
", c #37C0C8",
"< c #37C1CA",
"1 c #38C2CB",
"2 c #39C2CC",
"3 c #3AC3CE",
"4 c #3BC4CF",
"5 c #3AC4D0",
"6 c #3BC4D1",
"7 c #3CC4D1",
"8 c #3DC6D4",
"9 c #3EC7D5",
"0 c #3FC7D7",
"q c #40C8D8",
"w c #41C8DA",
"e c #42C9DB",
"r c #42CADC",
"t c #43CADC",
"y c #43CBDE",
"u c #45CBDF",
"i c #44CCDF",
"p c #45CCE1",
/* pixels */
"yyyyyyyyyyyyyyyyyyyyyyyyyyiyyyyyyyiiyyyyyyyyyyyyyyyyyyyyiiiyyye9",
"yyyyyyyyyyyyyyyyyyyyyyyyyyyyyyyyyyyyyyyyyyyyyyyyyyyyyyyyyyyyyiy3",
"yyyyyyyyyyyyyyyyyyyyyyyyyyyyyyyyyyyyyyyyyyyyyyyyyyyyyyyyyyyyyue1",
"yyyyyyyyyyyyyyyuuppyyyyyyyyyyyyyyyyyyyyyyyyyyyyyyiiyyyyiyyyyyyy9",
"yyyyyyyyyyyyyyyyiyeiyyyyyyyyyyyyyyyyyyyyyyyyyyyyyeeiiiiiyyyyyyye",
"yyyyyiiiiyyyiye63339yyyyyyyyyyyyyyyyyyyyyyyyyyyue89eeiiiyyyyyyyi",
"yyyyyyypiyyyie3;&&;3euyyyyyyyyyyyyyyyyyyyyyyyyiy3<;3eiipyyyyyyyy",
"yyyyee999eeie9<;&&#<8eyiyyyyyyyyyyyyyyyyyyyyyyie6&&<ee99eyyyyyye",
"yyii9<>;:6ee3<:1333>>39piyyyyyyyyyyyyyyyyyyyyyuy3&#<y9<<9yyyyie8",
"yyie3;#o&<q9:$19it9>&;3uiyyyyyyyyyyyyyyyyyyyyyue9&;3e3&&1euuyie<",
"ye03<<:::<11<:7etq4;O;8iuuyyyyyyyyyyyyyyyyyyyyiy9<<9e1#;3yyiyye9",
"ye<%<3qq8<;;39ey9>&OO;9iuyyyyyyyyyyyyyyyyyyyyyyyy9eee3$#1yuiyuu9",
"ie<;:39ei3&&3ye91&OoO&1qeeyyyyyyyyyyyyyyyyyyyyyyiyiiy3<<8eiyyyyi",
"ye96<>19e3&&3e91&#OOO#&<8eiyyyyyyyyyyyyyyyyyyyyyyiiii9839yyyyyyu",
"yyie4;;6e3&;3w3&OOOOOOO&1eiyyyyyyyyyyyyyyyyyyyyyyyiyyyeeiyyyyyyy",
"yyyi8<<8e3&#8w1#o OOO#;18eiyyyyyyyyyyyyyyyyyyyyyyyyyyyipyyyyyie8",
"yyyyeeeee1&&3e3$OOOo#;39eyyyyyyyyyyyyyyyyyyyyyyyyyyyyyyyyyyyyie1",
"yyyyyyyye41>8e9&;&;#&19puyyyyyyyyyyyyyyyyyyyyyyyyyyyyyyyyyyyyie3",
"uuuuiipyi988eee8393889iiiyyyyyyyyyyyyyiiyyyyyyyyyyyyyyyyyyyyyyee",
"eeeweyyyeiiyiiuytttteieiyyyyyyyyyyyyyeeiyyyyyyyyyyyyyyyyyyyyyyyi",
"31>13yuyyyiiyyyiuuuuiuyyyyyyyyyyyuue9360yuuyyyyyyyyyyyyyyyyyyyyy",
";&#&<9yyyyyyyyyyyyyyyyyyyyyyyyyyyyye3;;6yyyyyyyyyyyyyyyyyyyyyyyy",
">&&;<48eeiyyyyyyyyyyyyyyyyyyyyye88ye1#$3ee89eyyyyyyyyyyyyyyyyyyy",
"19881;;3eiyyyyyyyyyyyyyyyyyyyyy8::8e<$;3e3:<9yuyyyyyyyyyyyyyyyii",
"eetq3;;3euyyyyyyyyyyyyyyyyyyyue1#&4e4;>8w:#;9yuyyyyyyyyyyyyyyyye",
"eeq1113qiuyyyyyyyyyyyyyyyyyyuiy<##1eq14qy:$&6yuyyyyyyyyyyyyyyye8",
"iq>&;8eyyyyyyyyyyyyyyyyyyyyyyye3;&3euteie:#;8yuyyyyyyyyyyyyyyie1",
"93&O&<89eyyyyyyyyyyyyyyyyyyyyye8><9iuiiii6>39uyyyyyyyyyyyyyyyie1",
">&#o#%>8eiyyyyyyyyyyyyyyyyyyyyye88eyuyyyee99eyyyyyyyyyyyyyyyyue:",
"&Ooo@#;6eiyyyyyyyyyyyyyyyyyyyyyyiyyyuyyyyyuyyyyyyyyyyyyyyyyyyie3",
">ooo%>39yyyyyyyyyyyyyyyyyyyyyyyyiuyyyyyyyyiiyyyyyyyyyyyyyyyyyyeq",
"&Oo#<8eiyyyyyyyyyyyyyyyyyyyyyyyyyyyyyyyyyyyyyyyyyyyyyyyyyyyyyyyy",
"<;;:3euuyyyyyyyyyyyyyyyyyyyyyyyyyyyyyyyyyyyyyyyyyyyyyyyyyyyyyyyi",
"ee99eeyyyyyyyyyyyyyyyyyyyyyyyyyyyyyyyyyyyyyyyyyyyyyyyyyyyyyyyyyu",
"iyyyyyyyyyyyyyyyyyyyyyyyyyyyyyyyyyyyyyyyyyyyyyyyyyyyyyyyyyyyyyyy",
"yypyyyyyyyyyyyyyyyyyyyyyyyyyyyyyyyyyyyyyyyyyyyyyyyyyyyyyyyyyyyyy",
"yyyyyyyyyyyyyyyyyyyyyyyyyyyyyyyyyyyyyyyyyyyyyyyyyyyyyyyyyyyyyyyy",
"yyyyyyyyyyyyyyyyyyyyyyyyyyyyyyyyyyyyyyyyyyyyyyyyyyyyyyyyyyyyyyyy",
"yyyyyyyyyyyyyyyyyyyyyyyyyyyyyyyyyyyyyyyyyyyyyyyyyyyyyyyyyyyyyyyy",
"yyyyyyyyyyyyyyyyyyyyyyyyyyyyyyyyyyyyyyyyyyyyyyyyyyyyyyyyyyyyyyyy",
"yyyyyyyyyyyyyyyyyyyyyyyyyyyyyyyyyyyyyyyyyyyyyyyyyyyyyyyyyyyyyyyy",
"yyyyyyyyyyyyyyyyyyyyyyyyyyyyyyyyyyyyyyyyyyyyyyyyyyyyyyyyyyyyyyyy",
"yyyyyyyiuuuuuuuyyyyyyyyyyyyyyyyyyyyyyyyyyyyyyyyyyyyyyyuuuuyyyyyy",
"yyyyyyyyyyyuyyyyyyyyyyyyyyyyyyyyyyyyyyyyyyyyyyyiyyyyyyyyyyyyyyyy",
"yyyyyie98389399eiyyyyyyyyyyyyyyyyyyyyyyyyyyyyuiiyyyyye8938qeiuyy",
"yyyyiie3;;#&&:3euiyyyyyyyyyyyyyyyyyyyyyyyyyyiiipyyuuy8:#&;3wiiyy",
"yyyyie8>&#$##&<8eyyyyyyyyyyyyyyyyyyyyyyyyyyye9e9eyyeq3;##&18eeyy",
"yyuy9<>><<<3<3<<39iiyyyyyyyyyyyyyyyyyyyyypi93>;<89e8<:11<31119yy",
"yyyy3;;1eeeeee<&;3iyyyyyyyyyyyyyyyyyyyyyuie8;#O&:891;>8ee93$;6ii",
"ye96<><6ippy96;##>6eeyyyyyyyyyyyyyyyyyyyeq41>>;;:33:;3eye6;#;3yy",
"p93;;69eipie<;#o##:3eyyyyyyyyyyyyyyyyyyie1;;1q881<;<90ie3;@#$6yu",
"ye<;<9uuy093;@o@ #;1eyyyyyyyyyyyyyyyyyyye1;;4qie1&&1ei09;o o$39e",
"ye919euue9<;#ooo&;18eyyyyyyyyyyyyyyyyyyyu811>18e9&&3iq<&@@o@$;:8",
"yyeeeyyui3;##oo#;6uuyyyyyyyyyyyyyyyyyyyyiye8;&3e6&&6e3;#@o@o$o$<",
"uypuuyyi09<;><>;19iiyyyyyyyyyyyyyyyyyyyyyuy91>8e3&%1e3$ ooo@o$<6",
"yyyyiyyyie096009qeiyyyyyyyyyyyyyyyyyyyyyyyuee9ee8&&1e3&#ooo@$<9y",
"99eiyyyyiiyyyyyyyyyyyyyyyyyyeuiiyyyyyyyyuyyyyyie3<>6e8<&$$;$:9yy",
"><6yuyyyyiiyiiiiiyyyyyyyyyyyiuiiiiyyyyyyuiuuiiyyq389e98366619eyy",
"#$<0iyyyyyyyyyyyyyyyyyyyyyuyieeeeetuyyyeeeeiyyyyieeyyyeypy0eeyyy",
":<:<9eyyyyyyyyyyyyyyyyyyyyiie83113qiiue81111euyyiiyyyyypypppyyyy",
"99:&>9iyyyyyyyyyyyyyyyyyyyyie1&#&;4epu8>&#&>8yiyyyyyyyyyyyyyyyyy",
"ue<;>19yyyyyyyyyyyyyyyyyyye91>&;&>18981;;&&>18eeyyyyyyyyyyyyyyyy",
"uy063<<90iyyyyyyyyyyyyuyie8><14881>;;;>11891>>8eiyyyyyyyyyyyyyyy",
"yiiy3&$<eiyyyyyyyyyyyyeuie8;&1qeeq>#O&;8eie1;&1eiyyyyyyyyyyyyyyy"
};
