/* XPM */
static char *_87dabe8cc20472ecc75cb0d12da60dbIEb1oZ4rE8y4SIAf[] = {
/* columns rows colors chars-per-pixel */
"64 64 193 2 ",
"   c None",
".  c #131B1B",
"X  c #1A1E1D",
"o  c #1E221F",
"O  c #252E1F",
"+  c #29321F",
"@  c #1E1E20",
"#  c #221F22",
"$  c #252321",
"%  c #292622",
"&  c #2C2823",
"*  c #312D23",
"=  c #312329",
"-  c #3B262D",
";  c #332A28",
":  c #3A2D29",
">  c #352927",
",  c #363126",
"<  c #3C3B26",
"1  c #3A3527",
"2  c #2B3B21",
"3  c #41342B",
"4  c #4B352C",
"5  c #43392C",
"6  c #4B3D2D",
"7  c #52362F",
"8  c #402730",
"9  c #432831",
"0  c #4C2B36",
"q  c #572E3B",
"w  c #5A2F3D",
"e  c #4E3234",
"r  c #533D32",
"t  c #5F303F",
"y  c #563637",
"u  c #663C3D",
"i  c #384122",
"p  c #384E24",
"a  c #584C2C",
"s  c #445125",
"d  c #4D5727",
"f  c #475829",
"g  c #55582A",
"h  c #595B2A",
"j  c #505628",
"k  c #5C4334",
"l  c #5F4B34",
"z  c #644434",
"x  c #6B4235",
"c  c #634C36",
"v  c #66453B",
"b  c #6D4D3A",
"n  c #734A39",
"m  c #734638",
"M  c #6C5234",
"N  c #655A32",
"B  c #73553D",
"V  c #7C513E",
"C  c #7D5C39",
"Z  c #735938",
"A  c #596429",
"S  c #556229",
"D  c #51702B",
"F  c #5B782C",
"G  c #6B752D",
"H  c #687A2D",
"J  c #727A2F",
"K  c #6F6332",
"L  c #6B6931",
"P  c #716E30",
"I  c #72633A",
"U  c #607331",
"Y  c #62622C",
"T  c #633241",
"R  c #683742",
"E  c #6B3942",
"W  c #733648",
"Q  c #7E394E",
"!  c #713D44",
"~  c #754345",
"^  c #7A4B44",
"/  c #7C5540",
"(  c #7F5843",
")  c #854E3C",
"_  c #8D523F",
"`  c #856B39",
"'  c #946B3F",
"]  c #81783E",
"[  c #803A4F",
"{  c #833B51",
"}  c #8C3D54",
"|  c #844D45",
" . c #84414F",
".. c #8C4D4F",
"X. c #854F4B",
"o. c #8F5340",
"O. c #855B43",
"+. c #8B5E45",
"@. c #8D504E",
"#. c #8A5B49",
"$. c #835442",
"%. c #9D5A44",
"&. c #955D4E",
"*. c #9D5C4A",
"=. c #935646",
"-. c #8A4351",
";. c #874150",
":. c #924456",
">. c #944B54",
",. c #965153",
"<. c #9E5554",
"1. c #9A5C52",
"2. c #A85959",
"3. c #A15855",
"4. c #816042",
"5. c #8F6145",
"6. c #936546",
"7. c #9D6D45",
"8. c #946349",
"9. c #9C654B",
"0. c #956B4A",
"q. c #9D6C4D",
"w. c #9C7240",
"e. c #997149",
"r. c #9E6850",
"t. c #AD664C",
"y. c #A66B4E",
"u. c #A7664B",
"i. c #A77644",
"p. c #AD724E",
"a. c #A97948",
"s. c #B27D47",
"d. c #B4794F",
"f. c #AC6655",
"g. c #A76852",
"h. c #B26D52",
"j. c #B66B59",
"k. c #B96B5C",
"l. c #B57253",
"z. c #BC7353",
"x. c #BB7956",
"c. c #BE7A58",
"v. c #C17E56",
"b. c #C37D59",
"n. c #CA7D5D",
"m. c #C2775A",
"M. c #74802E",
"N. c #6B8930",
"B. c #7B8730",
"V. c #738C30",
"C. c #699231",
"Z. c #729434",
"A. c #7C9A33",
"S. c #7BA535",
"D. c #899633",
"F. c #8C9A34",
"G. c #819332",
"H. c #81A935",
"J. c #8BAD36",
"K. c #85A134",
"L. c #96A536",
"P. c #9AA836",
"I. c #93AC37",
"U. c #97B238",
"Y. c #99B338",
"T. c #92B037",
"R. c #A1AF38",
"E. c #A2B539",
"W. c #A6B939",
"Q. c #ACBB3A",
"!. c #908D42",
"~. c #AB8A4E",
"^. c #BE824E",
"/. c #C98C4E",
"(. c #C98556",
"). c #C58559",
"_. c #CB815B",
"`. c #C68355",
"'. c #D38E55",
"]. c #D3865F",
"[. c #D4895D",
"{. c #D98C5E",
"}. c #DE9655",
"|. c #DC9259",
" X c #DE9854",
".X c #E29B55",
"XX c #E3955E",
"oX c #ED9D5E",
"OX c #E7985E",
"+X c #EDA158",
"@X c #F4A45C",
"#X c #FBA95D",
"$X c #F9A75D",
/* pixels */
"        . . . . . . . . . . . .                                                                 . . . . . . . . . . . .         ",
"        . . . . . . . . . . . .                                                                 . . . . @ . . . . . . .         ",
"        . . . o o $ $ o o . . .                                                                 . . . @ # $ $ # X . . o         ",
"        . . o % * 5 5 , $ o . . .                                                             . . . o & , 5 5 ; $ X . .         ",
"        . . $ , k c l k , o . . . . . . . . . . . . . . . . . . . . . . . . . . . . . . . . . . . . o , 6 c l s , o . .         ",
"        . . $ 5 l I ( l 5 $ . . . . . . . . . . . . . . . . . . . . . . . . . . . . . . . . . . . . $ 5 c 4.( l 5 $ . .         ",
"        # # ; r / 0.0./ r ; $ % % & & & % & & & & & & & & & & & & & & & & & & & & & & & & & & % $ $ ; r / 0.0./ k ; $ #         ",
"      = - - e v / 0.0.( v e 9 e y r k k k k k k k k k k k k k k k k k k k k k k k k k k z r r r e 9 e v ( 0.0.( ~ e - - =       ",
". . # - 0 t E ^ ( q.q.#.^ W R ~ V O.+.+.+.+.+.+.+.+.+.+.+.+.+.+.O.O.+.+.O.5.+.O.5.#.O.5.+.+.O.^ ~ R R ^ #.q.r.#.~ u w 0 - # @   ",
". @ # - w W  ...8.q.r.1...~ ~ ,.2.l.z.x.x.x.x.x.x.x.x.x.x.x.x.x.x.x.x.c.x.x.c.x.x.x.x.c.x.m.h.f.,.;. ...8.q.r.r...~ W w - $ . @ ",
". . $ 9 T Q :.>.1.r.r.r.>.:.>.2.k.n.].].[.].].].].].].].].].].].].].].].].].].].].].].].].].n.k.2.>.:.,.1.r.r.1.,.:.Q T - @ . . ",
". . $ - T Q :.>.,.1.1.,.>.:.>.2.k.n.].].].].].].].].].].].].].].].].].].].].].].].].].].].].n.k.2.:.:.>.,.1.1.,.>.:.{ T 9 @ . . ",
". . @ 9 T Q :.:.>.,.,.:.:.:.:.2.k.n.].].].].[.[.].].].].].].].].].].].].].].].].].].].].].].n.k.2.:.:.:.>.>.,.>.:.:.Q T 9 # @ . ",
". . # 9 T Q } :.:.:.:.:.:.:.:.2.k.n.].].].].[.[.].].].].].[.].].].].].].].].].].].].].].].].n.k.2.>.} :.:.:.:.:.:.} Q T 9 # . . ",
". . # - w W Q { { } } } } Q :.3.f.m.n.n.n.n.n.n._.n.n.v.m.x.x.z.x.c.x.x.x.c.x.c.x.x.c.b.b.n.m.f.<.-.{ } { } } } { { W w - @ . . ",
". @ # - 0 t T W Q } } Q W R E ;.%.t.v.z.z.z.z.z.m.z.l.y.9.6.+.+.O.5.O.5.O.5.O.+.O.5.8.9.y.h.h.*.X.E T W Q } } Q W T w 0 - @ @   ",
"      = - - 0 T W { { W t 0 0 u _ %.t.t.t.t.t.t.t.t.%._ ) M z k k k z r k k k z k z x V +.u.%.| u e 0 t W { { W T 0 8 - =       ",
"        # # = 0 T { { T 0 = = 7 m _ %.%.%.%.%.%.%.%._ m r : & O & & & & & & & O & O : 7 m o._ m e > = 0 T { { T 0 = # #         ",
"        . . # - w W W q 8 # O 4 x _ %.%.%.%.%._ _ _ m z 6 * + O O + O + O + O o o . O 9 x _ _ z 4 $ # - q W W q - # . .         ",
"        . @ @ = 9 q q 9 = @ # 7 n %.t.t.t.t.u.=.) x z a a j d d d d d d d d s i + o O 4 m *.*.n 4 $ # = 9 q q 9 = # . .         ",
"        . . @ @ = - - = # X & r V u.z.z.m.z.t._ m 7 6 a Y J J J J J M.M.M.M.G d i O O 7 C y.u.V 7 & X $ = - - = $ @ . .         ",
"        . . . @ # # # @ X . & r O.l._._.n.n.l.' z , * j J F.P.R.P.P.P.P.P.P.D.G s O & r _ l.l.O.k & . X # # # X @ . . .         ",
"        . . . . . . . . . . & l 6.c.[._.b.v.y._ l 1 i A B.P.Q.Q.Q.Q.Q.W.R.P.D.J g 1 3 n 0.m.x.6.k & . . . . . . . . . .         ",
"          . . . . . . . . . & c 6.(.{.`.p.0.4.Z N g A J D.R.Q.Q.Q.Q.E.L.D.B.J L N l b 5.d.[.(.6.z & . . . . . . . . .           ",
"                      @ . . * c w.'.|.d.6.b c N L J B.D.L.W.Q.Q.Q.Q.R.D.J A g N Z O.0.d.`.XX'.7.c & . . .                       ",
"                        . . * b i.}..Xa.Z 4 < g J D.P.R.Q.W.Q.Q.Q.Q.P.B.A i < z O.p.v.[.XX@X}.i.M * . .                         ",
"                        . . * M i..X.Xi.M * O d M.L.Q.Q.W.W.W.Q.Q.Q.P.B.d O O z +.v.{.OX+X#X.Xi.M * . .                         ",
"                        . . * M i..X.Xi.M > O d M.L.Q.W.W.Y.Y.Y.Q.Q.P.J d O & z 7.(.OXoX@X#X.Xi.M * . .                         ",
"                        . . * M i..X.Xi.M * + d M.P.W.E.U.J.T.U.Y.W.P.M.d O * c 7.'.@X@X#X#X.Xi.M * . .                         ",
"                        . . * M i..X.Xi.M * O d M.P.Q.Y.J.H.S.J.Y.Q.P.M.d + * M i..X#X#X#X#X.Xi.M * . .                         ",
"                        . . & M i..X.Xi.M * + d M.P.Q.U.J.S.S.J.Y.W.P.B.A i < M w./..X+X$X#X.Xi.M * . .                         ",
"                        . . * M i..X.Xi.M * + d M.P.W.U.J.S.S.J.Y.W.R.D.M.A h K ` ' s./..X@X.Xi.M * . .                         ",
"                        . . * M i..X.Xi.M * + d J P.W.Y.J.S.S.J.Y.W.E.L.D.B.J P K M C i./.+X.Xi.M * . .                         ",
"                        . . * M i..X.Xi.M * O d M.U.W.Y.J.S.S.J.Y.W.Q.W.R.P.F.J h 5 6 C s..X.Xi.M * . .                         ",
"                        . . * M i..X.Xi.M * O d M.P.W.Y.J.S.H.J.U.W.W.Q.Q.Q.P.J d O * M i..X.Xi.M * . .                         ",
"                        . . * M i..X.Xi.M * + d M.P.W.E.Y.J.J.J.T.U.Y.Y.W.Q.R.M.d O * M i..X.Xi.M * . .                         ",
"                        . . * M i..X.Xi.M * O d M.P.Q.W.E.Y.U.T.T.J.T.U.R.Q.P.M.d + * M i..X.Xi.M * . .                         ",
"                        . . * M i..X.Xi.M * O d M.P.Q.Q.Q.W.E.U.J.S.S.J.Y.W.P.M.d O * M i..X.Xi.M * . .                         ",
"                        . . ; M i..X.Xi.M * + d M.P.Q.Q.Q.Q.W.Y.J.S.S.J.U.W.P.M.d + * M i..X.Xi.M * . .                         ",
"                      . . . * M i..X.Xi.b * + d M.P.Q.Q.Q.Q.W.Y.J.S.S.J.U.W.P.M.j + * M i..X.Xi.M * . . .                       ",
"          @ . . . . . . . . * M i..X.Xi.M * + j B.P.Q.Q.Q.Q.W.U.J.S.S.H.Y.W.P.M.d O * M i..X.Xi.N * . . . . . . . . .           ",
"        . . . . . . . . . . * M i..X.Xi.M * + j J P.Q.Q.Q.Q.W.U.J.S.S.J.Y.W.P.M.d O * M i..X.Xi.b ; . . . . . . . . . .         ",
"        . . . o $ $ o o X . * N i..X.Xs.Z a < h J F.P.Y.E.W.Y.I.S.Z.C.S.K.L.F.J h i 6 C s..X.Xi.M * @ . o $ $ o X . . .         ",
"        . . o $ , 5 < * % o * b i..X+X/.i.C M K P J B.G.F.U.I.A.N.F D F H M.J P K M C i./.@X.Xi.M * @ % 1 < < ; & o . .         ",
"        . . X , a l l k , X * M i..X@X.X/.s.w.` K g S F V.S.S.C.D f p s s d h K ` ' s./. X@X.Xi.M * o , 6 c c k , o . .         ",
"        . . $ < c ( ( c 4 O * M i..X#X@X.X.X/.w.Z < i f U Z.Z.D f 2 o O O O < K i./..X+X@X#X.Xi.M * $ 5 c I ( c 5 $ . .         ",
"        # # ; k B 0.0.B r ; 3 V i..X$X#X$X$X.Xi.b 2 O p D C.C.D p O o O O * 6 ) s..X$X#X#X#X.Xi.B 1 ; k / 0.0./ r ; $ #         ",
"      = - - 3 ~ $.0.0./ v e y $.p.'.oXoXoXoX'.7.c & o p D C.C.D p o o + 5 a C ' ^. XoXoX+XoX'.p.( y e v ( 0.0.( v e - - =       ",
"@ . @ - 0 w E ^ #.r.e.#.^ E ~ @.h.[.XXXXXXXX).0.c & O p D C.C.D p o O a Z 6.a.^.(.|.XXXXXXXX].h.@.! E ^ #.q.0.#.^ E w 0 - $ @   ",
". . # - w W ;...8.q.r.1... .-.<.j.n.{.{.{.{.c.5.z & o p D Z.C.D p o O z ' /..X|.|.{.{.{.{.{._.j.3.-.;.@.8.r.r.8...;.W w - $ . @ ",
". . # 9 T Q :.,.1.r.r.&... .-.<.j.n.].].].].c.8.b 1 < f U Z.Z.F d , 4 Z i..X@XoXXX{.].].].].n.j.3.-.;...&.r.g.1.,.:.Q T - @ . . ",
". @ # 9 T { :.>.,.1.&.X.~ R ~ @.g.n.].].].].b.y.O.b c I J !.!.e.I c B 6.d.|.oXXX{.].].].].].m.g.@.E R ~ X.&.1.,.>.:.Q T 9 @ . . ",
". . # 9 T { } :.>.,...~ R 0 e ^ 9.c.].].].].n.x.y.8.8.e.a.~.~.e.e.8.0.p.`.|.XX{.{.].].].].].m.r.^ y 0 u ~ ..>.>.:.:.Q T 9 # @ . ",
". . # 9 T Q } :.:.:.{ R e = : v 8.x.].].].{._._.b.c.c.^.^.).).).^.c.c.b._.[.{.].{.].].].].].x.8.v : = 0 R ;.:.-.:.} Q T 9 # . . ",
". . @ - w W { { } } Q T - # % k / y.x.c.x.x.c.x.c.x.x.x.c.c.x.x.x.x.x.x.x.x.x.x.x.c.c.c.x.x.y./ r & # 8 T { } } { { W w - @ . . ",
". . @ - 0 w T W Q } { T 9 $ o 1 v / O.+.+.O.+.O.#.5.O.5.#.5.4.5.#.5.#.5.+.+.#.5.O.5.O.#.5.O.( k 1 $ # 8 t Q } Q W T w 0 - @ @   ",
"      = - 9 0 t W { { T 8 # @ & : r k k k k r z k k k k k k k k k k k k k k k k k k k k k k r 3 & @ # 9 T Q { W T 0 - - =       ",
"        # # = 0 T Q Q T 9 $ . o O & & & & & & & & & & & & & & & & & & % & & & & & & & % & & % $ @ @ # 9 T Q { T 0 = @ @         ",
"        . . @ - q W W w - $ . . . . . . . . . . . . . . . . . . . . . . . . . . . . . . . . . . @ . @ - w W W q - # @ .         ",
"        . . @ = 9 q q 9 = @ . . . . . . . . . . . . . . . . . . . . . . . . . . . . . . . . . . . . @ = 9 q w 9 = @ . .         ",
"        . . @ @ = - - = # @ . . .                                                             . . . @ @ $ - - = @ @ . .         ",
"        . . . @ @ @ # @ @ . . .                                                                 . . . @ @ @ @ @ @ @ . .         ",
"        . . . . . . . . . . . .                                                                 . . . . . . . . . . . .         ",
"          @ . . . . . . . . .                                                                     . . . . . . . . . @           "
};
