/* XPM */
static char *_edcc1689c5a4b34bf8ea21558be707eU9a8kCIxZXdxooyn[] = {
/* columns rows colors chars-per-pixel */
"64 64 222 2 ",
"   c None",
".  c #131B1B",
"X  c #141A1A",
"o  c #141B1B",
"O  c #141C1C",
"+  c #161C1C",
"@  c #171D1C",
"#  c #1B1F1D",
"$  c #1A1D1E",
"%  c #1D201E",
"&  c #1F221F",
"*  c #1E1E20",
"=  c #211F21",
"-  c #221F22",
";  c #231F22",
":  c #232320",
">  c #252320",
",  c #242022",
"<  c #252023",
"1  c #272323",
"2  c #242521",
"3  c #272421",
"4  c #292523",
"5  c #292622",
"6  c #292722",
"7  c #2B2723",
"8  c #282822",
"9  c #2B2823",
"0  c #2C2823",
"q  c #2D2923",
"w  c #2E2A23",
"e  c #2F2B23",
"r  c #2F2A25",
"t  c #332727",
"y  c #312D23",
"u  c #302329",
"i  c #312329",
"p  c #312429",
"a  c #3A262C",
"s  c #3C262E",
"d  c #332A28",
"f  c #392C2A",
"g  c #363027",
"h  c #3E302A",
"j  c #41342B",
"k  c #48322A",
"l  c #4D372D",
"z  c #43392C",
"x  c #4C3E2F",
"c  c #51352F",
"v  c #402730",
"b  c #422831",
"n  c #442932",
"m  c #452B32",
"M  c #4C2B36",
"N  c #4D2D35",
"B  c #572E3B",
"V  c #5A2F3D",
"C  c #4C3232",
"Z  c #4F3034",
"A  c #4E3235",
"S  c #543437",
"D  c #583737",
"F  c #523933",
"G  c #533C30",
"H  c #533E31",
"J  c #533F33",
"K  c #5F303F",
"L  c #62383E",
"P  c #6A3F3B",
"I  c #594133",
"U  c #584034",
"Y  c #5C4334",
"T  c #5E4534",
"R  c #5F4536",
"E  c #6A4235",
"W  c #624934",
"Q  c #624C37",
"!  c #664C34",
"~  c #654639",
"^  c #66453C",
"/  c #704437",
"(  c #744A39",
")  c #6A5034",
"_  c #6C5234",
"`  c #745338",
"'  c #73553E",
"]  c #7D523E",
"[  c #613140",
"{  c #673243",
"}  c #663641",
"|  c #683742",
" . c #693942",
".. c #6C3942",
"X. c #6F3B44",
"o. c #713D44",
"O. c #723648",
"+. c #743649",
"@. c #7E394E",
"#. c #714242",
"$. c #774346",
"%. c #784B42",
"&. c #7B4D43",
"*. c #7A4A45",
"=. c #7C5540",
"-. c #7F5843",
";. c #8C523F",
":. c #803A4F",
">. c #813A50",
",. c #853B51",
"<. c #893C53",
"1. c #8D3D55",
"2. c #8F3F56",
"3. c #854F42",
"4. c #834A47",
"5. c #84404F",
"6. c #84414F",
"7. c #854F4B",
"8. c #8C4D4F",
"9. c #835442",
"0. c #8E5240",
"q. c #875A43",
"w. c #865845",
"e. c #8B5E45",
"r. c #8C514C",
"t. c #8D504E",
"y. c #8A5B49",
"u. c #9E5944",
"i. c #9A5D46",
"p. c #92564B",
"a. c #945A4F",
"s. c #965F4E",
"d. c #9F5E48",
"f. c #9A5A4C",
"g. c #874150",
"h. c #894250",
"j. c #8A4351",
"k. c #8B4451",
"l. c #914255",
"z. c #904156",
"x. c #914455",
"c. c #924655",
"v. c #974757",
"b. c #944B54",
"n. c #965152",
"m. c #965053",
"M. c #975353",
"N. c #9C5453",
"B. c #9F5655",
"V. c #9A5C52",
"C. c #A15855",
"Z. c #A85959",
"A. c #816042",
"S. c #8F6145",
"D. c #966745",
"F. c #9D6D45",
"G. c #916048",
"H. c #9D634E",
"J. c #936A49",
"K. c #976B4A",
"L. c #9C684F",
"P. c #9B6C4C",
"I. c #9F6E4E",
"U. c #9E6850",
"Y. c #AD664C",
"T. c #A7684C",
"R. c #A66D4F",
"E. c #A37344",
"W. c #A77644",
"Q. c #A97547",
"!. c #AE724D",
"~. c #A56153",
"^. c #A86653",
"/. c #AF6556",
"(. c #B16B51",
"). c #B26F53",
"_. c #B46959",
"`. c #B76C59",
"'. c #B96B5C",
"]. c #B47353",
"[. c #B47155",
"{. c #BC7353",
"}. c #BB7956",
"|. c #BD7957",
" X c #C07D56",
".X c #C2775A",
"XX c #C17A59",
"oX c #C57B5B",
"OX c #C87C5D",
"+X c #CA7D5E",
"@X c #C98556",
"#X c #CB805B",
"$X c #CD815D",
"%X c #D38E55",
"&X c #D3865F",
"*X c #D4875F",
"=X c #D3885A",
"-X c #D5885F",
";X c #D6895F",
":X c #D88A5F",
">X c #D88B5F",
",X c #D98B5F",
"<X c #DD8F5F",
"1X c #DD9655",
"2X c #DF9756",
"3X c #D99058",
"4X c #E29B55",
"5X c #E1935E",
"6X c #E3955E",
"7X c #E4955E",
"8X c #E7985E",
"9X c #EB9B5E",
"0X c #EE9E5E",
"qX c #F1A05E",
"wX c #F5A45D",
"eX c #F9A75D",
"rX c #F9A85D",
"tX c #FAA95D",
"yX c #FCAA5D",
"uX c #FDAB5D",
"iX c #FEAC5D",
"pX c #FFAD5D",
/* pixels */
"        . . o o o o o o o o . .                                                                 . . O o O O O . . . . .         ",
"        . . o o o o o o o o . .                                                                 . . o o O O . . . . . .         ",
"        . . + # & 2 2 & # + o .                                                                 . . O # & 2 2 & % . . .         ",
"        . o # 8 g z z g 8 # o o o                                                             o . . & 4 g z z y 8 % . .         ",
"        . . & g U Q Q x g & o o o . . . . . . o . . . . . . . . . . . . . . . . . . . . . . . . o o & g U Q ) U g & O O         ",
"        . . 2 z T A.-.Q z 2 o o o O . . . . . o . . . . . . . . . . . . . . . . . . . . . . . . o o 2 h Q -.-.Q z : . O         ",
"        - - d J ' J.J.' U d , , 1 7 4 e e 4 7 7 e 0 0 0 0 0 0 0 0 0 0 0 0 0 0 0 0 0 0 0 0 0 7 7 , , t U ' J.J.' U r < <         ",
"      u a v A ^ -.J.J.-.~ S m C G I Y Y Y Y Y Y I Y Y Y Y Y Y Y Y Y Y Y Y Y Y Y Y Y Y Y Y Y I F C m S ~ -.J.J.-.^ A s f d       ",
". . < a M V  .*.S.K.P.y.*.O.| #.&.w.e.e.e.e.e.e.e.e.e.e.e.e.e.e.e.e.e.e.e.e.e.e.e.e.e.e.e.e.w.&.#.}  .&.y.P.P.y.*. .V M s < O   ",
". . - n V +.g.t.G.I.U.H.8.$.g.M.~.[.|.}.}.}.}.}.}.}.}.}.}.|.|.{.}.}.}.}.}.}.}.}.}.}.}.}.}.}.[.~.n.g.g.t.s.I.I.H.r.g.+.V s < O O ",
". . < s [ @.x.m.H.U.U.V.M.z.v.Z.'.+X&X&X&X&X&X&X&X&X&X&X*X*X&X&X&X&X&X&X&X&X&X&X&X&X&X&X&X&X+X'.Z.b.c.b.V.L.L.V.m.z.@.[ b - . . ",
". . < n [ @.x.b.M.V.V.M.b.z.v.Z.'.OX&X&X&X&X&X&X&X&X&X&X&X&X&X&X&X&X&X&X&X&X&X&X&X&X&X&X&X&X+X'.Z.v.z.b.n.V.V.n.b.k.>.[ b - . . ",
". O - v [ @.z.x.b.m.m.b.c.z.v.Z.'.+X*X&X&X&X&X*X&X&X&X&X&X&X&X&X&X&X&X&X&X&X&X&X&X&X&X&X&X&X+X'.Z.v.2.c.b.n.b.b.c.z.>.[ b ; O . ",
"O O ; n [ @.z.z.z.x.x.z.z.z.v.Z.`.+X*X*X&X&X&X=X&X&X&X&X&X=X&X&X&X&X&X&X&X&X&X&X&X&X&X&X&X&X+X'.Z.v.2.z.z.z.c.x.z.2.>.[ b - . . ",
". . ; v B +.>.,.<.1.1.<.,.>.g.M./..X#X#X+X#X#X#X#X#X+X#XOX@X+X+X#X#X#X#X#X#X#X#X#X#X#X#X#X#X.X/.N.h.>.,.<.2.2.<.,.>.+.V v - O O ",
". O - a M K { +.@.<.<.@.+.{  .7.f.(.{.{.{.{.{.{.{.{.{.{.{.{..X{.{.{.{.{.{.{.{.{.{.{.{.{.{.{.(.f.4...{ +.@.<.,.@.+.{ V M a - O   ",
"      u a v M L O.,.,.O.K M S P ;.i.Y.Y.Y.Y.Y.Y.Y.Y.Y.Y.Y.Y.Y.Y.Y.Y.Y.Y.Y.Y.Y.Y.Y.Y.Y.Y.Y.Y.d.9.P N M V O.,.,.O.K M v a u       ",
"        - - u M { >.>.{ M u t c E ;.u.u.u.u.u.u.u.u.u.u.u.u.u.u.u.u.u.u.u.u.u.u.u.u.u.u.u.u.0.E F t i M { >.>.{ M u - -         ",
"        . X = s B O.+.B s - , k E ;.u.u.u.u.u.u.u.u.i.i.u.u.u.u.u.u.u.u.u.u.u.u.u.u.u.u.u.u.0.E k , ; s B O.+.B s - o .         ",
"        . X * u n B B n u = , l ( i.Y.Y.Y.Y.Y.Y.Y.Y.Y.Y.Y.Y.Y.Y.Y.Y.Y.Y.Y.Y.Y.Y.Y.Y.Y.Y.Y.Y.i.( l 3 = u n B B n u * o .         ",
"        . . * - u s s u ; # 4 G ;.T.{.{.{.{.{.{.{.{.{.{.{.{.{.{.{.{.{.{.{.{.{.{.{.{.{.{.{.{.T.=.G 6 # ; u s s u - # . .         ",
"        . . O $ # - - * # @ 4 I ;.].#X+X+X#X#X#X#X#X#X#X#X#X#X#X#X#X#X#X+X+X#X#X+X#X#X#X#X#X].q.H e o $ = ; - # # + . .         ",
"        O O . . . . o o O O e Y A. X,X*X*X*X*X*X&X&X&X&X&X&X&X&X&X&X=X*X&X&X&X&X*X*X*X,X;X>X|.S.W 7 o o o o . . . . o +         ",
"          . . . . . . o o o e W J.@X5X<X,X*X*X*X&X&X&X&X&X&X&X&X&X&X&X*X&X&X&X&X&X*X*X,X<X6X@XD.W e o o o . . . . . +           ",
"                      o o o e ! F.%X9X6X<X;X&X&X&X&X&X&X&X&X&X&X&X&X&X&X&X&X&X&X&X&X;X<X6X8X%XF.! e o O O                       ",
"                        . O y ) W.1XwX9X6X,X&X&X&X&X&X&X&X&X&X&X&X&X&X-X&X&X&X&X&X&X;X6X8XeX1XE.) y o .                         ",
"                        . . y _ W.4XtXqX8X3X>X>X;X,X,X,X>X>X>X>X,X,X,X,X>X>X,X-X,X,X3X8XqXtX4XW._ y . .                         ",
"                        . . y _ W.4XtXwX0X8X5X5X6X6X6X6X6X6X6X6X5X7X5X5X5X8X5X7X7X7X8X0XeXyX4XQ._ y . .                         ",
"                        . . y _ W.4XtXtXwXqX0X0X0X0X0X0X0X0X0X0X0X0X0X0X0X0X0X0X0X0XqXwXeXiX4XW._ y . .                         ",
"                        . . y _ W.4XpXpXpXtXrXrXtXtXtXtXtXtXtXtXrXtXtXtXtXtXrXtXtXtXtXyXiXiX4XW._ y . .                         ",
"                        . . y _ W.4XpXpXpXpXpXpXiXiXiXpXiXiXpXpXiXiXpXpXpXpXiXiXpXpXiXiXiXiX4XW._ y . .                         ",
"                        . . y _ W.4XpXpXpXpXpXpXiXiXpXpXiXiXpXpXpXiXpXpXpXpXpXiXpXpXiXiXiXiX4XW._ y . .                         ",
"                        . . y _ Q.4XpXpXpXpXpXpXpXpXpXpXpXpXpXpXpXpXpXpXpXpXpXpXpXpXpXpXpXpX4XW._ e . .                         ",
"                        . . y _ W.4XpXpXpXpXpXpXpXpXpXpXpXpXpXpXpXpXpXpXpXpXpXpXpXpXpXpXpXpX4XW._ g . .                         ",
"                        . . y _ W.4XpXpXpXpXpXpXpXpXpXpXpXpXpXpXpXpXpXpXpXpXpXpXpXpXpXpXpXpX4XW._ g . .                         ",
"                        . . y _ W.4XpXpXpXpXpXpXpXpXpXpXpXpXpXpXpXpXpXpXpXpXpXpXpXpXpXpXpXpX4XW._ e . .                         ",
"                        . . y _ W.4XiXiXpXpXpXpXpXpXpXpXpXpXpXpXpXpXpXpXpXpXpXpXpXpXpXpXpXpX4XW._ y . .                         ",
"                        . . y _ W.4XiXiXpXpXpXpXpXpXpXpXpXpXpXpXpXpXpXpXpXpXpXpXpXpXpXpXpXpX4XW._ y . .                         ",
"                        . . y _ W.4XpXpXpXpXpXpXpXpXpXpXpXpXpXpXpXpXpXpXpXpXpXpXpXpXpXpXpXpX4XW._ y X X                         ",
"                      % . . y _ W.4XpXpXpXpXpXpXpXpXpXpXpXpXpXpXpXpXpXpXpXpXpXpXpXpXpXpXpXpX4XW._ y X X @                       ",
"          % . . O O O . . . y _ W.4XpXpXpXpXpXpXpXpXpXpXpXpXpXpXpXpXpXpXpXpXpXpXpXpXpXpXpXpX4XW._ y . . O . . . . . .           ",
"        % . . . O O . . . . y _ W.4XpXpXpXpXpXpXpXpXpXpXpXpXpXpXpXpXpXpXpXpXpXpXpXpXpXpXpXpX4XW._ y . . o O . . . . . .         ",
"        . . . % & 2 2 & % . y _ W.4XpXpXpXpXpXpXpXpXpXpXpXpXpXpXpXpXpXpXpXpXpXpXpXpXpXpXpXpX4XW._ y . % & 2 2 & % @ . .         ",
"        . . % 2 g z z y 8 % y _ W.4XpXpXpXpXpXpXpXpXpXpXpXpXpXpXpXpXpXpXpXpXpXpXpXpXpXpXiXiX4XW._ y % 8 f z z g 8 % . .         ",
"        . . % g U Q Q U g & g _ W.4XpXiXpXpXpXpXpXpXpXpXpXpXpXpXpXpXpXpXpXpXiXiXpXpXiXpXpXpX4XW._ y & g x Q Q x g & . .         ",
"        . . 2 h Q -.' Q z : e _ W.4XpXiXpXpXpXpXpXpXpXpXpXpXpXpXpXpXpXpXpXpXiXiXpXpXiXiXpXpX4XW._ y 2 z Q A.A.Q z 2 . .         ",
"        - 2 g U =.J.J.=.U r h ` Q.2XrXrXrXtXyXyXyXpXpXpXpXpXpXpXpXpXpXpXpXpXiXiXiXtXtXrXtXtX2XQ.` h d U ' J.J.' J d , ,         ",
"      u a s A R -.J.J.-.^ A D 9.!.3X0X0X0X0XqXwXtXtXpXpXpXpXpXpXpXpXpXpXpXpXiXtXwXqX0X0X0X0X3X!.9.S A ~ -.K.K.-.^ A s a p       ",
"O O < a M V | *.y.I.P.y.*.| X.p.).=X5X5X7X5X8X0XeXtXpXpXpXpXpXpXpXpXpXpXpXpXyXeXqX8X7X5X7X5X=X[.p.o. .&.y.P.P.y.*.} V M a ; +   ",
"O O < s V +.5.t.s.I.R.s.r.g.k.B.`.$X,X,X,X,X<X8XqXtXpXpXpXpXpXpXpXpXpXpXpXpXtXqX8X3X,X,X,X,X$X_.C.k.6.t.s.I.I.s.r.g.+.V s ; . + ",
". . - b K :.c.b.V.L.L.a.8.6.k.B._.OX&X&X-X&X-X6X8XeXtXeXrXrXtXtXtXeXtXeXtXeXeX8X5X,X&X&X&X&XOX_.B.h.6.8.a.L.R.V.b.c.@.[ n - . . ",
"O . - b L :.z.b.n.V.a.7.$.| X.r.^.oX&X&X-X&X-X3X7X8X0X0X0X0X0X0X0X0X0X0X0X0X8X6X<X;X&X&X&X&XoX^.t.o.} $.7.a.V.n.b.c.>.[ v - . . ",
"O O ; n [ :.z.c.b.n.8.$.L N S %.L.XX&X&X&X&X-X,X<X6X7X6X6X6X6X6X6X6X6X6X6X6X6X<X,X&X&X&X&X&X|.L.%.S N L $.8.n.b.v.k.>.[ n ; O . ",
"o O ; v [ :.2.2.z.c.6. .N p f ~ G.|.&X&X&X*X*X*X;X,X;X,X>X,X>X>X;X>X>X>X>X>X;X;X&X;X&X&X&X&X|.G.~ f p N } 6.z.2.1.2.>.[ v ; . . ",
". . - v V +.>.,.<.2.:.[ s , 8 U ] R.}.}.}.}.|.}.}.}.}.}.}.}.}.}.}.}.}.}.}.}.}.}.}.}.|.}.}.}.R.] H 8 , b L @.1.<.,.>.+.V v - O O ",
". . - a M V { +.@.,.>.[ b , : h R ] e.e.e.e.e.e.e.e.e.e.e.e.e.e.e.e.e.e.e.e.e.e.e.e.e.e.e.S.=.R j , - b [ >.<.@.+.{ V M a - O   ",
"      u a v M [ +.,.:.[ b ; & 0 j J Y Y Y Y Y Y Y Y Y Y Y Y Y Y Y Y Y Y Y Y Y Y Y Y Y Y Y Y H j 0 # ; b [ @.>.+.K M v a u       ",
"        - - u M { >.:.[ b - + & & 4 e 7 e 7 7 7 0 0 0 0 0 0 0 0 0 9 9 9 0 0 0 0 4 e e 4 4 e 8 , & # ; b [ >.>.{ M u - -         ",
"        o . - a B O.O.B s - o o o o . . . . . . . . . . . . . . O . . . . . . . . . . . . . o o O O - a V O.+.B s - O .         ",
"        . . - u b V B b u * o o O . . . . . . . . . . . . . . . O . . . . . . . . . . . . . . o o o * p b B B n u * . .         ",
"        . . # ; u a s u ; # O O O                                                             o o o $ ; u s s u - # . .         ",
"        . . O $ * - - * # O o o                                                                 . o O # * * - * * + . .         ",
"        O o . . o o . . . o o O                                                                 O o O O . . . . . . . +         ",
"          O . . . . . . . o O                                                                     O . o . . . . . . +           "
};
