/* XPM */
static char *_c8dedd145a543d1b4801ea746ec213aJyfDivTTFMqJWDFk[] = {
/* columns rows colors chars-per-pixel */
"64 64 198 2 ",
"   c None",
".  c #131B1B",
"X  c #181E1E",
"o  c #1F221E",
"O  c #1A2424",
"+  c #1C2729",
"@  c #1F2C2E",
"#  c #1F2D30",
"$  c #2D2B23",
"%  c #262A27",
"&  c #312D23",
"*  c #323129",
"=  c #212F31",
"-  c #223435",
";  c #2C3634",
":  c #253939",
">  c #313736",
",  c #393D38",
"<  c #4B3D2A",
"1  c #38493E",
"2  c #554733",
"3  c #644D32",
"4  c #6C5234",
"5  c #6A553A",
"6  c #7E5D39",
"7  c #705435",
"8  c #2C4045",
"9  c #2E4749",
"0  c #314D4D",
"q  c #3D4E4E",
"w  c #344D54",
"e  c #39545D",
"r  c #3A5C5D",
"t  c #3B5861",
"y  c #3C6161",
"u  c #4A4F4F",
"i  c #465454",
"p  c #515648",
"a  c #6F5D48",
"s  c #52615E",
"d  c #786748",
"f  c #696858",
"g  c #406667",
"h  c #42636C",
"j  c #436B6C",
"k  c #4A6862",
"l  c #5C6161",
"z  c #576E6E",
"x  c #446970",
"c  c #4A747B",
"v  c #4C7A7C",
"b  c #547C7D",
"n  c #696D6C",
"m  c #616666",
"M  c #6C7070",
"N  c #677070",
"B  c #727A76",
"V  c #71776A",
"C  c #946B3F",
"Z  c #9B6F41",
"A  c #907653",
"S  c #A67644",
"D  c #AC7E4D",
"F  c #B27D47",
"G  c #A77D51",
"H  c #958055",
"J  c #B68C58",
"K  c #928B6F",
"L  c #A6886A",
"P  c #BE9968",
"I  c #B69E7A",
"U  c #B0A07F",
"Y  c #C98B4E",
"T  c #CE9758",
"R  c #DE9854",
"E  c #E39C55",
"W  c #E49E58",
"Q  c #ECA35B",
"!  c #E4A25C",
"~  c #FFAD5D",
"^  c #F4A75B",
"/  c #CE9963",
"(  c #CCA878",
")  c #DFB077",
"_  c #DEAC7A",
"`  c #E9A967",
"'  c #F4AE66",
"]  c #FCB56F",
"[  c #4E7482",
"{  c #537D8A",
"}  c #5E7C82",
"|  c #588593",
" . c #578F90",
".. c #5A8C95",
"X. c #5A9596",
"o. c #5E989B",
"O. c #798282",
"+. c #729191",
"@. c #6194A5",
"#. c #619FA1",
"$. c #649BA9",
"%. c #66A6A9",
"&. c #6AA7A9",
"*. c #7AA4A7",
"=. c #6AA8B1",
"-. c #6DA5B9",
";. c #6CA4B7",
":. c #71AEBE",
">. c #6FB6BA",
",. c #6DB0B7",
"<. c #72BDBF",
"1. c #71ACC0",
"2. c #74B1C6",
"3. c #77B6CA",
"4. c #7FB7C9",
"5. c #79B9CE",
"6. c #75BCC5",
"7. c #7BBDD1",
"8. c #74C0C1",
"9. c #79C2CC",
"0. c #7DC4D5",
"q. c #7ECBD4",
"w. c #7FD1D5",
"e. c #9B9D9D",
"r. c #949898",
"t. c #909A8C",
"y. c #A79683",
"u. c #A6A59B",
"i. c #B6B39B",
"p. c #98B5B3",
"a. c #8FACAF",
"s. c #A7A9A9",
"d. c #A8ACAC",
"f. c #A8B4A7",
"g. c #A9B3B3",
"h. c #B7BFB7",
"j. c #B2AAA0",
"k. c #98A192",
"l. c #D3B182",
"z. c #C5B492",
"x. c #CAAE8B",
"c. c #E2B687",
"v. c #F5C391",
"b. c #E8CCB0",
"n. c #88B7C2",
"m. c #83BAC4",
"M. c #83BED2",
"N. c #8CC1C2",
"B. c #9DC3C4",
"V. c #89C1D4",
"C. c #81CCDB",
"Z. c #84C3D5",
"A. c #98C9D9",
"S. c #91CFDD",
"D. c #80D4D6",
"F. c #82D3DC",
"G. c #8AD3DD",
"H. c #83DADD",
"J. c #8EDADB",
"K. c #99D3D9",
"L. c #A5CFDE",
"P. c #B1D5D6",
"I. c #85D6E1",
"U. c #87DAE3",
"Y. c #8ADDE4",
"T. c #92DDE6",
"R. c #A7D7E3",
"E. c #8AE3EA",
"W. c #8DE9ED",
"Q. c #88E2E5",
"!. c #99ECEF",
"~. c #94E7EB",
"^. c #8FEEF0",
"/. c #93EFF1",
"(. c #94F0F2",
"). c #9BF1F2",
"_. c #AAE7EA",
"`. c #B5EDF1",
"'. c #A9F3F4",
"]. c #B3F3F5",
"[. c #BAF5F6",
"{. c #B4E5EC",
"}. c #CACBCB",
"|. c #C4DBDC",
" X c #E3DBD1",
".X c #C2DFE9",
"XX c #C5E9EC",
"oX c #D6E3E3",
"OX c #DFEEF3",
"+X c #CCF8F9",
"@X c #CAF4F6",
"#X c #D5F9FA",
"$X c #CFEFF0",
"%X c #E2E3E3",
"&X c #E6EBEA",
"*X c #E6F8F9",
"=X c #F1FDFD",
"-X c #E9E3D8",
/* pixels */
"                                                                                                                                ",
"                                                                                                                                ",
"                                                                                                                                ",
"                                                                                                                                ",
"                                                                          . . . . . .                                           ",
"                                                                        . . . . . . . .                                         ",
"                                                                        . . X + @ - - -                                         ",
"                                                                        . . O : 0 y g r 0                                       ",
"                                                                        . . @ 0 j  .X.v y - .                                   ",
"                                                                        . . - r X.<.6.X.y - . .                                 ",
"                                                                        . . - j %.D.D.%.c 9 = #                                 ",
"                                                                      . . . - j o.D.H.>...x e w 8                               ",
"                                                          . . . . . . . . . - j %.w.Q.9.=...[ h w @ .                           ",
"                                                        . . . . . . . . . . - j #.w.W.D.9.1.@.[ e = . .                         ",
"                                                        > > > > > > > > ; : 0 v %.w.Q.I.C.7.-.| h 8 - @                         ",
"                                                      u l n M M M M N z z j c X.,.q.I.C.0.7.1.@.[ h e w 8                       ",
"                                          . . . . . ; l t.r.s.s.s.s.a.e.*.%.%.:.6.0.C.0.7.7.1.;.@.| [ h w @ .                   ",
"                                        . . . . . . > N r.}.%X%X%X-XoX{.P.G.w.q.q.0.7.7.7.7.3.2.1.-.@.[ e = . .                 ",
"                                        - : - : - - q O.d.oX=X=X=X=X*X@X`.~.E.U.C.0.7.7.7.7.0.7.7.5.-.| h 8 = #                 ",
"                                      0 r y j j j j v &.n.$X#X#X#X#X@X`._.E.U.I.I.C.C.C.C.w.C.0.7.7.1.@.[ h e w 8               ",
"                                  . - r v X.%.o.%.o.&.p.K.`.[.[.[.[.`._.T.S.C.I.I.U.U.U.U.U.I.C.0.7.2.;.@.| [ h w # .           ",
"                                . o - y X.6.w.w.D.D.H.Q.E.!.).).).).!.Y.I.0.0.C.U.E.W.W.W.W.E.I.C.7.3.2.1.-.@.[ e = . .         ",
"                                - - 0 b &.J.).(.(.(.^.W.W.W.W.W.W.W.E.I.C.7.7.C.I.E.W.W.W.W.W.w.9.1.-.-.;.;.@.[ w # . .         ",
"                              0 y y v *.N._.[.'.).(.W.W.E.Y.U.Y.U.U.I.C.0.7.7.0.C.I.U.E.W.W.Q.9.=...{ { { { c t 8 + . .         ",
"                          . - r v X.&.N.P.[.@X[.'.(.W.Q.U.I.q.C.q.C.q.0.7.7.7.7.0.q.I.I.E.W.Q.>...j t e e t w 8 - O . .         ",
"                        . . : g X.8.J._.@X*X*X+X[.).W.Q.F.Z.7.7.0.7.7.7.7.7.5.7.7.7.0.I.U.W.w.%.c 9 - # = = # + O . . .         ",
"                        ; > q b &.H.).[.+X*X*X+X].).W.U.C.7.5.M.M.M.V.M.M.7.7.7.5.5.5.0.q.w.6.X.y : . . . . . . . . . .         ",
"                      u l N B *.N.Q.(.'.[.+X+X[.'.).W.U.C.7.M.V.A.L.R.L.S.I.0.0.0.5.3.1.=.%.X.v r - . . . . . . . . .           ",
"                  . > l O.e.d.B.K.~.(.).'.[.].'.).(.W.U.C.7.M.A.R..X.X{.~.T.I.C.0.7.1.$.| c y r 0                               ",
"                . . > n e.}.oXXX_.!.(.(.(.).).)././.W.U.C.0.V.L..XOXOX@X`.!.E.I.q.7.:.| j 9 : -                                 ",
"                . . > M d.%X=X#X[.).W.Q.Q.H.D.H.Q.W.Q.I.C.7.M.L..XOX*X@X].).E.U.C.0.;.{ e = . .                                 ",
"                . . > M d.%X=X#X[.).Q.w.<.%.%.>.9.D.I.C.0.7.M.A.R..X.X{.'.).E.U.C.7.;.{ e - . .                                 ",
"                . . > M s.%X=X#X[.).U.8.o.v c ..;.7.C.7.7.7.M.M.A.L.R.R.!.(.E.U.C.7.-.{ t = . .                                 ",
"                . X > M s.%X=X#X[.).w.%.v 0 9 x ..1.7.7.7.5.5.7.M.M.Z.S.E.E.W.U.C.0.-.{ t = . .                                 ",
"                . . > M s. X=X$X_.J.8. .y - @ w [ @.1.1.2.5.5.5.M.5.7.C.I.E.E.U.0.7.-.{ t = . .                                 ",
"                . . > M d.%X*X}.B.*. .j 0 @ @ 8 t c { @.;.2.5.5.5.5.5.M.C.I.I.C.0.7.-.{ e # . .                                 ",
"                . . > M s.%X&XP.a.b y 0 : O O = 8 w h { @.1.5.5.5.5.7.7.0.C.C.0.7.7.-.{ e # . .                                 ",
"                . . > M s.%XoXg.O.q - @ + X . O + # 8 h { -.5.5.5.5.7.7.7.7.7.7.7.3.-.{ r @ . .                                 ",
"                . . > n u. X Xj.B 2 $ o o X . O + @ 8 h | 1.7.7.7.7.7.0.7.7.7.7.7.7.;.{ t = . .                                 ",
"                . . * f y.b.b.x.L 6 3 2 & o O = 8 w h { @.1.7.7.0.0.C.C.C.C.C.0.7.7.;.{ e = . .                                 ",
"                . . * a L c.v._ / J C 7 < o O 8 t c | @.;.1.7.0.C.U.U.U.U.U.I.w.0.7.-.{ e = . .                                 ",
"                . . & 5 G ` ] ' ! R Y C 3 $ = w c @.;.1.2.3.7.q.U.E.W.W.W.W.E.I.q.7.-.{ e = . .                                 ",
"                . . & 4 S E ~ ~ ~ ~ E F 6 < < k ..a.m.a.5.5.7.q.I.E.W.W.W.^.W.w.7.2.@.[ e = . .                                 ",
"                . . & 4 S E ~ ~ ~ ~ Q Y S 6 a A K u.f.p.p.5.7.0.C.I.U.E.W.^.Q.9.=...[ h w = .                                   ",
"                . . $ 4 S E ~ ~ ~ ~ ^ R Y F D J ( ( i.f.p.m.7.0.0.C.I.I.Y.^.U.>...x e w 8                                       ",
"                . . $ 4 S W ~ ~ ~ ~ ^ ^ W W E ` ` ` ) x.f.m.5.7.7.7.7.I.Y.W.w.%.c 9 = #                                         ",
"                . . $ 3 Z T Q ^ ^ ~ ~ ~ ~ ~ ' ~ ~ ~ ` l.i.p.a.4.5.4.5.7.q.w.6.X.y : . .                                         ",
"              . . . $ 2 d A J T ! ^ ~ ~ ~ ~ ~ ~ ~ ~ ' ) x.i.f.p.n.M.2.1.;.%.X.v y - .                                           ",
"          . . . . . % , 2 f H J T ^ ~ ~ ~ ~ ~ ~ ~ ~ ' ' ) l.z.f.p.m.1.$.| c g r 0                                               ",
"        . . . . . . o > 1 p f H J ! ~ ~ ~ ~ ~ ~ ~ ~ ~ ' ' ' ) z.f.n.:.| j 9 - -                                                 ",
"        . . . % = > , u p k z K T ` ~ ~ ~ ~ ~ ~ ~ ~ ~ ^ W E / U r.*.@.[ e = . .                                                 ",
"        . . % , u m M } +.+.t.U ( ` ~ ~ ~ ~ ~ ~ ~ ~ ^ R Y F G A B } [ h w @ .                                                   ",
"        . . = u M r.d.f.h.h.h.z.l.' ~ ~ ~ ~ ~ ~ ~ ~ W Y S 6 5 p p i e w 8                                                       ",
"        . . ; m r.}.%X%X%X&X-Xb.v.] ~ ~ ~ ~ ~ ~ ~ ~ E F 6 < $ $ = = # @                                                         ",
"        X . > N e.}.%X%X%XoX-Xb.c.` E E E E E E E E Y C 3 $ . . . . . .                                                         ",
"          . > l t.e.s.s.s.f.u.U L G S S S S S S S S C C 3 $ . . . . .                                                           ",
"              u s m M M M M n f a 5 5 4 4 4 4 4 4 4 4 2 <                                                                       ",
"                > > > > > > > > * & & & & & & & & & & &                                                                         ",
"                . . . . . . . . . . . . . . . . . . . .                                                                         ",
"                  . . . . . . . . . . . . . . . . . .                                                                           ",
"                                                                                                                                ",
"                                                                                                                                ",
"                                                                                                                                ",
"                                                                                                                                "
};
