/* XPM */
static char *_597fdae85b64119a939fb20d0eb44bfIihFIbMVn7WbSjwf[] = {
/* columns rows colors chars-per-pixel */
"64 64 95 2 ",
"   c #657F4B",
".  c #6C7D4A",
"X  c #7C7747",
"o  c #747E47",
"O  c #797947",
"+  c #767749",
"@  c #7C7549",
"#  c #737B4B",
"$  c #7C7C4C",
"%  c #8D6C47",
"&  c #896E48",
"*  c #976746",
"=  c #9C6646",
"-  c #946947",
";  c #946E49",
":  c #9E6B49",
">  c #837347",
",  c #837249",
"<  c #8B744A",
"1  c #837C4D",
"2  c #8B7A4D",
"3  c #95744C",
"4  c #9B764D",
"5  c #93794E",
"6  c #A06F4B",
"7  c #A2744D",
"8  c #66963F",
"9  c #68973E",
"0  c #6C9B3A",
"q  c #709F37",
"w  c #709F38",
"e  c #74A334",
"r  c #5D8D46",
"t  c #56864C",
"y  c #5B844C",
"u  c #598949",
"i  c #5B8B48",
"p  c #58884A",
"a  c #59884A",
"s  c #59894A",
"d  c #58884B",
"f  c #5C8949",
"g  c #668646",
"h  c #6E8346",
"j  c #6B8446",
"k  c #688746",
"l  c #6D8545",
"z  c #628A47",
"x  c #668B44",
"c  c #658B47",
"v  c #608F44",
"b  c #618E45",
"n  c #648C46",
"m  c #6B8A43",
"M  c #6B8B43",
"N  c #6F8B45",
"B  c #6D8C45",
"V  c #61814B",
"C  c #60834A",
"Z  c #678149",
"A  c #61864A",
"S  c #63864B",
"D  c #61824C",
"F  c #66824C",
"G  c #60844C",
"H  c #61844C",
"J  c #6F834B",
"K  c #6D8649",
"L  c #6F844A",
"P  c #68824C",
"I  c #6D814D",
"U  c #688848",
"Y  c #718145",
"T  c #708245",
"R  c #718947",
"E  c #73824B",
"W  c #77834A",
"Q  c #718748",
"!  c #70804D",
"~  c #72814C",
"^  c #73804D",
"/  c #79804C",
"(  c #7C804C",
")  c #639341",
"_  c #619143",
"`  c #629242",
"'  c #639242",
"]  c #639342",
"[  c #649440",
"{  c #659540",
"}  c #669540",
"|  c #609044",
" . c #689142",
".. c #6C9042",
"X. c #699440",
/* pixels */
"e 0 8 ` r u r 8 9 q e e e e e e e e e e e e e e e e e e e e e e e e e e e e e e e e e e e e e e e e e e e e e e e e 0 0 8 ` b r ",
"9 9 } ` ` | ` 8 9 e e e e e e e e e e 0 0 0 0 0 e 0 q q q 0 0 e 0 e q e e e e e e e e e e e e e e e e e e e e e e w 9 8 b f t u ",
"` ` } 8 9 9 0 0 e e e e e e e e e 0 0 8 8 ` ] ` | 8 ] 8 ` 8 8 8 8 0 0 e e e e e e e e e e e e e e e e e e 0 0 0 8 X...R R E # # ",
"u r 8 9 e e e e e e e e e e e e 0 0 ] | u t i u u t i t i i t i ` 8 0 e e e e e e e e e e e e e e e e e e 0 9 ` r z K W ( 2 5 5 ",
"` 8 9 0 e e e e e e e e e q 0 0 8 ] ` u t t t u i r ` | r r ` r ` ` 8 0 e q q e e e e e e e e e e e q q 0 9  .c S P # 1 5 4 7 7 ",
"0 q e e e e e e e e e q 0 9 ` | | i u t t u r | 8 8 9 8 9 8 9 8 ) 8 8 ) ` 8 9 0 e e e e e e e q e e 8 } ) B R W ( $ 2 5 5 7 7 7 ",
"e e e e e e e e e e q 0 } ` u u t t t t t i ` 8 0 e e e e e e e 0 9 v i t v 8 9 q e e e e e e e 0 } b r F J ( 2 5 4 4 4 4 7 7 7 ",
"e e e e e e e 0 0 8 8 ` | r u t t i r | | 8 8 0 0 e e e e e e e q 9 8 ` ` 8 8 0 e e e e e e e e 0 ) u t G # $ 2 4 7 7 7 7 7 7 7 ",
"e e e e e e 0 8 ) | i i i t t t i | 8 8 0 e e q e e e e e e e e q q q 0 q q q e e e e e e e e e 9 ` f t V # X < ; 7 : : : : 6 : ",
"e e e q q 0 9 } | u t t t t t t i | 8 9 e 0 0 e q q e e e e e e e e e e e e e e e e e e e e e e 9 8 r u D . @ & * = = = = = = = ",
"e 0 0 9 8 ] | r i t t t t t t t i i i 8 } 8 8 8 8 8 8 0 0 q e e e e e e e e e e e e e e e e e e 0 0 9 v c l o X , & % - * = = = ",
"e 0 8 ` i u u t y t t t t t t t t t u i t u u i u u r 8 8 0 q e e e e e e e e e e e e e e e e e q q 0 0 9  .M l . # @ , % * = = ",
"8 8 ] i u t u u i | i ` | r i r u r i i i r i i i i r ` ` 8 q q e e e e e e e e e e e e e e e e e e e e q 9 8 b i V . @ & - * = ",
"| u i u t t i | ] 8 8 8 8 8 8 8 8 } 9 9 9 8 8 8 9 8 8 8 8 8 8 8 9 0 0 e e e e e e e e e e e e e e e e e e 0 9 9 8 c M Y O X > & ",
"t t t t t t | ] 8 q e e e e e e e e e e e e e 0 e e 0 9 8 | i u ` 8 0 e e e e e e e e e e e e e e e e e e q q q 0 0 9 M g Z . + ",
"t u i r | ] 8 8 q q e e e e e e e e e e e e e e e e e 0 8 8 ` ` ) 8 0 e e e e e e e e e e e e e e e e e e e q q q 0 9  .n S F ~ ",
"u r ` ] 9 0 0 q e e e e e e e e e e e e e e e e e e e e e e q 0 q e e e e e e e e e e e e e e e e e e e e 0 0 8 8 ) B R W / $ 1 ",
"i ` 8 0 e e e e e e e e e e e e e e e e e e e e e e e e e e e e e e e e e e e e e e e e e e e e e e e e e 9 } | f c Q / 1 5 4 4 ",
"8 8 0 0 e e e e e e e e e e e e e e e e e e e e e e e e e e e e e e e e e e e e e e e e e e e e q q e 0 9 } b f t G ^ 1 5 4 7 7 ",
"0 e e e e e e e e e e e e e e e e e e e e e e e e e e e e e e e e e e e e e e e e e e e e e e q 0 9 8 8 | u u u u D I $ 2 4 7 7 ",
"e e e e e e e e e q 0 e q q q q e e e e e e e e e e e e e e e e e e e e e e e e e e e e e e e q 8 ` i u t t t t y G # $ 2 7 7 7 ",
"e e e e e e q 0 9 8 8 } ` 8 8 8 8 0 0 e e e e e e e e e e e e e e e e e e e e e e e e e w 0 8 8 ` r u t t t t t t y # 1 2 4 7 7 ",
"e e e e e e 0 8 ` r u u u u f i b 8 e e e e e e e e e e e e e e e e e e e e e e e e q 0 8 ` | u u u u t t t t t t G . @ < ; : : ",
"e e q q 0 9 8 ` r u t u u i u r | } e e e e e e e e e e e e e e e e e e e e e e e e 0 8 ` u t t t t t t t t u t u D # @ & = = = ",
"e q 9 8 } | r u i t t i r ` ` 9 9 0 w e e e e e e e e e e e e e e e e e e e e e e q 0 8 ` u t t t t t t y   . . # @ , & % = = = ",
"q 8 8 | u t t t t t u r ` 0 0 e e e e e e e e e e e e e e e e e e e e e e e e e e e 0 8 | u t t t t t t   . + @ & % - - * = = = ",
"8 ] | t u t u u r | | } 9 0 q e e e e e e e e e e e e e e e e e e e e e e e e e e e q 8 8 | u u t t y t   . @ % = = = = = : = = ",
"| i i t t u i b ] 9 0 0 q q e e e e e e e e e e e e e e e e e e e e e e e e e e e e q e 0 8 8 ` r i t y   . @ % = = * : : : : : ",
"u u u t t d r } 9 e e e e e e e e e e e e e e e e e e e e e e e e e e e e e e e e e e e e e e 9 8 ` r t Z # @ % = * : : : 7 7 7 ",
"# . F G t d u b ` ] 9 9 9 9 8 0 9 9 9 9 8 0 8 0 0 e 0 q q q e e e e e e e e e e e e e e e e e 0 8 8 | r g Y O > % ; ; 4 7 7 7 7 ",
"2 $ ~ P D u t t i r r f f f r f r r r r | r | r | | ` 8 0 q e e e e e e e e e e e e e e e e e e 0 e 8 9  .m j ~ # @ 2 2 4 7 7 7 ",
"4 2 1 #   D D D d V y y y d d d t t t t t t t t t u r ` 8 0 e e e e e e e e e e e e e e e e e e e e e e 0 9 ` S t   # 1 2 4 7 7 ",
"; ; & , @ @ @ @ @ @ + #     t t t t t t t t i | | ] 8 9 0 0 e e e e e e e e e e e e e e e e e e e e e e w } ` i t G ~ 1 5 4 7 7 ",
"= = * = - - - - - - % @ #     t t t t t t i | ` 8 q q e e e e e e e e e e e e e e e e e e e e e e e e e w X.} i d G ~ 1 2 7 7 7 ",
"= = = = = = = = = = * & + .   t t t u u i ` ` 0 q e e e e e e e e e e e q q e e e e e e e e e e e e e e w X.` f d P ^ 1 5 7 7 7 ",
"= = = = = = = = = = * & @ .   t u ` ` 8 8 9 0 q e e e e e e e e e e e q 8 9 q e e e e e e e e e 0 0 0 0 ..B R K ^ $ 1 5 5 7 7 7 ",
"= = = = = = = = = = - & @ .   t r ` 8 0 e e q e e e e e e e e q 0 8 } u | ` 8 0 q e e e e e e q 0 8 8 i c Q ( 2 5 5 3 3 4 7 7 7 ",
": : : : : : - ; % & @ + .   t t u | } 9 0 0 q q e e e e e e e e 0 8 ` | | ` 0 0 q e e q q q 0 8 8 r t i V # $ 2 4 4 4 7 7 7 7 7 ",
"6 7 6 6 7 3 < , +   .     y t t u u i | | 8 8 0 e e e e e e e e q 0 0 8 0 0 0 q e e q 0 9 8 8 | r i t t d Z ~ # $ 1 2 5 3 : : : ",
"7 7 7 7 7 4 2 $   t     t t t t t t t t t ` ] 8 q e e e e e e e e q q e q q e e e q 0 8 | | t t t t t t d V t G y . @ , ; : * : ",
"7 7 7 6 6 ; < $ . G t t t t t t t t t t t u | | 8 0 9 9 0 0 0 0 q q q e e e e e e e q 8 ` ] i | r r r r r r i u f F Y O > % - - ",
"7 6 6 : = : < # . y t t t t t t t t t t t u u i u | | | | | | ] 8 0 q e e e e e e e e q 0 0 8 0 8 8 8 } 8 9 8 8 X. .M Y o # @ , ",
"7 6 6 6 = ; , + . t t t t t t t t t u u u i u t u t t t t t t i ` 8 0 q e e e e e e e e e e e e e e e e e e q e e 0 9 ` f d   # ",
"7 7 6 6 6 ; < $ . t t t t t t t u i | | 8 ] ] ] ] ] ] ] | ] ] ] ` 8 8 8 0 0 q e e e e e e e e e e e e e e e q 0 0 X...B h . # @ ",
"7 7 7 7 7 5 2 $ P G t t t t t t r ` 8 0 0 0 0 0 e 9 0 e 0 0 0 9 8 8 ] ` | ` 0 0 e e e e e e e e e e e e e 0 } 8 r g . O X > , % ",
"7 7 7 7 7 4 5 $ / P F G d u t y u ` 8 9 q e e e e e e e e e e e 0 ` ` u u ` 8 8 q q q q e e e q e e q e 0 8 r u u   o @ % = = 6 ",
"7 7 7 7 7 4 4 5 2 2 1 ~ # G y u u r r ` } 8 8 q e e e e e e e e 0 0 8 8 8 8 8 ` 8 8 8 8 8 8 8 8 8 8 8 8 9 r u u t   # @ % = = 6 ",
"7 7 7 7 7 7 4 7 4 7 5 1 $ ~ f t t t u t u ` 8 9 e e e e e e e e q e q q 0 8 ` ` r i i i | i | i r r u r i i i t t   # > % = = 6 ",
"7 7 7 7 7 7 7 7 7 7 5 5 ( I G t t t t t t d | ] X.0 e 0 e e e e e e e e e 0 9 ] | i i i f u u r i u u i d t t t t   + @ % = = = ",
"7 7 7 7 7 7 7 7 7 7 4 2 ( I G t t t t t d d d i ] ] } X.0 e e e e e e e e q 0 0 8 } } 8 8 8 8 ` 8 8 8 8 8 S d u y   + @ % = = 6 ",
"7 7 7 7 7 7 7 7 7 7 7 2 ( I G t t t t t t t t t t t r ] 0 0 e e e e e e e e e e e q e 0 e e q q q e e 0 9 8 r f t   + @ % = = 6 ",
"7 7 7 7 7 7 7 7 7 7 7 5 2 1 ~ I P F G t t t t t t t r ] } 0 e e e e e e e e e e e e e e e e e q q 0 e 9 9 8 8 Z   . @ > * = = = ",
"7 7 7 7 7 7 7 7 7 7 7 4 4 5 5 2 $ # F G t t t t t t r ] } e e e e e e e e e e e e e e e e e e q 8 9 } 8 k l o X @ & % % * = = = ",
"7 7 7 7 7 7 7 7 7 7 7 7 7 7 7 4 2 1 ! G t t t t t t i ] } 0 e e e e e e e e e e e e e e e e e 0 8 | f t   O , % * * * = = = = = ",
"7 7 6 6 6 6 6 6 6 6 6 6 7 7 7 4 2 $ . G t t t t t t i r | } } 0 0 q e e e e e e e e e q 0 0 8 ` | u u u     + @ & % % - = = = = ",
"7 6 = = = = = = = : 6 7 4 7 7 4 2 $ ~ y t t t t t t t s i i | | 8 0 e e e e e e e e 0 8 ` | | ` u u u t y       . + > & - = = = ",
"= = = = = = = = = = = : : 6 6 4 < $ I y u t t t t t t t u i u | ] 8 q e e e e e e q 0 8 ` u t t t t t t t t t t y   o > % = = = ",
"= = = = = = = = = = = = = : : : < $ . D t t t t t t i i | | 8 8 0 q q e e e e e e q q 0 8 8 ` ` 8 ` | 8 ` 8 ` | v g o o X > & % ",
"= = = = = = = = = = = = = = = - , @ . y t t t t t t i ` } 8 q q q e e e e e e e e q e q q q 0 q 0 0 0 0 0 0 0 0 0 9 9 h j . # @ ",
": = = : 6 = 6 6 : : : : : : : : < @ . y t u d u i | ` } 0 e e e e e e e e e q e q q q q q e e e e e e e e e e e q 0 9 g f u . $ ",
"6 7 6 6 7 7 7 7 7 7 7 7 : 4 6 3 2 $ . D t u ` ] 8 } 0 0 q e e e e e e e q q 0 } 8 8 9 q q e e e e e e e 0 e 9 8 8 8 j o O + @ < ",
"7 7 7 7 7 7 7 7 7 7 7 7 7 7 7 4 2 $ I y t ` ` 8 e e e e e e e e e e e e q X.] | i i ` 9 0 e e e e e e e 0 8 8 r u Z o X > % ; ; ",
"7 7 7 7 7 7 7 7 7 7 7 7 7 7 7 4 2 $ I f t u | ] 8 8 0 8 8 0 0 0 0 0 0 0 0 8 8 ` | ` 8 8 q e e q 0 e e 9 8 8 r u     + > - = : : ",
"7 7 7 7 7 7 7 7 7 7 7 7 7 7 4 4 2 $ I f t i i u | | | | | | | | | | | | ` ] 8 ] 9 8 0 q q q q e 0 8 8 r r r u t y   # , % = = 6 "
};
