/* XPM */
static char *_01f81a3add347839d0e5448cfc4b2e84gDH13SwLtEFuP73[] = {
/* columns rows colors chars-per-pixel */
"64 64 181 2 ",
"   c None",
".  c #131B1B",
"X  c #2C211E",
"o  c #172527",
"O  c #182527",
"+  c #1A2728",
"@  c #1C2829",
"#  c #1B2D32",
"$  c #1C353B",
"%  c #1D383F",
"&  c #1E3133",
"*  c #2E2A21",
"=  c #232C2B",
"-  c #2E3636",
";  c #263636",
":  c #422B23",
">  c #5B2D24",
",  c #583F2B",
"<  c #473627",
"1  c #6B362A",
"2  c #44443C",
"3  c #584734",
"4  c #65472E",
"5  c #754C30",
"6  c #1F3D44",
"7  c #253E42",
"8  c #2B4244",
"9  c #25434A",
"0  c #334848",
"q  c #234752",
"w  c #244C57",
"e  c #264E59",
"r  c #294F57",
"t  c #2B535B",
"y  c #27515C",
"u  c #395B5D",
"i  c #33575C",
"p  c #2A5F6F",
"a  c #295865",
"s  c #3C5E61",
"d  c #325C67",
"f  c #2A606F",
"g  c #386167",
"h  c #2D6372",
"j  c #2D697B",
"k  c #376974",
"l  c #326D7D",
"z  c #3B6E7B",
"x  c #366872",
"c  c #3F7077",
"v  c #36707E",
"b  c #475959",
"n  c #765C47",
"m  c #6D624E",
"M  c #48767A",
"N  c #47777C",
"B  c #5E7878",
"V  c #4F686A",
"C  c #626B6D",
"Z  c #79796D",
"A  c #89392B",
"S  c #933C2C",
"D  c #925A37",
"F  c #934736",
"G  c #A5402E",
"H  c #BA4631",
"J  c #B64430",
"K  c #B45938",
"L  c #A94A32",
"P  c #9D653B",
"I  c #A5643C",
"U  c #B76B3F",
"Y  c #CA4B34",
"T  c #C24A33",
"R  c #D14B34",
"E  c #D45337",
"W  c #D9633D",
"Q  c #CD613C",
"!  c #BE5846",
"~  c #916440",
"^  c #A47B58",
"/  c #B06C53",
"(  c #8A5045",
")  c #D3604C",
"_  c #D36E41",
"`  c #D97648",
"'  c #C97041",
"]  c #E47A48",
"[  c #D57261",
"{  c #C87E71",
"}  c #8E8B73",
"|  c #958779",
" . c #B58D65",
".. c #BC907A",
"X. c #D48248",
"o. c #DC844A",
"O. c #DC9056",
"+. c #D6905E",
"@. c #C3814F",
"#. c #E9884C",
"$. c #EF914F",
"%. c #ED9358",
"&. c #D8897C",
"*. c #DB8A77",
"=. c #DD9C6A",
"-. c #E38D66",
";. c #ED9D64",
":. c #E89E72",
">. c #ECA776",
",. c #366F81",
"<. c #3C7481",
"1. c #457C84",
"2. c #447A8A",
"3. c #4A7F84",
"4. c #527781",
"5. c #4F8387",
"6. c #538689",
"7. c #568587",
"8. c #598998",
"9. c #5F8F93",
"0. c #678882",
"q. c #678F9C",
"w. c #669496",
"e. c #67959D",
"r. c #78989B",
"t. c #74888A",
"y. c #6996A3",
"u. c #719CA9",
"i. c #7BA4A9",
"p. c #7FA7B2",
"a. c #8F9893",
"s. c #B79981",
"d. c #95A1A3",
"f. c #96AFAD",
"g. c #8AAFB1",
"h. c #8FB0B9",
"j. c #92B5BD",
"k. c #9AB3B6",
"l. c #ABADA7",
"z. c #D9968B",
"x. c #D2A39C",
"c. c #D4B192",
"v. c #EAB58D",
"b. c #E8B390",
"n. c #DCB2AC",
"m. c #DDBBB6",
"M. c #D4B5A8",
"N. c #D8CABA",
"B. c #E7CDB7",
"V. c #E4CCB7",
"C. c #E7D1BF",
"Z. c #E6C0A8",
"A. c #9FBEC7",
"S. c #A7C4CD",
"D. c #ADC9CC",
"F. c #B8CBCD",
"G. c #B4CED2",
"H. c #B8D1D8",
"J. c #B8D0D7",
"K. c #DFCAC8",
"L. c #DCC9C7",
"P. c #C9D6DA",
"I. c #C5D8DC",
"U. c #D7DEDD",
"Y. c #C3CBC4",
"T. c #E5D8CD",
"R. c #E1DCDC",
"E. c #E3E3DF",
"W. c #C9DEE4",
"Q. c #E1DFE0",
"!. c #CCE0E6",
"~. c #CFE2E8",
"^. c #D1E4E7",
"/. c #D5E6EB",
"(. c #DAEBEF",
"). c #DBE4E4",
"_. c #DCECF0",
"`. c #E3E5E2",
"'. c #E3EAEB",
"]. c #E1EFF3",
"[. c #E3F1F5",
/* pixels */
"                                                                                                                                ",
"                                                                                                                                ",
"                                                                                                                                ",
"                                                                                                                                ",
"                          . . . . . . . . . . . . . . . . . . . . . . . . . . . . . . . . . . . . . .                           ",
"                        . . . . . . . . . . . . . . . . . . . . . . . . . . . . . . . . . . . . . . . .                         ",
"                        + + @ = = - - - - - - - - - - - - - - - - - - - - - - - - - - - - - - & = @ + @                         ",
"                      ; ; 8 0 b b C C C C C C C C C C C C C C C C C C C C C C C C C C C C C C b b 0 8 ; ;                       ",
"                  . @ ; 0 u V B t.a.d.d.d.d.d.d.d.d.d.d.d.d.d.d.d.d.d.d.d.d.d.d.d.d.d.d.d.d.a.t.B V u 0 ; @ .                   ",
"                . . = 7 u M 7.r.k.F.W.P.P.P.P.W.P.P.P.P.P.P.P.P.I.P.P.P.P.P.P.P.P.P.P.P.P.P.G.k.r.7.M b 8 = . .                 ",
"                . . = 0 V 7.r.j.G./.[.[.].].[.[.[.[.[.[.[.[.[.[.[.[.[.[.[.[.[.[.[.[.[.[.[.[./.G.k.i.4.V 0 = . .                 ",
"              . . . = u B r.k.D.I.(.[.[.].].[.[.[.[.[.[.[.[.[.[.[.[.[.[.[.[.[.[.[.[.[.[.[.[./.I.D.h.u.B u = . . .               ",
"          . . . . . - b t.k.J.H.~._.].[.[.[.[.[.[.[.[.[.[.[.[.[.[.[.[.[.[.[.[.[.[.[.[.[.[.[._.~.H.G.k.t.b = . . . . .           ",
"        . . . . . . - V a.G./._.].].].[.[.[.[.[.[.[.[.[.[.[.[.[.[.[.[.[.[.[.[.].[.[.[.[.[.[.]._.(./.G.a.C - . . . . . .         ",
"        * * * * * * 2 Z l.I.[.[.[.[.].'.`.Q.`.R.R.R.Q.R.R.R.R.R.R.Q.R.R.R.Q.R.Q.R.Q.Q.`.'.].].[.[.[.P.l.Z 2 * * * * * *         ",
"      < , 4 4 4 4 4 n | l.U.[.[.[.].'.U.K.m.n.n.n.n.n.n.n.n.n.n.n.n.n.n.n.n.n.n.n.n.m.K.R.'.[.[.[.[.U.l.| n 4 4 4 4 4 3 <       ",
". . * , 5 P P P P P ^ ..N.P.[.[.[.[.Q.K.n.z.&.&.*.&.&.&.&.&.&.&.&.{ z.{ *.{ z.{ &.&.z.n.K.'.[.[.[.[.U.M... .D D P P P 5 3 * .   ",
". . * 4 D ' X.X.X.X.+.c.N.E.[.[.[.[.R.m.z.[ ) ) ) E ) ) ) ) ) ) ) ) ) ) ) ) ) ) ) ) [ z.m.Q.[.[.[.[.`.N.c.+.X.X.X.X.U D 4 * . . ",
". . * 4 P X.$.$.$.$.;.v.B.E.'._.`.E.L.x.{ ! H H H H H Y Y Y R R R R R Y R T H H J J ! { x.L.Q.).(.[.E.B.v.;.$.$.$.$.X.P 4 * . . ",
". . * 4 P X.$.$.$.$.;.v.B.E.'.T.K.N.x.../ F A A A A S G J Y R R R R Y H G S A A A A F / ..x.m.K.R.'.E.B.v.;.$.$.$.$.X.P 4 * . . ",
". . * 4 P X.$.$.$.$.;.v.B.`.`.K.n.z.{ / ( 1 > > > > 1 A G T R R R R R G A 1 > > > > 1 ( / { z.n.K.`.`.B.v.;.$.$.$.$.X.P 4 * . . ",
". . * 4 P X.$.$.$.$.;.v.B.`.`.m.z.[ ! ( 1 * X X X X * 1 S T R E R R H S 1 * X X X X : 1 F ! [ z.m.E.`.B.v.;.$.$.$.$.X.P 4 * . . ",
". . * 3 P ' O.O.O.O.=.c.N.`.R.n.z.) H S 1 : * * X * : 1 G H E E E E Y S 1 < * * * X : 1 S H ) &.n.R.`.N.b.=.O.O.O.O.@.D 3 * . . ",
". . = 3 n }  . . . ...M.N.`.R.n.{ ) Y L F 5 4 4 4 4 5 D K Q W W ) W Q K F 5 4 4 4 n 1 F L Y ) &.n.R.).N.M... . . . . .m 3 * . . ",
". . * 2 m } } } } } } l.N.~.U.n.&.) R Y K I P P P P I / Q X.] ] ] ] W W U I P P P P I I K E ) &.M.E.^.Y.l.} } } } } } m 8 * . . ",
". . @ 0 b B 0.0.0.0.r.f.F.^.R.n.&.) R ) _ ` X.X.X.X.X.o.#.#.#.#.#.#.#.#.o.o.X.X.X.` ` W Q E ) &.Z.E.^.Y.f.r.0.0.0.0.B b 8 @ . . ",
". . @ 8 s M 6.6.6.6.w.g.D.^.U.N.z.[ ) ] #.$.$.$.$.$.$.$.$.$.$.$.$.$.$.$.$.$.$.$.$.$.#.#.` ) [ z.N.T.^.D.f.w.6.6.5.6.N s 8 @ . . ",
". . @ 8 s M 6.6.6.6.w.g.D.^.E.T.n.z.*.*.-.%.$.$.$.$.$.$.$.$.$.$.$.$.$.$.$.$.$.$.$.$.%.-.-.*.z.n.K.).^.D.g.w.6.6.6.6.N s 8 + . . ",
". . @ 8 s M 6.6.6.6.w.g.D.^.'.T.K.m.b.z.:.%.$.$.$.$.$.$.$.$.$.$.$.$.$.$.$.$.$.$.$.$.%.;.b.x.m.K.R.'.^.D.g.w.6.6.6.6.N u 8 @ . . ",
". . @ 8 s M 6.7.6.6.w.g.D.^.].'.`.R.T.Z.v.;.$.$.$.$.$.$.$.$.$.$.$.$.$.$.$.$.$.$.$.$.;.v.Z.T.E.`.(.].^.D.g.w.6.6.6.6.N u 8 @ . . ",
". . = 8 s M 3.5.6.6.w.g.D.^.[.[.[.[.`.T.b.>.;.;.%.;.;.;.;.;.;.;.;.;.;.;.;.;.;.;.;.;.>.b.C.`.[.[.[.[.^.D.g.w.6.6.6.6.M u 8 @ . . ",
". . + 7 u M 3.3.6.6.w.g.D.^.[.[.[.[.'.T.B.b.v.v.v.v.v.v.v.v.v.v.v.v.v.v.v.v.v.v.v.v.Z.B.T.`.[.[.[.[.^.D.g.w.6.6.5.3.c i 7 @ . . ",
". . + 6 t x <.1.5.6.w.g.S.~.[.[.[.[.'.E.T.T.B.B.B.B.B.B.B.B.B.B.C.B.B.B.B.B.B.B.B.B.C.T.E.[.[.[.[.[.^.D.g.w.5.5.v <.k t ; + . . ",
". . + % r h v N 1.6.w.p.D.~.[.[.[.[.[.'.`.`.E.`.E.`.E.`.`.`.`.`.E.E.`.E.`.`.`.`.).(.).'.'.[.[.[.[.[.^.D.g.w.5.5.<.v f r 6 + . . ",
". . o $ q f h v <.5.9.p.A.H.~.~.(.[.[.[.[.[.[.[.[.[.[.[.[.[.[.[.[.[.[.[.[.[.[.[.[.[.[.[.[.[.[.(.^.!.H.A.p.9.5.N c h a q % + . . ",
". . o $ 6 9 t f k <.6.y.p.j.A.H.!.(.[.[.[.[.[.[.[.[.[.[.[.[.[.[.[.[.[.[.[.[.[.[.[.[.[.[.[.[.(.W.H.S.j.g.e.6.c x f t q 9 $ + .   ",
"      & $ $ 6 y f c 1.5.8.y.p.A.J./.[.[.[.[.[.[.[.[.[.[.[.[.[.[.[.[.[.[.[.[.[.[.[.[.[.[.[.[.~.H.A.p.u.8.8.<.l f e 9 $ $ #       ",
"        o o # 6 t h v v ,.,.8.p.S.^.[.[.[.[.[.[.[.[.[.[.[.[.[.[.[.[.[.[.[.[.[.[.[.[.[.[.[.[.~.S.p.9.<.<.<.,.h y 7 # o o         ",
"        . . o % w f j j ,.,.,.y.j.J.!.!.!.!.^./.(.[.[.(./.~.~.W.!.!.^.^.(.].[._./.~.!.!.W.!.H.j.e.<.j j ,.j p w 6 o . .         ",
"        . . o 6 w f j j ,.,.,.8.u.j.A.A.A.A.S.J.W.(.(.W.H.S.A.A.A.A.D.G.!.(.(.!.H.S.A.A.A.A.j.u.8.<.j j j j p w $ o . .         ",
"        . . + % w p ,.j j j ,.,.8.y.u.u.u.u.p.A.H././.H.A.p.u.u.u.u.p.A.H.(./.H.A.p.u.u.y.y.y.8.2.,.j j j j p w 6 o . .         ",
"        . . + % w p ,.j j j f ,.<.1.2.2.2.2.8.p.S.~.~.S.p.8.2.2.5.<.8.p.S.~.~.S.p.8.<.<.,.,.,.,.,.j j j j j p w $ o . .         ",
"        . . + $ w a p p p ,.,.,.j j j j j j 2.u.A.~.W.A.u.2.j j ,.,.<.i.A.!.!.A.u.<.,.,.p ,.,.,.j j j h h p a q $ o . .         ",
"          . o $ 6 q w a p f p ,.j j j j j j 2.u.A.W.~.A.u.2.j j j ,.<.u.A.!.!.A.u.,.,.,.,.,.p ,.j j j p a e w 6 $ o .           ",
"              # # 6 6 q a f j j j j j j j j 2.u.A.~.W.A.u.2.j j j j <.p.A.~.!.A.u.<.,.,.,.,.,.,.j j h a w 6 $ $ #               ",
"                o o # 6 y p j ,.j j j ,.j j 2.u.A.W.~.A.u.2.j j j j <.u.A.!.!.A.u.2.,.,.p ,.,.,.j j h e 6 # o o                 ",
"                . . o 6 w p ,.,.,.<.2.2.2.<.8.p.S.~.~.S.p.8.2.2.<.<.8.p.S.~.~.S.p.8.2.2.,.,.2.,.,.,.p w $ o . .                 ",
"                . . o 6 w p ,.2.8.y.u.u.u.u.p.A.H././.J.A.p.u.u.u.u.p.A.H././.H.A.p.u.u.y.y.y.8.<.,.p w 6 o . .                 ",
"                . . o % w f <.8.u.A.A.A.A.A.S.H.W._._.W.H.S.A.A.A.A.S.H.W.(.(.W.H.S.A.A.A.A.A.u.8.<.j w $ o . .                 ",
"                . . o % w f <.y.j.J.W.W.W.W./././.]._._./.~.W.~.!.!.~./.(.].].(./.~.~.W.W.W.G.h.y.<.p w 6 o . .                 ",
"                . . + % q a <.q.h.J.W.^.W.W.W.W.~.W.W.~.W.~.~.W.!.!.~.!.!.!.!.!.W.~.~.~.W.W.J.h.q.,.a q 6 o . .                 ",
"                  . o $ 7 q d 4.r.h.A.A.A.A.S.A.A.A.A.A.A.A.A.A.A.A.A.A.A.A.A.A.A.A.A.A.A.A.h.r.4.d q 6 $ + .                   ",
"                      # $ 6 7 s 4.q.u.u.u.u.u.u.u.u.u.u.u.u.u.u.u.u.u.u.u.u.u.u.u.u.u.u.i.u.q.4.g q 6 # #                       ",
"                        o o & q d z 2.2.2.2.2.2.2.2.2.2.2.2.2.2.2.2.2.2.2.1.2.2.2.2.2.2.2.2.z d 7 & + +                         ",
"                        . . O 7 r h v v v l v v ,.,.j l h h p p p h h h j l l l ,.j ,.,.v v h e 7 + . .                         ",
"                        . . o 7 t c v v <.v v v <.<.z h d e w w w e y a h z <.<.<.<.<.,.v v k t 7 @ . .                         ",
"                        . . + 7 i c 1.1.1.1.1.1.1.1.N g r 9 % 6 % % 9 y g c 1.1.1.1.1.1.1.1.c i 8 + . .                         ",
"                        . . @ 8 u N 5.5.5.5.5.5.5.5.N g 0 # o o o o & 0 g N 5.5.5.5.5.5.5.5.M u 8 + . .                         ",
"                        . . @ 8 u N 5.5.5.5.5.5.5.5.N u 8 + . . . . @ 8 u N 5.6.5.5.5.5.5.5.M u 8 + . .                         ",
"                        . . @ 7 i M 1.1.1.1.1.1.1.1.c t 8 + . . . . + 7 i c 1.1.1.1.1.5.1.1.c i 8 o . .                         ",
"                        . . + 7 t k v v 1.v v v <.<.k t 7 o . . . . + ; t k v 1.<.<.v <.<.z k t 7 o . .                         ",
"                        . . o 6 e h v z l v v l l l h e 6 o . . . . + % e h l l l v v l l l h e 6 o . .                         ",
"                        . . o 6 w f j j j j j j j j p w $ o . . . . o % w p j j j j j j j j p w % o . .                         ",
"                          . o $ w f j j j j j j j j p w 6 o . . . . o % w p j j j j j j j j f w % o .                           "
};
