/* XPM */
static char *b0834defc4244478ba847aa814b7f0dbTUAvRzKAR3oSqqdb[] = {
/* columns rows colors chars-per-pixel */
"64 64 94 2 ",
"   c #647F4B",
".  c #6E7B4A",
"X  c #6A7C4A",
"o  c #6B7E4B",
"O  c #7D7747",
"+  c #747E46",
"@  c #7F7248",
"#  c #7E7349",
"$  c #7C7449",
"%  c #7F754A",
"&  c #72794A",
"*  c #727B4B",
"=  c #747D4C",
"-  c #757F4D",
";  c #797B4B",
":  c #7B7E4D",
">  c #8F6B47",
",  c #8B6D47",
"<  c #896E48",
"1  c #9B6546",
"2  c #986746",
"3  c #9B6646",
"4  c #9C6546",
"5  c #9C6646",
"6  c #9D6647",
"7  c #936947",
"8  c #946947",
"9  c #986847",
"0  c #9A6847",
"q  c #9D6847",
"w  c #916E49",
"e  c #966E49",
"r  c #9E6A49",
"t  c #9F6C49",
"y  c #9F6D4A",
"u  c #9C6E4A",
"i  c #9E6E4A",
"p  c #807248",
"a  c #847148",
"s  c #867048",
"d  c #817449",
"f  c #8B7049",
"g  c #8E7049",
"h  c #827A4C",
"j  c #86784C",
"k  c #867B4D",
"l  c #837C4D",
"z  c #89784C",
"x  c #8B7A4D",
"c  c #8C7A4D",
"v  c #93704A",
"b  c #97714B",
"n  c #91774C",
"m  c #9F734D",
"M  c #9D754D",
"N  c #9C764E",
"B  c #91794E",
"V  c #95784E",
"C  c #97784E",
"Z  c #A06D4A",
"A  c #A06E4B",
"S  c #A1704B",
"D  c #A2724D",
"F  c #A2744D",
"G  c #A0754E",
"H  c #A3744E",
"J  c #A3754E",
"K  c #66963F",
"L  c #6C9C3A",
"P  c #68983D",
"I  c #6A993C",
"U  c #72A135",
"Y  c #5D8C47",
"T  c #5E8E46",
"R  c #57854C",
"E  c #5C834B",
"W  c #58874B",
"Q  c #5E834C",
"!  c #58854C",
"~  c #5D844C",
"^  c #5A8A48",
"/  c #58884A",
"(  c #6B8546",
")  c #6C8446",
"_  c #6B8A43",
"`  c #61814B",
"'  c #63804B",
"]  c #67824C",
"[  c #6B814D",
"{  c #6A824C",
"}  c #619143",
"|  c #649341",
" . c #659540",
".. c #609044",
/* pixels */
"5 5 5 5 5 5 5 5 5 5 3 5 5 5 5 5 5 5 5 5 5 5 5 5 5 5 5 5 4 4 5 5 6 6 6 6 r 6 6 r 5 r r Z Z Z D J J J J J D J J J J J J J J J J J ",
"5 5 5 5 r r r r r r r r 5 r r q q r r q Z 5 r r 5 r 5 5 4 4 4 4 5 5 4 4 6 5 5 6 4 4 5 5 Z Z Z D D D D J D D J D D D J D D J S J ",
"5 5 5 r i i D D Z D D D Z D Z D S S S S Z S S Z A Z Z 5 5 5 5 5 5 4 4 4 4 4 5 4 5 4 5 5 5 5 Z Z r Z Z Z r Z Z Z Z Z i Z Z Z i i ",
"5 r r Z S D J J J J J D J D J D D D J D D J J J J Z Z Z 5 5 4 5 5 4 4 4 4 4 4 4 5 5 5 5 5 5 5 5 6 5 5 5 6 6 5 5 6 6 r 5 r 5 5 r ",
"Z Z A D D J J J J J J J D Z Z Z Z i Z i r m S D J D D Z Z i Z i Z Z Z Z r Z r Z i Z r Z i r r r r r 5 5 5 5 4 4 4 4 4 5 5 5 5 4 ",
"J J J J J D J J J J J S S i r 5 q 5 5 r q r J D J J J D D D D D D D A D D D D Z S D S S Z D S D Z r r 5 5 5 5 5 4 4 4 5 5 5 4 4 ",
"J J J J J J J J J J J J D Z Z r q r Z q Z Z D D J J J J J J J J J J J J J J D J J J J J J J J D A i r r 5 5 Z 4 6 6 r 5 6 5 5 5 ",
"J J J J J J J J J J D J D D S D D S S D S S S F J J J J J J J J J J J J J J J J J J J J J J J J J D Z Z Z Z Z Z Z Z Z Z Z r Z Z ",
"J J J J J J J J J J J J J J J J J J J J J J D J D J D J J J J J J J J J J J J J J J J J J J J J J J J J J J S J D D J J D J D J ",
"J J J J J J J J J J J J J J J J J J J J D S D Z Z Z Z Z i Z D D D J J J J J J J J J J J J J J J J J J J J J J J J D J J J J J J ",
"J J J J J J J J J J J J J J J J J J J J J S i r q 5 5 r q r r Z D J J J J J J J J J J J J J J J J J J J J J J J J J J J J J J J ",
"J J J J J J J J J J J J J J J J J J J J D S Z Z q Z q r q r Z S D J J J J J J J J J J J J J J J J J J J J J J J J J J J J J J J ",
"J J J J J J J J J J J J J J J J J J J J J J D D Z S S S D D D F J J J J J J J J J J J J J J J J J J J J J J J J J J J J J J J J ",
"S D S D S D D D J J J J J J J J J J J J J J J J J J J J J J D J J J J J J J J J J J J J J J J J J J J J J J J J J J J J J J J J ",
"Z r i Z r Z Z i S D J J J J J J J J J J J J J J J J J J J J J J J J J J J J J J J J J J J J J J J J J J J J D Z Z S Z Z S S S i ",
"5 5 5 5 5 3 r r i D J J J J J J J J J J J J J J J J J J J J J J J J J J J J J J J J J J J J J J J J J J D S Z Z q r i q r q r r ",
"5 4 5 5 4 4 5 5 Z Z Z Z D Z Z D Z A Z D A A J J J J J J J J J J J J J J J J J J D D D Z D Z D Z D Z D D Z Z r 5 5 5 4 4 4 4 4 4 ",
"4 4 5 5 4 4 5 5 5 5 5 Z 6 r r 6 5 Z r 6 Z Z D D J D J J J J J J J J J J J J S D Z Z r Z r Z Z Z i r Z Z Z 5 5 5 5 5 4 5 4 4 4 4 ",
"5 r 5 r r r 5 6 5 5 5 5 5 5 4 4 5 5 4 4 5 Z Z S J D D J J D J S F F J F J J D Z Z 5 5 5 5 5 5 5 5 5 5 5 5 5 5 5 5 4 4 5 4 4 4 4 ",
"Z Z D Z Z Z Z Z r 5 5 5 5 5 4 4 5 5 4 4 5 q q Z i Z Z Z i Z i i Z Z Z Z Z i Z Z r 5 5 5 5 5 5 5 5 q q r r Z r i Z Z 5 r r r r r ",
"J J J J D J J D i 5 5 5 5 5 5 5 5 5 5 5 5 5 5 5 5 5 5 5 5 5 5 r q q 5 r 3 q 5 5 5 5 5 5 5 5 5 5 Z Z Z D D S S J D S D D D A D D ",
"J J J J D J D D D Z Z r r Z r i Z r r r r r r r r r r r r r r r r q r q r q Z 5 r r Z 5 q r r q Z Z D J J J J J J J J J D J J D ",
"J J J J J J J D J D S D Z S S S Z D D Z D D D Z D Z D S S D D Z S S Z S D S Z D D Z Z Z D i Z S Z D D J J J J J J J J J J J J J ",
"J J J J J J J J J J J J J J J J J J J J J J J J J J D J D D D J S J J J D J J D D J J J J J J J J J J J J J J J J J J J J J J J ",
"J J J J J J J J J J J J J J J J J J J J J J J J J D D i Z Z i Z Z Z Z i Z Z Z Z D D J J J J J J J J J J J J J J J J J J J J J J ",
"J J J J J J J J J J J J J J J J J J J J J J J J F S i r 5 5 5 5 5 q q q 5 r r Z i D J J J J J J J J J J J J J J J J J J J J J J ",
"Z Z i D J J J J J J J J J J J J J J J J J J J F J Z D i r r r q r r r q q r r Z J D J J J J J J J J J J J J J J J J J J S J S J ",
"q q Z Z D D J J J J J J J J J J J J J J J J J F J J D D D S D D D Z S D D S S D S J J J J J J J J J J J J J J J J J J J J D S D ",
"5 5 5 Z Z Z D Z D D S D D J F J J D J D D J J J J J J J J J J J J J J J J J D J J J S J J J J J J J J J D J J J J J J J J D i r ",
"5 5 5 r r r Z r r r Z Z S Z F F S D Z r Z Z S F J J J J J J J J J J S S S i i i Z Z Z S D D J J J J J J D D D Z A A A D J i Z r ",
"5 5 5 5 5 5 5 5 3 5 5 5 Z S J F S i 5 5 q Z Z J J J J J J J J J J J D Z Z q 5 q q q 5 i Z D D J J D J J A A Z Z Z 4 5 5 5 r 5 5 ",
"r Z Z r Z r Z i i r Z Z S D J F D S Z Z Z S D J J J J J J J J J J J S Z Z r r q 5 r r Z i S J J J J D D Z Z 4 5 5 5 5 5 5 5 5 5 ",
"J D J S J D J D D D D D J D J J J J D D D J D J J J J J J J J J J J J D D S J i D Z D D D D J S D Z i Z q q q 5 5 5 4 4 4 5 r Z ",
"J J J J J J J J J J J J J J J J J J D J J J J J J J J J J J J J J J J J J J J D J J J J J J J F S i r 3 5 5 5 5 5 5 5 5 4 5 Z Z ",
"J J J J J J J J J J J J J J J J J J J J J J J J J J J J J J J J J J J J J J J J J J J J J J J F D S Z r Z q r i Z Z r Z Z Z Z Z ",
"J J J J J J J D D J J J J J J D J J J J J J D D J J J J J J J D J J J J J J J J J J J J J J J J J D D J J D D D D D D D S D D J ",
"J J J J J J J D D A Z Z Z A A Z i Z Z Z D Z A m D Z Z D Z D A D J J J J J J J J J J J J J J J J J J J J J J J J J J J J J J J J ",
"J J J J J J D D Z r 5 r 6 5 r 5 r 5 r r 5 5 r 6 q r r q r Z Z D D J J J J J J J J D J J J J J J J J J J J J J J J J J J J J J J ",
"S D S i D A A Z r 5 5 5 4 4 5 5 4 4 3 5 4 4 4 4 4 4 3 5 5 6 Z Z D D D D J S J F S J J J J J J J J J J J J J J J J J J J J J J J ",
"r q r r r r r 6 5 5 5 5 5 5 5 5 4 4 5 5 4 4 4 4 4 5 5 5 5 6 5 6 r i Z r Z i Z i Z i i Z D D D J J J J J J J J J J J J J J J J J ",
"3 5 5 5 5 5 5 5 5 5 5 5 5 5 5 5 5 4 5 5 5 5 5 5 5 5 5 5 5 5 4 4 5 5 5 5 5 5 5 6 6 6 6 r Z D D J J J J D J J J D J J J J J J S J ",
"5 5 5 r Z Z r Z Z i Z i Z r r i Z r r Z r Z Z r Z q 5 5 5 5 4 5 5 5 5 5 4 5 4 4 4 4 5 6 Z Z Z D D A D Z D Z D D S D S D D D D J ",
"5 5 5 Z A D D D F S J D D J D D D D D D D D Z D S Z r q 5 5 5 5 4 5 5 5 5 5 4 5 4 5 5 6 5 5 r r Z 6 r r Z r Z 5 r r r r r Z r r ",
"r Z Z Z D J J J J J J D D D D D Z S D S D D J J J S i r 5 5 6 r 5 r 5 5 6 5 5 Z 5 r 6 6 r 5 5 5 5 5 4 5 5 5 4 4 5 5 5 5 5 5 3 3 ",
"D D D J J J J J J J J D D Z r q i r r Z i Z D J J S D D D i Z S Z A A Z Z Z A Z Z Z Z Z Z Z i i r 5 5 5 5 5 5 4 5 5 5 5 5 4 4 4 ",
"J J D J J J J J J J J D Z r 5 5 5 5 5 5 r Z J S J J J J J J J J J J J D J J D J D D J J J D D D Z Z 6 5 5 5 5 4 5 5 5 5 5 4 4 4 ",
"J J J J J J J J J J J S S S i Z r Z i r Z S D D J J J J J J J J J J J J J J J J J J J J J J J D D Z Z r Z 5 Z 5 5 Z r q r r 5 Z ",
"J J J J J J J J J J J J D J J D D D J D D J J J J J J J J J J F J J J J J J J J J J J J J J J J D D D Z D A Z D Z Z S Z Z Z Z Z ",
"J J J J J J J J J J J J J J J J J J J J S J D S D S S D S D J F J J J J J J J J J J J J J J J J J J J J J J J J J J J J J J J J ",
"J J J J J J J J J J J J J J J J J J J J S m Z i i r r Z Z Z S S J J J J J J J J J J J J J J J J J J J J J J J J J J J J J J J J ",
"J J J J J J J J J J J J J J J J J J J J D Z r q 5 5 5 5 5 q Z S D J J J J J J J J J J J J J J J J J J J J J J J J J J J J J J J ",
"J J J J J J J J J J J J J J J J J J J J D Z S Z r i Z r Z Z S Z D J J J J J J J J J J J J J J J J J J J J J J J J J J J J J J J ",
"J J J J J J J J J J J J J J J J J J J J J J D D D D D D D D D J J J J J J J J J J J J J J J J J J J J J J J D J J J J D J S J J ",
"i S D Z D Z S D D J J J J J J J J J J J J J J J J J J J J J J J J J J J J J J J J J J J J J J J J J J J D J J D F F F D J J J M ",
"r 5 r 5 r 5 Z Z D D J J J J J J J J J J J J J J J J J J J J J J J J J J J J J J J J J J J J J J J J J J D D Z Z i Z i Z i b B z ",
"5 5 5 5 5 5 5 Z i S D D J D J D J J D D J J J J J J J J J J J J J J J J J J J J J J J J J J J D J J J J D i r q 5 5 3 r 0 f % * ",
"4 4 4 5 5 5 6 5 r Z Z Z r Z Z Z Z Z Z r Z D D J J J J D J J J J J J J J J J J J Z A A Z A Z Z Z D Z D i Z Z 5 5 0 8 > , s O + ( ",
"4 4 4 5 5 5 5 5 5 5 5 5 5 5 6 6 6 5 6 r i Z D D J J J J J J J D J J J J J J D S Z Z r r r r Z 6 r r 5 r 5 6 6 5 7 < # & X ) _ K ",
"r Z r Z Z r r 5 5 5 5 5 4 5 5 5 4 4 5 5 5 r Z D D D S D D S D D D D D Z D Z Z i r 5 5 5 5 5 5 5 3 5 r 3 0 0 8 8 < % . ` W Y | I ",
"D Z D Z D D Z i q q 5 5 4 5 5 5 4 5 5 5 5 r 6 r r r r r r i r i r Z r r Z r r r 5 5 4 5 5 5 4 5 r r i u b f d ; & X   E W ^ ^ | ",
"D J J J J J D D Z r 5 r 6 6 6 r r 3 5 5 5 5 5 5 3 5 5 5 5 5 3 3 2 3 3 3 5 3 3 3 3 3 5 5 3 3 5 r Z S D M c : o ` E W W W R W W W ",
"J J J J J J D D Z Z Z i Z Z Z Z i i Z i Z Z Z Z i i Z i i b , f # # $ @ % @ @ p p # a < w i r Z Z Z J M c : [ ! W W Y T T T ^ W ",
"J J J J J J J J J J J D J J D D J J D J D D D D J D D D M B h *     Q   Q       ` ] X ; j w D D D J J M z : { R W T K P I K | / ",
"J J J J J J J J J J J J J J J D J J J J M C B B c c c c z h * ] W W R R R R W W R ! ~ { : k V V B V V B h = ] R T | I L U I K .."
};
