/* XPM */
static char *_46ee70ac0ee43bce733f1ff3d1d32beL6axyzhn09uSs7vq[] = {
/* columns rows colors chars-per-pixel */
"64 64 164 2 ",
"   c None",
".  c #BFD1D7",
"X  c #BFD6DE",
"o  c #BFD7E1",
"O  c #BFDAE9",
"+  c #C4D4D6",
"@  c #CAD3D7",
"#  c #C4D6DD",
"$  c #C9D6DC",
"%  c #C4D8DD",
"&  c #CBDADD",
"*  c #D2D7DD",
"=  c #D1DCDE",
"-  c #DAE0DF",
";  c #C4D6E1",
":  c #C8D7E0",
">  c #C4D9E2",
",  c #CDDCE2",
"<  c #C3DCEB",
"1  c #C9DEEA",
"2  c #D2DEE2",
"3  c #D8DEE4",
"4  c #C3DEF2",
"5  c #C8DFF0",
"6  c #CFE2E5",
"7  c #C6E1EE",
"8  c #CCE1ED",
"9  c #D4E1E5",
"0  c #DAE2E5",
"q  c #D4E4E9",
"w  c #DBE6EB",
"e  c #D7E9EC",
"r  c #DCE9EC",
"t  c #C3E2F5",
"y  c #CAE4F3",
"u  c #CCE9F6",
"i  c #C7E3F9",
"p  c #CBE7F9",
"a  c #C7E9FC",
"s  c #CBE9FA",
"d  c #D1E6F4",
"f  c #DAE7F0",
"g  c #D7EAF6",
"h  c #DDECF2",
"j  c #D3ECFA",
"k  c #DAEFFB",
"l  c #DDF1FD",
"z  c #E1E8E5",
"x  c #E2E5E8",
"c  c #E1EBED",
"v  c #E8ECEE",
"b  c #E3F0EF",
"n  c #E4EEF2",
"m  c #E9EEF2",
"M  c #E6F1F4",
"N  c #EBF3F5",
"B  c #EDF8F5",
"V  c #E6F5FB",
"C  c #E6F6FB",
"Z  c #E6F5FA",
"A  c #E2F2FE",
"S  c #E6F7FF",
"D  c #E2F3FB",
"F  c #E9F6FA",
"G  c #EDF7FB",
"H  c #EEF7FA",
"J  c #EFF7FA",
"K  c #ECF6FE",
"L  c #ECF6F9",
"P  c #E3F9FD",
"I  c #E7F9FD",
"U  c #E6FCFF",
"Y  c #EAF8FD",
"T  c #E8F8FF",
"R  c #E9FAFF",
"E  c #EFF9FC",
"W  c #ECFBFD",
"Q  c #EDF8FE",
"!  c #ECFAFF",
"~  c #EDFBFF",
"^  c #ECFDFF",
"/  c #EFFCFF",
"(  c #EEFAFB",
")  c #F3F3F7",
"_  c #F4F6F7",
"`  c #F2F5F6",
"'  c #F3F6F9",
"]  c #F2F6FB",
"[  c #F2F7FA",
"{  c #F0F9F9",
"}  c #F2F9F9",
"|  c #F2FAF9",
" . c #F3F8FB",
".. c #F3FAFA",
"X. c #F6F8FB",
"o. c #F4FBFB",
"O. c #F6FBFB",
"+. c #F1FBFE",
"@. c #F1FBFF",
"#. c #F5FBFC",
"$. c #F2FDFF",
"%. c #F2FFFF",
"&. c #F5FDFF",
"*. c #F6FCFE",
"=. c #F6FDFE",
"-. c #F7FDFF",
";. c #F4FFFF",
":. c #F5FFFF",
">. c #F7FEFF",
",. c #F6FFFF",
"<. c #F7FFFF",
"1. c #F4FBFC",
"2. c #FDFDFB",
"3. c #FEFFFA",
"4. c #FFFFFA",
"5. c #FFFFFB",
"6. c #FEFAFF",
"7. c #F9FCFE",
"8. c #FAFDFE",
"9. c #FBFDFF",
"0. c #F8FEFF",
"q. c #F9FEFF",
"w. c #F8FFFF",
"e. c #F9FFFF",
"r. c #FBFEFE",
"t. c #FAFFFE",
"y. c #FBFFFE",
"u. c #FAFEFF",
"i. c #FBFEFF",
"p. c #FAFFFF",
"a. c #FBFFFF",
"s. c #FDFDFC",
"d. c #FDFCFD",
"f. c #FCFDFD",
"g. c #FFFDFD",
"h. c #FDFEFC",
"j. c #FCFFFC",
"k. c #FDFFFD",
"l. c #FEFFFC",
"z. c #FFFFFC",
"x. c #FEFEFD",
"c. c #FEFFFD",
"v. c #FFFFFD",
"b. c #FCFCFE",
"n. c #FDFCFF",
"m. c #FEFDFE",
"M. c #FFFDFE",
"N. c #FFFDFF",
"B. c #FCFEFE",
"V. c #FDFEFE",
"C. c #FCFFFE",
"Z. c #FDFFFE",
"A. c #FCFEFF",
"S. c #FDFEFF",
"D. c #FCFFFF",
"F. c #FDFFFF",
"G. c #FEFEFE",
"H. c #FEFFFE",
"J. c #FFFFFE",
"K. c #FEFEFF",
"L. c #FFFEFF",
"P. c #FEFFFF",
"I. c white",
"U. c #FDFEFF",
/* pixels */
"                                                                                                                                ",
"                                                                                                                                ",
"                                                                                                                                ",
"                                                                                                                    R U a       ",
"                                                                                                        l P W Q =.=.a.=.s       ",
"                                                                                                      Q =.=.a.a.a.f.5.A.j       ",
"                                                                                                    K a.A.a.a.A.5.5.A.A.j       ",
"                                                                                                  A A.A.a.a.A.n.5.f.A.=.j       ",
"D 4                                               t t                                         i l =.A.A.A.n.A.A.A.A.A.a.j       ",
"L 1 4                                       t j l C C C D k D D l y t                       y g ^ A.A.A.A.5.A.A.A.A.n.A.k       ",
"] : O <                                 u k D R a.a.A.A.A.a.A.A.Q d O O t             j j g h ..a.A.A.A.A.A.A.A.A.A.n.A.k t     ",
"| , o O < t                         t y D ^ =.=.a.a.A.A.A.A.A.A...8 o o 1 g k D D S S R Q @.=.A.A.A.A.A.A.A.A.A.A.A.A.A.k t     ",
"| 6 X O O O O 4 i             t 5 5 < g %.=.a.A.a.A.A.A.A.A.A.A.N 1 ; . : n 7.a.a.a.A.A.A.5.A.A.5.A.A.5.A.A.A.A.A.A.A.=.k i     ",
"| 6 . > ; < < < t y y y y y y < < ; : D =.=.a.A.A.A.A.A.A.A.A.A.n $ ; + : m A.A.A.A.A.A.A.a.5.A.A.A.A.A.A.A.A.A.A.A.A.C y i     ",
"O.q X > ; ; > > > > 1 8 1 > > > # + & L a.A.A.5.A.A.A.A.A.n.A.O.w ; ; ; , ] n.g.5.A.5.A.A.A.A.A.A.A.A.A.A.A.A.A.A.A.=.q 1 a     ",
"#.9 # > > $ $ : > > : : 1 > # # + + * O.A.A.A.A.A.A.A.A.A.A.A.) 3 : ; ; , ) n.g.5.A.A.A.A.A.5.A.5.A.A.A.A.A.A.A.A.A.C % O a     ",
"O.q # : $ $ $ $ $ > # $ ; # $ # . + = A.A.A.A.A.A.A.A.A.A.A.A.m * $ $ + = _ 5.f.5.A.A.5.A.5.5.5.5.5.A.A.A.A.5.A.A._ 6 X 7 u a   ",
"O.w + $ $ $ $ # $ > $ # $ # # # + # 0 A.A.A.A.A.A.A.A.A.A.A.a.r @ @ # # * ` A.3.5.A.A.A.A.5.5.5.5.5.5.A.A.A.A.A.f.c % % 7 u s u ",
"f.r $ > # # # # # $ > # # # ; X # $ c A.A.A.A.A.A.A.A.A.A.A.` - + : X # 9 O.A.3.5.A.A.A.A.A.A.A.A.5.5.5.n.A.A.a.B & % X 7 s s l ",
"O.c $ # # + # $ # # # # ; # # # X $ m 5.A.5.A.A.A.A.A.A.A.A.N & # ; X # 6 =.a.f.5.A.A.A.A.A.A.A.A.A.5.A.g.A.A.O.q @ + % 7 u j l ",
"7.r $ > # @ # # % % % % # # X % $ & ) A.A.A.A.A.A.A.A.A.A.A.b @ # % # # 9 f.a.5.5.A.A.A.A.A.A.A.A.A.A.A.A.A.a.M + + # # > 8 g I ",
"7.c $ # $ # @ # X ; # o > # > % > 2 ` A.A.5.A.A.A.A.A.A.A.O.z & $ $ # + = a.A.5.5.A.A.A.A.A.A.A.A.A.A.A.A.A...= + % # . % > g ^ ",
"n.N $ $ $ + # # # # # > X # > # X 2 7.A.A.A.A.A.A.5.A.A.A.O.3 @ @ @ + $ 0 A.A.5.A.A.A.A.A.A.A.A.A.A.A.A.A.O.r $ & + # # $ X f @.",
"A.N % % $ $ @ # % # X # % # # X # 9 A.A.A.5.A.A.A.5.A.A.A.A.N m N N m c c A.A.A.5.A.A.A.A.A.A.A.A.A.A.A.A.N & $ % $ # X # $ n #.",
"A.L $ $ $ # # # # # # ; # o # # # w A.A.A.A.A.A.5.5.a.A.5.n.A.7.O.5.a.B z A.A.A.A.A.A.A.A.A.A.A.A.A.A.A.| q + % % % % # # = N a.",
"A.N $ $ # # + # # # % X # # # X # h A.A.5.5.A.A.A.A.A.A.A.A.A.A.7.A.A.` - A.A.A.A.A.A.A.A.A.A.A.A.A.A.=.N & % % # $ # $ + 9 _ A.",
"a...: $ $ # # # % % % # # > # + $ N A.5.A.| N O.A.5.A.5.A.A.A.A.n.n.A.N * ` A.A.A.A.A.A.A.A.A.A.A.A.a.B 9 # % % # > : # @ z f.A.",
"a...& # # ; # > # % X ; # # # # & } A.a.=.z 0 | A.A.A.A.A.A.A.A.A.A.A.N @ w A.A.A.A.A.A.A.A.A.A.A.A.( e # $ % % > $ > $ @ N A.A.",
"A...- + % % ; # o % # # ; % > # q f.A.a.N & - W a.A.A.A.A.A.A.A.A.n.a.L $ 2 L A.n.A.A.A.A.A.A.A.A.=.M > # % # % % # # # 3 _ A.A.",
"a.| & + # > ; # > # # X X % $ $ w a.a.| - + & B a.A.5.A.A.A.A.A.A.a.a.N $ $ c A.g.A.A.A.A.A.A.A.A...6 # # # # % # # $ . r O.A.A.",
"A.O.= $ # > ; # # o % > % # # : r a.=.h + + + b a.A.A.A.A.A.A.A.A.A.=.Z + $ * 7.5.A.A.A.A.A.A.a.=.r # # % # # % % % $ # M a.A.5.",
"A.=.9 $ $ > > X # # # % > # $ : c =.N $ # % + b O.A.A.A.A.A.A.A.A.A.=.h # $ & X.A.A.A.A.A.A.=.=.M & + # % # % % % % $ & ..A.A.5.",
"A.#.9 $ $ ; > > X > # # $ % # , N L , . X # + 0 f.A.A.A.A.A.A.A.A.A.%.h # $ & ..A.A.A.A.A.f.O.( e + % % # % % % # # # e O.a.5.n.",
"A.O.9 $ # # > % # # # $ # # # 9 D c # X X > $ 2 O.A.A.A.A.A.A.A.A.A.=.D # + & ..A.A.A.A.a.f.O.b + + % % # % % # # % # M a.a.A.5.",
"A.=.9 $ o # $ $ $ $ $ & , , & & 9 : # > X X # , ] A.A.A.A.A.A.A.A.A.=.r X # & B A.A.A.A.a.A.` = + % % + % X % % % # % Z a.A.A.A.",
"a.a.w X X X % * 3 0 x v L J r + # $ # # X # $ + N a.A.A.A.A.A.5.A.A.O.e + $ $ N 5.A.A.A.A.A.` 0 @ + # % # # # % # # $ W a.A.A.A.",
"| | r % X 6 Z ] X.n.n.n.A.O.r + $ # # # X # ; @ n #.A.A.A.A.A.A.5.A.O.e + $ $ M a.A.A.A.A.A.A.O.z & # # % # # o % $ $ W a.a.A.A.",
"c q > > # h a.#.n.A.n.A.A.O.b + # # % % # # + ; w ..A.A.A.A.A.A.A.A.O.e + % @ N A.A.A.A.A.A.A.A.B 9 # X % # # # X $ , J a.a.A.A.",
"+ + + X # n O.A.A.A.A.A.A.f.b + # X X % # X # $ 9 O.A.A.A.A.A.A.A.A.O.q + $ $ M A.A.A.A.A.A.A.A.N 9 # % X % % > % # 9 %.A.A.A.A.",
"X # # # + n A.A.A.A.A.A.5.f.b & + # % % # # # $ & L A.A.A.A.A.A.A.5...9 + # + c A.A.A.A.A.A.A.A.N & # % # ; X % # % 9 O.A.A.A.n.",
"+ # # # # n =.A.A.A.A.A.A.A.N & # # > # # ; # # % Z a.A.A.n.A.A.A.A._ 9 + # + c 7.A.A.A.A.A.A.A.N , # % % % X % # % q | A.A.A.A.",
"# # # # + c a.A.A.A.A.A.A.A.N & # # % % X # % $ + n #.a.A.A.A.A.A.5.B - . # + c 7.A.A.A.A.A.A.A.N , X # X % % % # # w ..A.A.A.A.",
"+ ; # # + b O.A.A.A.A.A.A.A.N & # % % X ; # X # . q | a.A.A.A.A.A.A.J 9 . # $ c 5.A.A.A.A.A.A.A.m & # % % % X % $ # e f.A.A.A.A.",
"$ # ; ; # c a.A.A.A.A.A.A.A.` = # % # # X # # % X 9 J =.A.A.A.A.A.a.J & # # $ 0 a.A.A.A.A.A.A.A.N & # X # # % % # $ M a.A.A.A.A.",
"; ; # > # M =.A.A.A.A.A.A.a.` 9 # X ; ; > > ; X # 6 L a.A.A.A.A.A.A.J & X % # 9 O.A.A.A.A.A.A.A.N * $ # + % % + # $ m A.A.A.A.A.",
"; ; ; ; # c a.A.A.A.A.A.5.a.` 3 # ; ; X > # ; ; % % D O.A.A.A.A.A.A.B , # % # 9 A.A.A.A.A.A.A.A.c & # # % X X % # $ N 5.A.A.A.A.",
"; ; # > # n f.a.A.A.A.A.a.A.` 3 # ; ; ; # > ; # > $ c a.A.A.5.A.A.A.} & X X $ 9 O.A.A.A.A.A.A.A.b , + % % % # % # @ m A.A.A.A.A.",
"; ; > $ # n a.A.A.A.A.A.A.A.] 3 # ; ; o ; ; ; o # # w O.A.5.A.A.A.A.N $ # # # 9 O.A.A.A.A.A.A.A.b + # % + % # # # $ N 5.A.5.A.A.",
"; @ ; ; $ n =.A.A.A.A.A.A.A.O.x + ; ; # ; ; ; ; # . 2 L A.A.A.A.A.a.M # # > $ , O.A.A.A.A.A.A.a.b + % $ # + % % + % O.A.A.A.A.A.",
"; ; ; ; # n a.A.A.A.A.A.A.A.f.c ; ; o ; ; o # o > # 2 L a.A.A.A.A.a.b $ X # $ & ] A.A.A.A.A.A.a.c + % # # # X % % & O.A.A.A.A.A.",
"; ; ; ; $ Z 7.A.A.A.A.A.A.A.a.c ; ; ; ; ; o ; ; ; % & m a.A.A.A.A.A.n $ # # # & ] A.A.A.A.A.A.a.c + + % X # # # % % O.A.A.A.A.A.",
"; ; ; ; $ m 7.A.A.A.A.A.A.A.a.n $ # o # # ; # ; ; $ $ n f.A.A.A.A.A.n $ # # > $ L A.A.A.A.A.A.a.r + # % # # # % # & | A.A.A.A.A.",
"; ; ; ; ; m #.n.A.5.A.A.A.A.A.N > # # # X > # > > % % e | f.A.A.A.A.c $ > > # $ L a.A.A.A.A.A.O.e $ # # # ; # o $ $ L a.A.A.A.5.",
"; ; ; ; ; m 6.6.A.A.A.A.A.A.A.N $ # > X # # # # % % + 6 B f.A.A.A.5.n $ # # X $ Z a.A.A.A.A.A.f.w $ # % % % # # % $ c f.A.A.A.A.",
"; ; ; ; ; m X.6.A.A.A.A.A.A.A.N # X # # # # o # % X % & N a.A.A.A.7.c $ # > # $ Z 5.A.A.A.A.A.=.w + # # X % % > # # w O.A.A.A.A.",
"; : : ; * m 6.6.5.A.A.A.A.A.A.N $ # > X # > # # o % X , N f.A.A.A.6.c $ # # + # Z A.A.A.A.A.A.#.w # # # # ; X % X $ 9 O.A.A.A.A.",
"; ; ; X # N A.A.A.A.A.A.A.A.A.` , ; : ; # # > # ; # X + c A.A.A.A.O.x $ : o ; $ n 7.A.A.A.A.A...2 # # # % ; X % % # & B A.A.A.A.",
"; ; ; # $ L A.A.A.A.A.A.A.A.A.] , $ : ; ; # # # > # # + x O.A.A.A.O.3 ; : ; # > r O.A.A.A.A.A.B 2 # # # X # % ; % + & I A.A.A.A.",
"; ; > X # N A.A.A.A.A.A.A.A.A.` 1 ; ; ; # # # X # # # # w _ A.n.A.g.w $ > # > # h a.A.A.A.A.A.] 2 # # > % % % % % # + M f.A.A.A.",
"; ; $ X $ L a.A.A.A.A.A.A.A.A.] , @ ; + # ; > # % X $ # 9 } A.A.A.O.w + # o # > r n.A.A.5.A.A.B 2 # # X > # X ; # # + c f.A.A.A.",
"; ; ; @ $ Z f.a.A.A.A.A.A.A.A.O.f ; + ; # # # # % # X # : m A.n.A.| 9 # > # X % 0 a.A.A.5.f.a.M : # # # # ; X # # # + q ..a.A.A.",
"$ ; ; ; + N f.a.A.A.A.A.A.A.A.#.f + ; ; # > # X # > # > : c a.A.A._ 9 + # X # % 9 7.A.A.A.f.a.c % # > # % # % % % # $ & B a.A.A.",
"; ; ; + # N A.A.A.A.A.A.A.A.A.7.f + : # > # # > # ; > # $ f a.A.A._ 9 + % X X # 9 O.A.A.A.A.=.e # X # # % o X % % X % $ N A.A.A.",
"@ ; ; ; # N A.A.A.A.A.A.A.A.A.#.f + : # ; $ # X # # # ; # w O.A.A.O.9 X X # X X 9 O.A.A.5.A...9 + # > # # % % % % % $ + M A.A.A."
};
