/* XPM */
static char *_87a8be8c0e74cb1e1486e90bb08bfcdJ9LWhoMwY9sSMDTp[] = {
/* columns rows colors chars-per-pixel */
"64 64 191 2 ",
"   c None",
".  c black",
"X  c #010101",
"o  c #020202",
"O  c #040404",
"+  c #060606",
"@  c #070707",
"#  c gray3",
"$  c #0C0C0C",
"%  c gray5",
"&  c gray6",
"*  c gray7",
"=  c #181818",
"-  c #202020",
";  c gray13",
":  c #222222",
">  c #252525",
",  c gray15",
"<  c #272727",
"1  c #282828",
"2  c gray16",
"3  c #2A2A2A",
"4  c gray17",
"5  c #2C2C2C",
"6  c #2F2F2F",
"7  c gray19",
"8  c #313131",
"9  c #323232",
"0  c gray21",
"q  c #373737",
"w  c #3A3A3A",
"e  c gray23",
"r  c #3C3C3C",
"t  c gray24",
"y  c #3E3E3E",
"u  c gray25",
"i  c gray28",
"p  c gray29",
"a  c gray30",
"s  c gray31",
"d  c #505050",
"f  c #515151",
"g  c gray32",
"h  c gray33",
"j  c #555555",
"k  c gray35",
"l  c #5A5A5A",
"z  c #5B5B5B",
"x  c gray36",
"c  c #606060",
"v  c gray38",
"b  c #626262",
"n  c gray39",
"m  c #646464",
"M  c gray40",
"N  c #676767",
"B  c #686868",
"V  c DimGray",
"C  c #6A6A6A",
"Z  c gray42",
"A  c #6C6C6C",
"S  c #6D6D6D",
"D  c gray43",
"F  c #6F6F6F",
"G  c gray44",
"H  c #717171",
"J  c #727272",
"K  c gray45",
"L  c #747474",
"P  c gray46",
"I  c #767676",
"U  c #777777",
"Y  c gray47",
"T  c #797979",
"R  c gray48",
"E  c #7B7B7B",
"W  c #7C7C7C",
"Q  c gray49",
"!  c #7E7E7E",
"~  c gray50",
"^  c #808080",
"/  c gray51",
"(  c #838383",
")  c #848484",
"_  c gray52",
"`  c #868686",
"'  c gray53",
"]  c #888888",
"[  c #898989",
"{  c gray54",
"}  c #8B8B8B",
"|  c gray55",
" . c gray56",
".. c #909090",
"X. c gray57",
"o. c #929292",
"O. c #939393",
"+. c gray58",
"@. c #959595",
"#. c gray59",
"$. c #979797",
"%. c gray60",
"&. c #9B9B9B",
"*. c gray62",
"=. c #9F9F9F",
"-. c #A0A0A0",
";. c gray63",
":. c #A2A2A2",
">. c gray64",
",. c #A4A4A4",
"<. c #A5A5A5",
"1. c gray65",
"2. c #A7A7A7",
"3. c gray66",
"4. c #A9A9A9",
"5. c #AAAAAA",
"6. c gray67",
"7. c #ACACAC",
"8. c gray68",
"9. c #AEAEAE",
"0. c #AFAFAF",
"q. c gray69",
"w. c #B1B1B1",
"e. c #B2B2B2",
"r. c gray70",
"t. c #B4B4B4",
"y. c gray71",
"u. c #B6B6B6",
"i. c #B7B7B7",
"p. c gray72",
"a. c #B9B9B9",
"s. c gray73",
"d. c #BBBBBB",
"f. c #BCBCBC",
"g. c gray74",
"h. c gray",
"j. c gray75",
"k. c #C0C0C0",
"l. c #C1C1C1",
"z. c gray76",
"x. c #C3C3C3",
"c. c gray77",
"v. c #C5C5C5",
"b. c #C6C6C6",
"n. c gray78",
"m. c #C8C8C8",
"M. c gray79",
"N. c #CACACA",
"B. c #CBCBCB",
"V. c gray80",
"C. c #CDCDCD",
"Z. c #CECECE",
"A. c gray81",
"S. c #D0D0D0",
"D. c gray82",
"F. c #D2D2D2",
"G. c LightGray",
"H. c gray83",
"J. c #D5D5D5",
"K. c gray84",
"L. c #D7D7D7",
"P. c #D8D8D8",
"I. c gray85",
"U. c #DADADA",
"Y. c gray86",
"T. c #DDDDDD",
"R. c gray87",
"E. c #DFDFDF",
"W. c gray88",
"Q. c #E1E1E1",
"!. c gray89",
"~. c gray90",
"^. c #E6E6E6",
"/. c gray91",
"(. c #E9E9E9",
"). c #EAEAEA",
"_. c gray92",
"`. c gray93",
"'. c #EEEEEE",
"]. c #F3F3F3",
"[. c #F4F4F4",
"{. c gray96",
"}. c gray97",
"|. c #F8F8F8",
" X c #F9F9F9",
".X c gray98",
"XX c #FBFBFB",
"oX c gray99",
"OX c #FDFDFD",
"+X c #FEFEFE",
"@X c white",
/* pixels */
"                                                                                                                                ",
"                                  . . . . . . . . . . . . . . . . . . . . . .                                                   ",
"                                  . . . . . . . . . . . . . . . . . . . . . .                                                   ",
"                                  . . . . . . . . . . . . . . . . . . . . . .                                                   ",
"                        . . . . . i.i.i.w.w.w.i.w.w.w.w.i.w.0.w.i.i.0.w.i.i.w.. . . . .                                         ",
"                        . . . . . i.i.w.w.i.w.i.w.i.i.w.i.w.w.i.w.w.w.i.w.i.i.. . . . .                                         ",
"                        . . . . . w.w.w.w.w.w.w.w.w.w.w.0.w.w.w.w.w.w.w.i.w.w.. . . . .                                         ",
"                        f u w u p i.w.n.m.Z.m.n.m.Z.m.m.n.m.Z.m.n.n.w.w.k.m.m.p p w r a                                         ",
"                    . . .X.X.X.X.Xw.w._..X.XoXoXoXoXoXoXoXoXoXoX.X.X0.0.W..XoX.X.X.X.X.X. .                                     ",
"                    . . oXoXoXoXoX0.0._.oX.XoXoXoXoXoXoXoXoXoXoXoXoX5.5.W.oXoXoXoXoXoX.X. .                                     ",
"                    . . oXoXoXoXoX0.5._.oXoXoXoXoXoXoXoXoXoXoXoXoXoX2.5.R.oXoXoXoXoXoX.X. .                                     ",
"                  l f x oXoXoXoXoX5.5.`.oXoXoXoXoXoXoXoXoXoXoXoXoXoX2.5.R.oXoXoXoXoXoXoXn l                                     ",
"              . . 0.oXoXoXoXoXoXoX5.5._.oXoXoXoXoXoXoXoXoXoXoXoXoXoX5.2.R..XoXoXoXoXoXoXoXoX( . .                               ",
"              . . w.oXoXoXoXoXoXoX5.5._.oXoXoXoXoXoXoXoXoXoXoXoXoXoX5.2.W.oXoXoXoXoXoXoXoXoX( . .                               ",
"              . . w.oXoXoXoXoXoXoX5.2._.oXoXoXoXoXoXoXoXoXoXoXoXoXoX5.5.W..XoXoXoXoXoXoXoXoX( . .                               ",
"          . % =.=.i.i.s.k.s.w.s.s.5.2.0.i.s.i.5.i.s.s.w.0.i.s.i.0.w.2.5.0.0.i.s.j.w.i.j.k.j.0.2.:.@ .                           ",
"          . . i.w.w.w.w.0.5.2.2.5.2.2.5.5.5.5.2.2.2.5.5.2.5.2.2.5.2.5.5.5.5.5.2.2.2.5.5.0.w.w.w.w.. .                           ",
"          . . i.i.w.w.w.0.5.5.5.2.5.5.2.5.2.2.5.5.2.2.2.2.2.5.5.2.2.2.2.2.5.5.5.2.5.5.0.0.w.w.i.w.. .                           ",
"          . . j.s.w.w.0.i.w.0.w.i.w.0.w.i.i.w.0.5.2.5.w.0.w.i.w.0.0.i.w.w.0.w.i.i.5.5.5.s.s.i.s.j.. .                           ",
"          . . `.`.n.0.0._.`.`.`.`.`.`.`._.`.`.`.0.5.i.`.`.`.`.`.`._.`.`.`._.`.].`.k.5.5.`.`.`.`.`.. .                           ",
"          . . oXoXZ.0.0.oXoXoXoXoXoXoXoX.XoXoXoXw.5.j..XoXoXoXoX.XoXoXoXoXoXoXoX.Xm.5.5.oXoXoXoX.X. .                           ",
"          . . oXoXZ.w.0.oXoXoXoXoXoXoXoXoXoXoXoX0.2.j..XoXoXoXoXoXoXoXoXoXoXoXoXoXZ.2.5.oXoXoXoX.X. .                           ",
"          . @ oXoXZ.0.w.oXoXoXoXoXoXoXoXoXoXoXoX0.5.j.oXoXoXoXoXoXoXoXoXoXoXoXoXoXZ.2.5.oXoXoXoXoX. .                           ",
"          . # oXoXG.0.w.oXoXoXoXoXoXoXoXoXoXoXoXi.w.k.oXoXoXoXoXoXoXoXoXoXoXoXoXoXK.2.5.oXoXoXoXoX. .                           ",
"        * . . oXoXG.0.0.oXoXoXoXoXoXoXoXoXoXoXoXi.0.j.oXoXoXoXoXoXoXoXoXoXoXoXoXoXK.5.5..XoXoXoXoX. .                           ",
"        % . . oXoXK.0.0.oXoXoXoXoXoXoXoXoXoXoXoXs.0.j.oXoXoXoXoXoXoXoXoXoXoXoXoXoXG.5.5..XoXoXoXoX. .                           ",
"        n Q H K.G.i.0.5.m.m.m.G.K.G.G.Z.G.K.G.G.w.5.0.k.k.G.K.Z.Z.Z.G.G.Z.m.G.K.K.i.5.5.m.m.m.G.P.A R                           ",
"      . ` i.w.w.w.0.0.5.5.5.5.5.2.2.5.5.5.2.0.5.0.5.5.5.5.5.5.5.5.5.5.5.5.5.0.5.5.5.5.5.0.0.w.w.w.w.i.Z . .                     ",
"      . ( i.i.w.0.0.0.5.5.5.5.5.5.2.2.5.5.2.0.0.2.2.2.5.2.5.5.5.5.2.2.2.5.5.5.5.5.5.5.5.5.0.0.w.w.w.i.M . .                     ",
"      . ( w.w.w.w.5.5.5.5.5.5.5.5.2.2.2.5.5.0.5.2.5.5.5.2.2.5.0.5.2.5.5.5.2.5.5.0.5.5.5.5.5.0.0.i.w.i.M . .                     ",
"      . :.m.Z.Z.m.m.n.m.m.m.n.m.m.5.5.j.G.G.m.n.n.m.m.n.k.m.m.m.k.m.5.2.j.n.m.m.m.m.m.m.5.5.j.m.m.Z.m.Q . .                     ",
"      . Z.oX.XoXoXoXoXoXoXoX.X.XoX5.5._.oXoX.XoX.XoXoXoXoXoXoXoXoXoX2.5.W.oXoXoXoXoXoXoX5.5.R.oXoXoX.X2.. .                     ",
"      . m.oXoXoXoXoXoXoXoXoXoXoXoX2.2._.oXoXoXoXoXoXoXoXoXoXoXoXoXoX2.2.R..XoXoXoXoXoXoX0.5.R.oXoXoXoX:.. .                     ",
"      . k.oXoXoXoXoXoXoXoXoXoXoX.X2.5._.oXoXoXoXoXoXoXoXoXoXoXoXoXoX5.2.R..XoXoXoXoXoXoX2.5.P.oXoXoXoX&.. .                     ",
"      . j..XoXoXoXoXoXoXoXoXoXoXoX5.5.`.oXoXoXoXoXoXoXoXoXoXoXoXoXoX5.5.R.oXoXoXoXoXoXoX2.5.P.oXoXoXoX0.. .                     ",
"      . k.oXoXoXoXoXoXoXoXoXoXoXoX5.5.`.oXoXoXoXoXoXoXoXoXoXoXoXoXoX5.5.R.oXoXoXoXoXoXoX5.5.P.oXoXoXoX0.. .                     ",
"    . . Z..XoXoXoXoXoXoXoXoXoXoXoX5.5._..X.XoXoXoXoXoXoXoXoXoXoXoXoX2.5.W.oXoXoXoXoXoXoX0.5.R.oXoXoXoXi.. .                     ",
"    . . k._.`.oXoXoXoXoXoXoXoXoXoX5.2.R._._.oXoXoXoXoXoXoXoXoXoXoXoX2.2.K._.`.oXoXoXoXoX=.=.n.W.W.}.].5.# #                     ",
"    . . } i.s.j.i.0.w.s.i.w.w.w.s.2.2.0.w.i.i.w.w.i.s.w.0.w.i.i.w.i.5.2.w.w.i.s.i.w.w.i.A A H R ` } ` ( A A . .                 ",
"    . . Q w.0.0.5.5.2.5.2.2.5.5.2.5.2.2.5.5.2.2.2.5.2.5.2.5.2.2.2.5.2.5.2.5.5.5.0.5.0.5.Z M Z A H H P P R Q . .                 ",
"    . . R w.w.0.5.5.5.5.2.5.5.2.2.5.2.2.2.5.5.5.2.2.5.2.2.2.5.2.2.2.5.2.2.5.5.5.5.5.0.5.M Z A A A H H P R Q . .                 ",
"    % % ` i.i.s.i.5.2.2.i.w.0.w.i.w.0.0.w.i.w.5.5.5.5.0.0.w.i.w.5.0.w.w.w.0.w.s.i.5.2.2.` ( P Q } A H P } o.% .                 ",
". . oXoXoXoX.XoXoXm.5.2..XoXoXoX.XoXoXoXoXoXoXoXw.5.s.oX.XoXoXoXoXoXoXoXoXoXoXoX.X2.M Z oXoXoXoXoXA A s.oXoXoXoXG.. .           ",
". . oXoXoXoXoXoX.Xn.5.5..XoXoXoXoXoXoXoXoXoXoXoXw.5.i.oX.XoXoXoXoXoXoXoXoXoXoXoX.X2.M M oXoXoXoXoXZ Z s.oXoXoXoXG.. .           ",
". # oXoXoXoXoXoXoXm.5.5.oXoXoXoXoXoXoXoXoXoXoXoXw.2.s.oXoXoXoXoXoXoXoXoXoXoXoXoXoX2.M Z oXoXoXoXoXZ M i.oXoXoXoXZ.. .           ",
". % oXoXoXoXoXoXoXG.5.0.oXoXoXoXoXoXoXoXoXoXoXoX0.2.i..XoXoXoXoXoXoXoXoXoXoXoX:.&.k.K.P.oXoXR.:.2.~._..XoXoXoXoX.Xk.n.          ",
". % oXoXoXoXoXoXoXK.5.5.oXoXoXoXoXoXoXoXoXoXoXoXw.5.s.oXoXoXoXoXoXoXoXoXoXoXoXP A m.oXoXoXoXn.M A oXoXoXoXoXoXoXoXoXoX. .       ",
". @ oXoXoXoXoXoXoXG.2.0.oXoXoXoXoXoXoXoXoXoXoXoXw.5.s.oXoXoXoXoXoXoXoXoXoXoXoXA Z Z.oXoXoXoXk.Z Z oXoXoXoXoXoXoXoXoXoX. .       ",
". . oXoXoXoXoXoXoXG.5.2..X.XoXoXoXoXoXoXoXoXoXoXi.2.s..X.XoXoXoXoXoXoXoXoXoXoXZ Z K.oXoXoXoXk.Z Z oXoXoXoXoXoXoXoXoXoX. .       ",
". . m.Z.Z.Z.K.K.Z.i.2.2.m.n.m.G.G.G.Z.Z.G.K.Z.Z.0.2.0.k.n.Z.K.G.Z.Z.K.G.s.2.:.G.K.oXoXoX0.2.m._.W.oXoX`.:.2.2.=.n.oXoXm.Z.o.    ",
". . w.w.w.0.0.w.0.2.5.5.2.5.5.2.5.2.2.2.5.5.2.2.5.2.5.2.5.2.2.2.5.5.0.5.} Z M .X.XoXoXoXM M G.oXoXoXoXP.l l l n :.oXoXoXoXs.. . ",
". . w.w.w.0.5.0.5.5.2.2.2.2.2.5.2.2.5.5.5.0.5.2.2.2.5.2.2.2.5.5.2.0.w.0.( M Z oXoXoXoXoXM Z G.oXoXoXoXP.n n n M 5.oXoXoXoXw.. . ",
". @ w.w.w.w.i.0.5.2.5.5.5.2.2.5.5.5.2.5.5.5.5.5.5.5.5.2.2.5.5.2.5.0.0.s.( M M oXoXoXoXoXM M G.oXoXoXoXK.M M M M 5.oXoXoXoXi.. . ",
". @ }..X}.}.}..X}.].}.}.}.}.].}..X2.2.~.}.}.}..X].}.}.}.].}.}.}.}.}.}.}.2.M Z .XoXoXoXoXM M G.oXoXR P n r r 1 1 r Q Q oXoXj.. . ",
". . oXoXoXoXoXoX.XoXoXoXoXoX.XoXoX5.2._.oXoXoXoX.XoXoXoX.XoXoXoXoXoX.XoX2.M Z oXoXoXoXoXM Z K.oXoXZ Z l w r < < w A A oXoXn.. . ",
". . oXoX.XoXoXoXoXoXoXoXoXoXoXoX.X2.5._.oXoXoXoXoXoXoXoXoXoXoXoXoXoXoXoX2.M Z oXoXoXoXoXM M K.oXoXA Z l r u < < 0 A H oXoXk.. . ",
". # oXoXoXoXoXoXoXoXoXoXoXoXoXoXoX0.0._..X.XoXoXoXoXoXoXoXoXoXoXoXoXoXoXi.Z M oXoXoXoXoXZ A G.oXoXA A l w r 1 = 0 A H oXoXi.. . ",
". * oXoXoXoXoXoXoXoXoXoXoXoXoXoXoX0.0._.oXoXoXoXoXoXoXoXoXoXoXoXoXoXoXoXk.A H oXoXoXoXoXH H K.oXoXP A f 1 1 # @ < H P oXoXs.. . ",
". % oXoXoXoXoXoXoXoXoXoXoXoXoXoXoXi.w._.oXoXoXoXoXoXoXoXoXoXoXoXoXoXoXoXk.P H oXoXoXoXoXR P G.oXoXR H j 1 1 @ @ < P R oXoXs.. . ",
". = oXoXoXoXoXoXoXoXoXoXoXoXoXoXoXw.w._.oXoXoXoXoXoXoXoXoXoXoXoXoXoXoXoXs.P P oXoXoXoXoXR P K.oXoXP P l 1 6 @ @ ; R R oXoXk.. . ",
"    o.} $.$.o. .o.$.o. .o.$.$.o.o.a f P ( ( o.$.$.o. .o.$. . .o.$.$.o.o.j 7 7 ` ` o.$.o.7 7 Z =.&.6 6 = # # . . @ 7 6 :.:.}     ",
"    . . . . . . . . . . . . . . . . . . . . . . . . . . . . . . . . . . . . . . . . . . . . . . . . . . . . . . . . . . .       ",
"    . . . . . . . . . . . . . . . . . . . . . . . . . . . . . . . . . . . . . . . . . . . . . . . . . . . . . . . . . . .       ",
"    . . . . . . . . . . . . . . . . . . . . . . . . . . . . . . . . . . . . . . . . . . . . . . . . . . . . . . . . . . .       "
};
