/* XPM */
static char *a8414cad4d034022dc61beb2016431cdENqHg8WFulfFcwfV[] = {
/* columns rows colors chars-per-pixel */
"64 64 189 2 ",
"   c None",
".  c #020202",
"X  c #070907",
"o  c #060708",
"O  c #070908",
"+  c #0C0D0C",
"@  c #0E110D",
"#  c #0A0E10",
"$  c #0D1316",
"%  c #0E1419",
"&  c #121415",
"*  c #141B15",
"=  c #13191B",
"-  c #1A1B1B",
";  c #141718",
":  c #1D281D",
">  c #0E1E22",
",  c #1C1F22",
"<  c #111F26",
"1  c #1C2223",
"2  c #122026",
"3  c #17393F",
"4  c #222926",
"5  c #353636",
"6  c #303D3F",
"7  c #163D44",
"8  c #323C40",
"9  c #0C4B55",
"0  c #0D4A58",
"q  c #3E494B",
"w  c #3C4649",
"e  c #224752",
"r  c #234A53",
"t  c #2B4C52",
"y  c #2A565B",
"u  c #3E5D6A",
"i  c #246974",
"p  c #286F7A",
"a  c #28727E",
"s  c #454749",
"d  c #404D4F",
"f  c #424446",
"g  c #495456",
"h  c #4A555B",
"j  c #465254",
"k  c #5B5C5B",
"l  c #4F655A",
"z  c #495F64",
"x  c #615F60",
"c  c #46646F",
"v  c #546066",
"b  c #486979",
"n  c #466877",
"m  c #5A6B71",
"M  c #4A727E",
"N  c #767676",
"B  c #717B72",
"V  c #367687",
"C  c #4E7986",
"Z  c #577C89",
"A  c #517F90",
"S  c #6E7E85",
"D  c #637780",
"F  c #158B9D",
"G  c #1A8D9E",
"H  c #3D8499",
"J  c #2A92A3",
"K  c #43869C",
"L  c #43899E",
"P  c #528192",
"I  c #5C8A9C",
"U  c #788589",
"Y  c #7E949B",
"T  c #4C8CA2",
"R  c #4E91A3",
"E  c #5592A6",
"W  c #5695AD",
"Q  c #6196AB",
"!  c #6F9CA9",
"~  c #669DB3",
"^  c #5BACB8",
"/  c #5FB0BC",
"(  c #68A8B9",
")  c #77AAB2",
"_  c #72A9BC",
"`  c #7CABBB",
"'  c #78A6B8",
"]  c #64B1BC",
"[  c #6EABC3",
"{  c #72ACC6",
"}  c #74ADC8",
"|  c #79AEC9",
" . c #76B1C7",
".. c #7BB2C7",
"X. c #76B2C9",
"o. c #7BB4CA",
"O. c #7FB8CC",
"+. c #868686",
"@. c #898989",
"#. c #878787",
"$. c #999B9A",
"%. c #879BA1",
"&. c #8AA2A9",
"*. c #92AFB8",
"=. c #83B1BE",
"-. c #89B3BC",
";. c #95B3BC",
":. c #A3A3A3",
">. c #ACACAC",
",. c #AEAFB0",
"<. c #B4B4B4",
"1. c #BEBEBE",
"2. c #81B6CB",
"3. c #84B9CD",
"4. c #8ABDCE",
"5. c #88B3C3",
"6. c #92B7C2",
"7. c #94BAC5",
"8. c #9ABDC8",
"9. c #89BDD2",
"0. c #84BAD1",
"q. c #A0BFC9",
"w. c #9EC2CC",
"e. c #8CC2D5",
"r. c #8FC4D6",
"t. c #8CC1D5",
"y. c #8FC4D8",
"u. c #94C4D6",
"i. c #9CC6D5",
"p. c #9EC8D5",
"a. c #92C5D9",
"s. c #9BC7D9",
"d. c #9DC9DA",
"f. c #96C8DB",
"g. c #9ED0DF",
"h. c #88C3CA",
"j. c #A2C2CB",
"k. c #A5C5D2",
"l. c #A3CAD6",
"z. c #A2CADA",
"x. c #A6C9D9",
"c. c #A1D0D9",
"v. c #B9D3D9",
"b. c #9FD1E3",
"n. c #A6D2E5",
"m. c #A2D2E4",
"M. c #AAD6E7",
"N. c #AAD5E8",
"B. c #B4DFEE",
"V. c #BCDFE9",
"C. c #B5DFF0",
"Z. c #B7E2EF",
"A. c #B5E0EF",
"S. c #B8E1EF",
"D. c #B8E2EF",
"F. c #B8E0EF",
"G. c #B6E1F0",
"H. c #B8E2F0",
"J. c #C2D7DF",
"K. c #C6D8E0",
"L. c #D2E2E7",
"P. c #DBE8EC",
"I. c #C4E9F7",
"U. c #C9EBF7",
"Y. c #C6EAF8",
"T. c #C9EDF9",
"R. c #C9EFFB",
"E. c #CAEFFB",
"W. c #C9EFF9",
"Q. c #CAEFFC",
"!. c #CBEEFC",
"~. c #CAEFFE",
"^. c #CBEFFC",
"/. c #DDEBF0",
"(. c #D4EEF8",
"). c #CAF0FB",
"_. c #D2F1FA",
"`. c #DDF3F9",
"'. c #DEF2FA",
"]. c #DAF1F9",
"[. c #E3F6FB",
"{. c #E6F8FE",
"}. c #ECF9FC",
"|. c #F2FAFC",
" X c white",
".X c #FEFFFF",
"XX c #FEFFFD",
"oX c #FEFFFF",
"OX c #E6E5E6",
/* pixels */
"                                                                                                                                ",
"                                  . . . . . . . . . o . . . . . . . . . . . .                                                   ",
"                                  . . . . . . . . . . . . . . . . . . . . . .                                                   ",
"                                  % % % $ % % % % $ $ % % $ $ $ % % % % % % %                                                   ",
"                        X . . . O [ { { [ [ [ } [ [ [ [ { [ [ [ [ [ [ [ [ [ [ O X . . X                                         ",
"                        . . . . . { { { [ } { { { { } { [ } } [ } { [ { } { [ . . . . .                                         ",
"                        . . . . . { { { { { { { { { { { { { { { { { { } { [ { . . . . .                                         ",
"                        h q w d h { { 0.t.t.t.9.9.y.t.t.t.t.y.t.9.t.[ { 0.t.e.g j q q h                                         ",
"                    . o W.W.W.W.U.{ { C.!.!.^.R.!.!.R.R.R.R.!.!.R.R.[ } M.W.R.T.T.R.T.U.. .                                     ",
"                    . O R.).R.R.T.{ { C.!.!.^.R.R.R.).!.R.!.R.R.R.R.{ { n.!.).!.!.).R.R.. .                                     ",
"                    . + ).R.R.R.!.{ { C.!.!.R.R.).^.R.).!.!.R.R.R.R.[ } n.!.R.R.R.R.!.U.. .                                     ",
"                  l h v '.'.'.'.[.{ { C.!.T.'.'.'.'.`.`.'.`.'.'.'.'.[ { n.!.!.'.'.'.'.].x k                                     ",
"              . . &.^.)..X.X.X.XXX{ { B.R.!..X.X.X.X.X.X.X.X.X.X.X.X{ { n.R.R..X.X.X.X.X.X.XN . .                               ",
"              . . &.).R..X.X.X.X.X{ { B.R.(..X.X.X.X.X.X.X.X.X.X.X.X} { N.R.R..X.X.X.X.X.X.XN . .                               ",
"              . . &.).)..X.X.X.X.X{ { A.!.W..X.X.X.X.X.X.X.X.X.X.X.X{ { N.R.R..X.X.X.X.X.X.XN . .                               ",
"          O : Q ~ }  .o.3.o.} O.3.{ { } O.2.o.} O.2.3... .O.3.O. ...[ { X.X.o.3.2.X...2.3.2.{ ~ W : @                           ",
"          . & { { } { { [ } { { { { { { { } [ { { { { [ {  . .[ [ { } { { } { [ { [ { [ [ { { { _ o .                           ",
"          . $ { { { { { { { { { { { { { { { { { { { { { { [ { { } } [ } { { } } { { { { { { { { { o .                           ",
"          . $ o...{ { { o.X.X.X.o.o.X.X.o.o.o.X.{ { } .. .o.o.o.X.X.o.o.X.X.o.o.o.{ { { O.o.X.X.O.. .                           ",
"          . X Z.C.9.{ { H.G.G.S.H.H.G.S.H.H.H.G.| { O.C.Z.Z.Z.Z.G.G.H.Z.Z.Z.H.H.H.h.{ { S.Z.H.H.Z.. .                           ",
"          . + R.R.9.} { W.!.!.!.R.^.!.!.).R.R.).X.{ 4.!.R.^.^.R.).).R.^.^.^.R.R.R.a.{ { W.).).).R.. .                           ",
"          . ; ).R.a.} | W.).!.!.).R.!.!.R.R.^.).| { 3.!.^.^.R.^.).).^.R.^.^.^.^.!.u.{ { ).).).^.R.o .                           ",
"          . - ^.!.u.{ | W.W.!.!.^.^.!.!.^.^.^.^.| { 3.!.^.^.R.^.^.^.^.^.!.^.^.^.^.s.{ } W.).!.!.T.O .                           ",
"          . - .X.Xl.{ ..W.).}.XX.X.X.XXX.X.X.X.X2...4.^.^..X.X.X.X.X.X.X.X.X.X.X.Xx.{ { W.!.{.XXXXO .                           ",
"        : . & .X.Xp.{ } R.!.|..X.X.X.X.X.X.X.X.Xo.| 4.R.R..X.X.X.X.X.X.X.X.X.X.X.Xx.{ { R.R.{..X.X. .                           ",
"        : . O .X.Xp.{ { R.!.}..X.X.X.X.X.X.X.X.X2.| 3.).R..X.X.X.X.X.X.X.X.X.X.X.Xx.{ { R.R.{..X.X. .                           ",
"        c A C l.l...{ { a.t.u.p.l.l.i.i.l.l.l.l...} X.9.t.p.l.p.i.i.l.l.p.i.l.l.l...{ { t.r.u.p.x.M C                           ",
"      . P { { { { { { { { { { } {  .{ { { { } } } { { } [  . .{ { { {  .{ [ { { { } { { { { [ { [ { } b . .                     ",
"      . P { { { { { { { { { { { { { { { { { | | { { { { { { { { { } { { { { { { { { { { { { { { { { { n . .                     ",
"      . P { } { { { } } { { { { { { { { { { X.} { { { { { { } } { [ } { [ { {  .{ } { { { { { { } { { b . .                     ",
"      . ! t.y.a.t.9.t.a.a.t.9.a.u.{ { 4.s.a.a.9.t.a.a.t.t.y.a.t.9.t.[ } 3.t.t.a.a.t.9.a.{ { O.t.a.r.e.Z . .                     ",
"      . j.).R.).R.R.^.^.R.R.).^.!.{ { B.^._.^.R.).!.).R.).R.).).R.).{ { N.).).).R.^.R.R.{ { m.).).R.).%.. .                     ",
"      . 8.R.R.R.R.R.R.R.^.^.R.R.!.{ { B.!.^.R.R.^.^.R.R.^.^.R.R.R.R.{ } N.R.R.R.R.R.R.!.} { m.R.R.^.^.%.. .                     ",
"      . ;.R.R.!.!.!.!.!.!.^.!.R.!.{ { G.^.^.!.!.!.!.^.!.^.^.^.^.^.^.[ { m.R.^.^.!.R.^.!.[ { m.^.^.^.!.Y . .                     ",
"      . *.^._..X.X.X.X.X.X.X.X.X.X{ { C.^.!..X.X.X.X.X.X.X.X.X.X.X.X{ [ n.!.^..X.X.X.X.X{ { z.).R..X|.$.. .                     ",
"      . ;.R._..X.X.X.X.X.X.X.X.XoX{ { C.R.(..X.X.X.X.X.X.X.X.X.X.X.X{ } n.!.^..X.X.X.X.X{ { m.R.R..X.X$.. .                     ",
"    . . q.).^..X.XoXoX.X.X.X.X.X.X{ { B.^._..X.X.X.X.X.X.X.X.X.X.X.X{ { M.!.R..X.X.X.X.X{ [ b.R.R..X.X:.. .                     ",
"    . . 6.C.H././././././././././.{ { n.C.V././././././.P./././././.{ { d.Z.S./././././.( [ 9.N.M.L.L.%.< <                     ",
"    . . I X.o.o.O.| | 2.3...X...2.{ { } X...2.X...2.2.| | O.2.O.X.X.{ { X.X...2.o.X.X.o.H T H T R E T K V V & +                 ",
"    . . A { { { { { { { { { { { { { { { { { { { { { { { { { { } { { { { { { { { { { { [ H H H H H H H H H H o .                 ",
"    o . A { { { { { { { { { } { { { { { { { { { { { { } { { } { { { { { { { { { { { { [ K H H H H H H H V H o .                 ",
"    1 1 I | ..o.o.{ { { 2...| X.o...X.X...2... .} { } } } ..o...} ....o...} ..O.o._ [ [ E T T T E H H H W E 4 +                 ",
". & ).^.^.R.^.^.^.a.{ { R.^.^.^.^.R.^.^.).R.R.R...{ 2.^.).).R.).R.!.R.!.).^.R.!.W._ H H .X.X.X.X.XH H =..X.X.X.X1.. .           ",
". & ^.).^.^.^.^.^.9.{ { R.^.^.R.^.^.^.).^.R.R.).X.{ 3.^.R.!.^.^.).).!.).!.R.!.R.T._ H H .X.X.X.X.XH H =..X.X.X.X1.. .           ",
". - ^.R.^.R.^.^.R.a.{ } !.R.R.!.^.).).R.^.).R.).| { o.).R.R.^.^.^.!.!.R.!.).R._.W._ H H .X.X.X.X.XH H =..X.X.X.X<.. .           ",
". 1 ^.^.[.}.}.}.}.s.{ { W.!.[.}.}.}.}.}.}.}.}.}.5.{ o.R.^.}.}.}.|.}.}.}.}.|.}._ ( h.g.z..X.Xv.) ) J.J./..X.X.X.XOX<.,.          ",
". 1 !.R.|..X.X.X.Xl.{ | W.!.}..X.X.X.X.X.X.X.X.X..{ O.R.R..X.X.X.X.X.X.X.X.XXXL K u.W.R..X.X8.H K |..X.X.X.X.X.X.X.X.X. .       ",
". - R.R.|..X.X.X.Xl.{ | W.W.}..X.X.X.X.X.X.X.X.X| { 2.R.R..X.X.X.X.X.X.X.X.XXXH K i.).)..X.X7.H H .X.X.X.X.X.X.X.X.X.Xo .       ",
". $ R.R.|..X.X.X.Xi.{ { Y.^.}..XoXoXoXoXoXoX|..X2.{ 2.R.!.|.oX|..X.X.X|..X.X.XH K p.!.!.XXXX7.K K .X.XXXXX|.XXXX|..X.XO .       ",
". $ t.a.9.i.s.x.s.o.{ { t.9.a.s.s.s.9.s.s.s.f.q.{ { | 9.9.s.x.s.u.u.x.z.5.' ' d.d.(.|.}.` ' w.J.v..XXXV./ / / ^ h..X.X<.<.+.    ",
". % { { } { } ..} { { } { { { { { { { { } { { { { { { { { { } { { } } { W H H ^.R.}..X.XH H k..X.X.X.Xl.F F F F ^ .X.X.X.X:.. O ",
". = [ } { { { | } { { } { { { { { { { { } } { { { { { { { { { { { } o.} W H H R.R.{..X|.H H k..X.X.X.Xc.F F F F ] .X.X.X.X:.. . ",
". = } } { { ..| { { { } { { { { } { { { } } } { } } { { { } } { { } | 2.W H H ^.R.}..X.XH H j..X.XXXXXp.F G F F ( |.|.oX.X:.. . ",
". = Y.Y.I.Y.U.U.Y.I.Y.Y.I.I.I.I.Y.{ { B.Y.I.I.I.I.Y.Y.I.I.I.Y.Y.I.I.U.Y.} V H R.R.}..X.XH H k..XXXJ J V d q w 6 y J J oX.X>.. . ",
". & ).R.R.!.W.!.!.!.R.R.!.!.!.!.^.{ { B.^.R.).^.!.!.!.R.!.R.R.^.R.!.R.R._ K H R.R.}..X.XK H k..XXXF F a s s 5 5 t G F oX.X<.. . ",
". ; R.R.!.!.!.!.R.R.R.R.!.!.!.!.^.{ { C.^.^.!.R.!.!.R.R.!.R.R.^.!.!.!.^.{ H H ^.R.}..X.XH H k..XXXF F a s s 5 5 t F F oX.X,.. . ",
". - ).!._._._.(.(._.(._._._._._.].{ [ B.R.R._._._._._._._._._.(._._._._...H H R.^.}..X|.K H k.oXXXG F p f f 5 5 t F F .X.X:.. . ",
". 1 !.(.|..X.X.X.X.X.X.X.X.X.X.XXX{ { C.!.!..X.X.X.X.X.X.X.X.X.X.X.X.X.X;.H H ^.^.{..XoXT V k..XXXG F i 5 5 - - e F F |..X:.. . ",
". 4 !.W.|..X.X.X.X.X.X.X.X.X.X.X.X{ } G.!.(..X.X.X.X.X.X.X.X.X.X.X.X.X.X6.H H R.R.}..XXXH H l..XXXF F i 5 5 - - 3 F F .X.X:.. . ",
"& 4 !.!.|..X.X.X.X.X.X.X.X.X.X.X.X{ } H.!._..X.X.X.X.X.X.X.X.X.X.X.X.X.X5.H H ^.R.}..X.XH H k..XXXF F i 5 5 - - 3 F F |..X,.. . ",
"    U S +.#.#.#.#.#.#.#.#.+.@.@.+.u u m S S #.#.@.#.#.+.@.#.#.#.#.#.+.#.z r e S S U @.+.e e m #.+.9 9 3 - - @ @ > 0 0 #.@.B     ",
"    o . . . . . . . . . . . . . . . . . . . . . . . . o o . . . . . . . . . . . . . . . . . . . . . . . . . . . . . . . .       ",
"    . . . . . . . . . . . . . . . . . . . . . . . . . . . . . . . . . . . . . . . . . . . . . . . . . . . . . O . . . . .       ",
"    . . . . . . . . . . . . . . . . . . . . . . . . . . . . . . . . . . . . . . . . . . . . . . . . . . . . & + . . . . .       "
};
