/* XPM */
static char *result[] = {
/* columns rows colors chars-per-pixel */
"48 64 14 1 ",
"  c #B7DAE5",
". c #B6DBE5",
"X c #B7DBE5",
"o c #B7DAE6",
"O c #B6DBE6",
"+ c #B7DBE6",
"@ c #B7DAE7",
"# c #B6DCE6",
"$ c #B7DCE6",
"% c #B8DBE5",
"& c #B8DAE6",
"* c #B8DBE6",
"= c #B8DBE7",
"- c None",
/* pixels */
"------------------------------------------------",
"------------------------------------------------",
"------------------------------------------------",
"------------------------------------------------",
"------------------------------------------------",
"------------------------------------------------",
"------------------------------------------------",
"------------------------------------------------",
"------------------------------------------------",
"------------------------------------------------",
"------------------------------------------------",
"------------------------------------------------",
"------------------------------------------------",
"------------------------------------------------",
"-------------------------X----------------------",
"---------------------+---O+X--------------------",
"-------------------+++--++X++ ------------------",
"------------------o+++*-X+++o++-----------------",
"-----------------*+++++.XX++O+++----------------",
"----------------O++++++++++oX++++---------------",
"---------------O++++++++#+++++++++--------------",
"---------------++++++++---O++++++X+-------------",
"--------------++++++++------+++++++-------------",
"-------------+++++++X--------+++++++------------",
"-------------+++++++---------+++++++------------",
"------------+++++++*----------+++++++-----------",
"------------+++++++------------++X+++-----------",
"-----------O++++++$------------++++++#----------",
"-----------+++++++-------------#++X+++----------",
"-----------+++++++--------------++O++X----------",
"----------.++++++---------------++++++----------",
"----------+++++++---------------X+++++----------",
"----------++++++o---------------o+++++ ---------",
"----------++++++#---------------X+++++o---------",
"----------++++++-----------------++++++---------",
"----------++++++-----------------+++++O---------",
"----------++++++----------------#+++++*---------",
"----------++++++----------------O++++++---------",
"----------++++++----------------++++++O---------",
"----------+++++++---------------++++++----------",
"----------X++++++---------------++++++----------",
"----------+++++++--------------+++++++----------",
"----------++++++++-------------++++++X----------",
"-----------+++++++------------+++++++-----------",
"-----------+++++++X-----------+++++++-----------",
"-----------O+++++++----------+++++++%-----------",
"------------++++++++--------++++++++------------",
"------------+++++++++@----o++++++++o------------",
"-------------++++++++++O+++++++++++-------------",
"--------------++++++++++++++++++++--------------",
"--------------=++++++++++++++++++o--------------",
"----------------++++++++++++++++ ---------------",
"-----------------O+++++++++++++-----------------",
"------------------&O+++++++++O------------------",
"---------------------o+X+++O--------------------",
"------------------------------------------------",
"------------------------------------------------",
"------------------------------------------------",
"------------------------------------------------",
"------------------------------------------------",
"------------------------------------------------",
"------------------------------------------------",
"------------------------------------------------",
"------------------------------------------------"
};
