/* XPM */
static char *result[] = {
/* columns rows colors chars-per-pixel */
"48 64 11 1 ",
"  c #B7DAE5",
". c #B7DBE5",
"X c #B7DAE6",
"o c #B6DBE6",
"O c #B7DBE6",
"+ c #B7DAE7",
"@ c #B6DCE6",
"# c #B7DCE6",
"$ c #B8DBE5",
"% c #B8DBE6",
"& c None",
/* pixels */
"&&&&&&&&&&&&&&&&&&&&&&&&&&&&&&&&&&&&&&&&&&&&&&&&",
"&&&&&&&&&&&&&&&&&&&&&&&&&&&&&&&&&&&&&&&&&&&&&&&&",
"&&&&&&&&&&&&&&&&&&&&&&&&&&&&&&&&&&&&&&&&&&&&&&&&",
"&&&&&&&&&&&&&&&&&&&&&&&&&&&&&&&&&&&&&&&&&&&&&&&&",
"&&&&&&&&&&&&&&&&&&&&&&&&&&&&&&&&&&&&&&&&&&&&&&&&",
"&&&&&&&&&&&&&&&&&&&&&&&&&&&&&&&&&&&&&&&&&&&&&&&&",
"&&&&&&&&&&&&&&&&&&&&&&&&&&&&&&&&&&&&&&&&&&&&&&&&",
"&&&&&&&&&&&&&&&&&&&&&&&&&&&&&&&&&&&&&&&&&&&&&&&&",
"&&&&&&&&&&&&&&&&&&&&&&&&&&&&&&&&&&&&&&&&&&&&&&&&",
"&&&&&&&&&&&&&&&&&&&&&&&&&&&&&&&&&&&&&&&&&&&&&&&&",
"&&&&&&&&&&&&&&&&&&&&&&&&&&&&&&&&&&&&&&&&&&&&&&&&",
"&&&&&&&&&&&&&&&&&&&&&&&&&&&&&&&&&&&&&&&&&&&&&&&&",
"&&&&&&&&&&&&&&&&&&&&&&&&@XoOOO&&&&&&&&&&&&&&&&&&",
"&&&&&&&&&&&&&&&&&&&&&&&&OOOOXX&&&&&&&&&&&&&&&&&&",
"&&&&&&&&&&&&&&&&&&&&&&&OOOOOOO&&&&&&&&&&&&&&&&&&",
"&&&&&&&&&&&&&&&&&&&&&OOOOOOOOO&&&&&&&&&&&&&&&&&&",
"&&&&&&&&&&&&&&&&&&&OOOOOOOOOOO&&&&&&&&&&&&&&&&&&",
"&&&&&&&&&&&&&&&&&OOOOOOOOOOOOO&&&&&&&&&&&&&&&&&&",
"&&&&&&&&&&&&&&&& OOOOOOOOOOOOo&&&&&&&&&&&&&&&&&&",
"&&&&&&&&&&&&&&&&&OOOOOOOOOOOO &&&&&&&&&&&&&&&&&&",
"&&&&&&&&&&&&&&&&&&OOOOOOOOOOO@&&&&&&&&&&&&&&&&&&",
"&&&&&&&&&&&&&&&&&&oOOOOOOOOOO&&&&&&&&&&&&&&&&&&&",
"&&&&&&&&&&&&&&&&&&&O+&&OOOOOO&&&&&&&&&&&&&&&&&&&",
"&&&&&&&&&&&&&&&&&&&&&&&OOOOOO&&&&&&&&&&&&&&&&&&&",
"&&&&&&&&&&&&&&&&&&&&&&&OOOOOO&&&&&&&&&&&&&&&&&&&",
"&&&&&&&&&&&&&&&&&&&&&&&OOOOOO&&&&&&&&&&&&&&&&&&&",
"&&&&&&&&&&&&&&&&&&&&&&XOOOOOo&&&&&&&&&&&&&&&&&&&",
"&&&&&&&&&&&&&&&&&&&&&&#OOOOO%&&&&&&&&&&&&&&&&&&&",
"&&&&&&&&&&&&&&&&&&&&&&OOOOOO.&&&&&&&&&&&&&&&&&&&",
"&&&&&&&&&&&&&&&&&&&&&&oOOOOO &&&&&&&&&&&&&&&&&&&",
"&&&&&&&&&&&&&&&&&&&&&&OOOOOO&&&&&&&&&&&&&&&&&&&&",
"&&&&&&&&&&&&&&&&&&&&&&OOOOOO&&&&&&&&&&&&&&&&&&&&",
"&&&&&&&&&&&&&&&&&&&&&&OOOOOO&&&&&&&&&&&&&&&&&&&&",
"&&&&&&&&&&&&&&&&&&&&&&OOOOOO&&&&&&&&&&&&&&&&&&&&",
"&&&&&&&&&&&&&&&&&&&&&&OOOOOO&&&&&&&&&&&&&&&&&&&&",
"&&&&&&&&&&&&&&&&&&&&&@OOOOOO&&&&&&&&&&&&&&&&&&&&",
"&&&&&&&&&&&&&&&&&&&&&$OOOOOO&&&&&&&&&&&&&&&&&&&&",
"&&&&&&&&&&&&&&&&&&&&&OOOOOOO&&&&&&&&&&&&&&&&&&&&",
"&&&&&&&&&&&&&&&&&&&&&XOOOOOO&&&&&&&&&&&&&&&&&&&&",
"&&&&&&&&&&&&&&&&&&&&&XOOOOOO&&&&&&&&&&&&&&&&&&&&",
"&&&&&&&&&&&&&&&&&&&&& OOOOO&&&&&&&&&&&&&&&&&&&&&",
"&&&&&&&&&&&&&&&&&&&&&%OOOOO&&&&&&&&&&&&&&&&&&&&&",
"&&&&&&&&&&&&&&&&&&&&&.OOOOO&&&&&&&&&&&&&&&&&&&&&",
"&&&&&&&&&&&&&&&&&&&&&OOOOOO&&&&&&&&&&&&&&&&&&&&&",
"&&&&&&&&&&&&&&&&&&&&&OOOOOOXOXX&&&&&&&&&&&&&&&&&",
"&&&&&&&&&&&&&&&&&&&&&.OOOOOOOOO&&&&&&&&&&&&&&&&&",
"&&&&&&&&&&&&&&&&OOOOOOOOOOOOOOO&&&&&&&&&&&&&&&&&",
"&&&&&&&&&&&&&&&&OOOOOOOOOOOOOOO%&&&&&&&&&&&&&&&&",
"&&&&&&&&&&&&&&&&OOOOOOOOOOOOOOO&&&&&&&&&&&&&&&&&",
"&&&&&&&&&&&&&&&&OOOOOOOOOOOOOX@&&&&&&&&&&&&&&&&&",
"&&&&&&&&&&&&&&&&OOOOOOOOOOOO&&&&&&&&&&&&&&&&&&&&",
"&&&&&&&&&&&&&&&&oOOOOOOOO.&&&&&&&&&&&&&&&&&&&&&&",
"&&&&&&&&&&&&&&&&&&&&&oOOX.&&&&&&&&&&&&&&&&&&&&&&",
"&&&&&&&&&&&&&&&&&&&&&oXOoO&&&&&&&&&&&&&&&&&&&&&&",
"&&&&&&&&&&&&&&&&&&&&&&X&&o&&&&&&&&&&&&&&&&&&&&&&",
"&&&&&&&&&&&&&&&&&&&&&&&&&&&&&&&&&&&&&&&&&&&&&&&&",
"&&&&&&&&&&&&&&&&&&&&&&&&&&&&&&&&&&&&&&&&&&&&&&&&",
"&&&&&&&&&&&&&&&&&&&&&&&&&&&&&&&&&&&&&&&&&&&&&&&&",
"&&&&&&&&&&&&&&&&&&&&&&&&&&&&&&&&&&&&&&&&&&&&&&&&",
"&&&&&&&&&&&&&&&&&&&&&&&&&&&&&&&&&&&&&&&&&&&&&&&&",
"&&&&&&&&&&&&&&&&&&&&&&&&&&&&&&&&&&&&&&&&&&&&&&&&",
"&&&&&&&&&&&&&&&&&&&&&&&&&&&&&&&&&&&&&&&&&&&&&&&&",
"&&&&&&&&&&&&&&&&&&&&&&&&&&&&&&&&&&&&&&&&&&&&&&&&",
"&&&&&&&&&&&&&&&&&&&&&&&&&&&&&&&&&&&&&&&&&&&&&&&&"
};
