/* XPM */
static char *result[] = {
/* columns rows colors chars-per-pixel */
"48 64 10 1 ",
"  c #D92121",
". c #D92121",
"X c #D92121",
"o c #D92121",
"O c #D92121",
"+ c #D92121",
"@ c #D92121",
"# c #D92121",
"$ c #D92121",
"% c None",
/* pixels */
"%%%%%%%%%%%%%%%%%%%%%%%%%%%%%%%%%%%%%%%%%%%%%%%%",
"%%%%%%%%%%%%%%%%%%%%%%%%%%%%%%%%%%%%%%%%%%%%%%%%",
"%%%%%%%%%%%%%%%%%%%%%%%%%%%%%%%%%%%%%%%%%%%%%%%%",
"%%%%%%%%%%%%%%%%%%%%%%%%%%%%%%%%%%%%%%%%%%%%%%%%",
"%%%%%%%%%%%%%%%%%%%%%%%%%%%%%%%%%%%%%%%%%%%%%%%%",
"%%%%%%%%%%%%%%%%%%%%%%%%%%%%%%%%%%%%%%%%%%%%%%%%",
"%%%%%%%%%%%%%%%%%%%%%%%%%%%%%%%%%%%%%%%%%%%%%%%%",
"%%%%%%%%%%%%%%%%%%%%%%%%%%%%%%%%%%%%%%%%%%%%%%%%",
"%%%%%%%%%%%%%%%%%%%%%%%%%%%%%%%%%%%%%%%%%%%%%%%%",
"%%%%%%%%%%%%%%%%%%%%%%%%%%%%%%%%%%%%%%%%%%%%%%%%",
"%%%%%%%%%%%%%%%%%%%%%%%%%%%%%%%%%%%%%%%%%%%%%%%%",
"%%%%%%%%%%%%%%%%%%%%%%%%%%%%%%%%%%%%%%%%%%%%%%%%",
"%%%%%%%%%%%%%%%%%%%%%%%%%%%%%%%%%%%%%%%%%%%%%%%%",
"%%%%%%%%%%%%%%%%%%%%%%%%%%%%%%%%%%%%%%%%%%%%%%%%",
"%%%%%%%%%%%%%%%%%%%%%%%%%%%%%%%%%%%%%%%%%%%%%%%%",
"%%%%%%%%%%%%%%%%%%%++++++++%%%%%%%%%%%%%%%%%%%%%",
"%%%%%%%%%%%%%%%%+++++++++++++%%%%%%%%%%%%%%%%%%%",
"%%%%%%%%%%%%%%%++++++++++++++++%%%%%%%%%%%%%%%%%",
"%%%%%%%%%%%%%%++++++++++++++++++%%%%%%%%%%%%%%%%",
"%%%%%%%%%%%%%++++++++++++++++++++%%%%%%%%%%%%%%%",
"%%%%%%%%%%%%++++++++++++++++++++++%%%%%%%%%%%%%%",
"%%%%%%%%%%%%+++++++++%%o+++++++++++%%%%%%%%%%%%%",
"%%%%%%%%%%%o++++++%%%%%%%%+++++++++%%%%%%%%%%%%%",
"%%%%%%%%%%%X+++++%%%%%%%%%%%++++++++%%%%%%%%%%%%",
"%%%%%%%%%%%%+++++%%%%%%%%%%%%+++++++%%%%%%%%%%%%",
"%%%%%%%%%%%%%%%%%%%%%%%%%%%%%+++++++%%%%%%%%%%%%",
"%%%%%%%%%%%%%%%%%%%%%%%%%%%%%+++++++%%%%%%%%%%%%",
"%%%%%%%%%%%%%%%%%%%%%%%%%%%%%%++++++%%%%%%%%%%%%",
"%%%%%%%%%%%%%%%%%%%%%%%%%%%%%%++++++%%%%%%%%%%%%",
"%%%%%%%%%%%%%%%%%%%%%%%%%%%%%+++++++%%%%%%%%%%%%",
"%%%%%%%%%%%%%%%%%%%%%%%%%%%%%+++++++%%%%%%%%%%%%",
"%%%%%%%%%%%%%%%%%%%%%%%%%%%%+++++++%%%%%%%%%%%%%",
"%%%%%%%%%%%%%%%%%%%%%%%%%%%++++++++%%%%%%%%%%%%%",
"%%%%%%%%%%%%%%%%%%%%%%%%%%%+++++++#%%%%%%%%%%%%%",
"%%%%%%%%%%%%%%%%%%%%%%%%%%++++++++%%%%%%%%%%%%%%",
"%%%%%%%%%%%%%%%%%%%%%%%%%++++++++%%%%%%%%%%%%%%%",
"%%%%%%%%%%%%%%%%%%%%%%%%+++++++++%%%%%%%%%%%%%%%",
"%%%%%%%%%%%%%%%%%%%%%%%+++++++++%%%%%%%%%%%%%%%%",
"%%%%%%%%%%%%%%%%%%%%%%+++++++++%%%%%%%%%%%%%%%%%",
"%%%%%%%%%%%%%%%%%%%%%+++++++++%%%%%%%%%%%%%%%%%%",
"%%%%%%%%%%%%%%%%%%%%%++++++++%%%%%%%%%%%%%%%%%%%",
"%%%%%%%%%%%%%%%%%%%%++++++++%%%%%%%%%%%%%%%%%%%%",
"%%%%%%%%%%%%%%%%%%%$+++++++%%%%%%%%%%%%%%%%%%%%%",
"%%%%%%%%%%%%%%%%%%%+++++++%%%%%%%%%%%%%%%%%%%%%%",
"%%%%%%%%%%%%%%%%%%+++++++X%%%%%%%%%%%%%%%%%%%%%%",
"%%%%%%%%%%%%%%%%%%+++++++%%%%%%%%%%%%%%%%%%%%%%%",
"%%%%%%%%%%%%%%%%%+++++++%%%%%%%%%%%%%%%%%%%%%%%%",
"%%%%%%%%%%%%%%%% +++++++.%%%%%%%%%%%%%%%%%%%%%%%",
"%%%%%%%%%%%%%%%++++++++++++++++@%%%%%%%%%%%%%%%%",
"%%%%%%%%%%%%%%%++++++++++++++++++++%%%%%%%%%%%%%",
"%%%%%%%%%%%%%%%++++++++++++++++++++%%%%%%%%%%%%%",
"%%%%%%%%%%%%%%%++++++++++++++++++++%%%%%%%%%%%%%",
"%%%%%%%%%%%%%%++++++++++++++++++++O%%%%%%%%%%%%%",
"%%%%%%%%%%%%%%%+++++++++++++++++++%%%%%%%%%%%%%%",
"%%%%%%%%%%%%%%%%%++O%%%%%%%%%%%%%o%%%%%%%%%%%%%%",
"%%%%%%%%%%%%%%%%%%%%%%%%%%%%%%%%%%%%%%%%%%%%%%%%",
"%%%%%%%%%%%%%%%%%%%%%%%%%%%%%%%%%%%%%%%%%%%%%%%%",
"%%%%%%%%%%%%%%%%%%%%%%%%%%%%%%%%%%%%%%%%%%%%%%%%",
"%%%%%%%%%%%%%%%%%%%%%%%%%%%%%%%%%%%%%%%%%%%%%%%%",
"%%%%%%%%%%%%%%%%%%%%%%%%%%%%%%%%%%%%%%%%%%%%%%%%",
"%%%%%%%%%%%%%%%%%%%%%%%%%%%%%%%%%%%%%%%%%%%%%%%%",
"%%%%%%%%%%%%%%%%%%%%%%%%%%%%%%%%%%%%%%%%%%%%%%%%",
"%%%%%%%%%%%%%%%%%%%%%%%%%%%%%%%%%%%%%%%%%%%%%%%%",
"%%%%%%%%%%%%%%%%%%%%%%%%%%%%%%%%%%%%%%%%%%%%%%%%"
};
