/* XPM */
static char *result[] = {
/* columns rows colors chars-per-pixel */
"48 64 11 1 ",
"  c #B7DAE5",
". c #B6DBE5",
"X c #B7DBE5",
"o c #B7DAE6",
"O c #B6DBE6",
"+ c #B7DBE6",
"@ c #B7DAE7",
"# c #B7DCE6",
"$ c #B8DBE5",
"% c #B8DBE7",
"& c None",
/* pixels */
"&&&&&&&&&&&&&&&&&&&&&&&&&&&&&&&&&&&&&&&&&&&&&&&&",
"&&&&&&&&&&&&&&&&&&&&&&&&&&&&&&&&&&&&&&&&&&&&&&&&",
"&&&&&&&&&&&&&&&&&&&&&&&&&&&&&&&&&&&&&&&&&&&&&&&&",
"&&&&&&&&&&&&&&&&&&&&&&&&&&&&&&&&&&&&&&&&&&&&&&&&",
"&&&&&&&&&&&&&&&&&&&&&&&&&&&&&&&&&&&&&&&&&&&&&&&&",
"&&&&&&&&&&&&&&&&&&&&&&&&&&&&&&&&&&&&&&&&&&&&&&&&",
"&&&&&&&&&&&&&&&&&&&&&&&&&&&&&&&&&&&&&&&&&&&&&&&&",
"&&&&&&&&&&&&&&&&&&&&&&&&&&&&&&&&&&&&&&&&&&&&&&&&",
"&&&&&&&&&&&&&&&&&&&&&&&&&&&&&&&&&&&&&&&&&&&&&&&&",
"&&&&&&&&&&&&&&&&&&&&&&&&&&&&&&&&&&&&&&&&&&&&&&&&",
"&&&&&&&&&&&&&&&&&&&&&&&&&&&&&&&&&&&&&&&&&&&&&&&&",
"&&&&&&&&&&&&&&&&&&&&&&&&&&&&&&&&&&&&&&&&&&&&&&&&",
"&&&&&&&&&&&&&&&&&&&&&&&&&&&&&&&&&&&&&&&&&&&&&&&&",
"&&&&&&&&&&&&&&&&&&&&&&&&&&&&&&&&&&&&&&&&&&&&&&&&",
"&&&&&&&&&&&&&&&&&&&OO+++X+X+&&&&&&&&&&&&&&&&&&&&",
"&&&&&&&&&&&&&&&&o++++++++++++o&&&&&&&&&&&&&&&&&&",
"&&&&&&&&&&&&&&+++++++++++++++++&&&&&&&&&&&&&&&&&",
"&&&&&&&&&&&&&+++++++++++++++++++O&&&&&&&&&&&&&&&",
"&&&&&&&&&&&&&++++++++++++++++++++#&&&&&&&&&&&&&&",
"&&&&&&&&&&&&&&++++++++O+X+++++++++&&&&&&&&&&&&&&",
"&&&&&&&&&&&&&&&++++&&&&&&&+++++++++&&&&&&&&&&&&&",
"&&&&&&&&&&&&&&&&+&&&&&&&&&&&+++++++&&&&&&&&&&&&&",
"&&&&&&&&&&&&&&&&&&&&&&&&&&&&&++++++X&&&&&&&&&&&&",
"&&&&&&&&&&&&&&&&&&&&&&&&&&&&&+++++++&&&&&&&&&&&&",
"&&&&&&&&&&&&&&&&&&&&&&&&&&&&&&++++++&&&&&&&&&&&&",
"&&&&&&&&&&&&&&&&&&&&&&&&&&&&&.+++++%&&&&&&&&&&&&",
"&&&&&&&&&&&&&&&&&&&&&&&&&&&&&++++++&&&&&&&&&&&&&",
"&&&&&&&&&&&&&&&&&&&&&&&&&&&&&++++++&&&&&&&&&&&&&",
"&&&&&&&&&&&&&&&&&&&&&&&&&&&&++++++X&&&&&&&&&&&&&",
"&&&&&&&&&&&&&&&&&&&&&&&&&&&O++++++&&&&&&&&&&&&&&",
"&&&&&&&&&&&&&&&&&&&&&&&&&&++++++++&&&&&&&&&&&&&&",
"&&&&&&&&&&&&&&&&&&& o#+++++++++++&&&&&&&&&&&&&&&",
"&&&&&&&&&&&&&&&&&++++++++++++++O&&&&&&&&&&&&&&&&",
"&&&&&&&&&&&&&&&&&++++++++++++++&&&&&&&&&&&&&&&&&",
"&&&&&&&&&&&&&&&&&++++++++++++++o&&&&&&&&&&&&&&&&",
"&&&&&&&&&&&&&&&&&X+++++++++++++++&&&&&&&&&&&&&&&",
"&&&&&&&&&&&&&&&&&+++o++++++++++++.&&&&&&&&&&&&&&",
"&&&&&&&&&&&&&&&&&&&&&&+O&X++++++++&&&&&&&&&&&&&&",
"&&&&&&&&&&&&&&&&&&&&&&&&&&&++++++++&&&&&&&&&&&&&",
"&&&&&&&&&&&&&&&&&&&&&&&&&&&&+++++++&&&&&&&&&&&&&",
"&&&&&&&&&&&&&&&&&&&&&&&&&&&&&++++++&&&&&&&&&&&&&",
"&&&&&&&&&&&&&&&&&&&&&&&&&&&&&X+++++&&&&&&&&&&&&&",
"&&&&&&&&&&&&&&&&&&&&&&&&&&&&&.+++++&&&&&&&&&&&&&",
"&&&&&&&&&&&&&&&&&&&&&&&&&&&&&X+++++&&&&&&&&&&&&&",
"&&&&&&&&&&&&&&&&&&&&&&&&&&&&&++++++&&&&&&&&&&&&&",
"&&&&&&&&&&&&&&&&&&&&&&&&&&&&$++++++&&&&&&&&&&&&&",
"&&&&&&&&&&&&&&&&&&&&&&&&&&&&++++++#&&&&&&&&&&&&&",
"&&&&&&&&&&&&&&&&&&&&&&&&&&&+++++++&&&&&&&&&&&&&&",
"&&&&&&&&&&&&&&&&&&&&&&&&&+++++++++&&&&&&&&&&&&&&",
"&&&&&&&&&&&&&&&&&&&&&@+o+++++++++&&&&&&&&&&&&&&&",
"&&&&&&&&&&&&&&&&+++o+X++++++++++&&&&&&&&&&&&&&&&",
"&&&&&&&&&&&&&&&&ooo+++++++++++O&&&&&&&&&&&&&&&&&",
"&&&&&&&&&&&&&&&&oo++++++++++++&&&&&&&&&&&&&&&&&&",
"&&&&&&&&&&&&&&&X++++++++++oo&&&&&&&&&&&&&&&&&&&&",
"&&&&&&&&&&&&&&&o+o+o++Oo@&&&&&&&&&&&&&&&&&&&&&&&",
"&&&&&&&&&&&&&&&&&&&&&&&&&&&&&&&&&&&&&&&&&&&&&&&&",
"&&&&&&&&&&&&&&&&&&&&&&&&&&&&&&&&&&&&&&&&&&&&&&&&",
"&&&&&&&&&&&&&&&&&&&&&&&&&&&&&&&&&&&&&&&&&&&&&&&&",
"&&&&&&&&&&&&&&&&&&&&&&&&&&&&&&&&&&&&&&&&&&&&&&&&",
"&&&&&&&&&&&&&&&&&&&&&&&&&&&&&&&&&&&&&&&&&&&&&&&&",
"&&&&&&&&&&&&&&&&&&&&&&&&&&&&&&&&&&&&&&&&&&&&&&&&",
"&&&&&&&&&&&&&&&&&&&&&&&&&&&&&&&&&&&&&&&&&&&&&&&&",
"&&&&&&&&&&&&&&&&&&&&&&&&&&&&&&&&&&&&&&&&&&&&&&&&",
"&&&&&&&&&&&&&&&&&&&&&&&&&&&&&&&&&&&&&&&&&&&&&&&&"
};
