/* XPM */
static char *result[] = {
/* columns rows colors chars-per-pixel */
"48 64 11 1 ",
"  c #D92121",
". c #D92121",
"X c #D92121",
"o c #D92121",
"O c #D92121",
"+ c #D92121",
"@ c #D92121",
"# c #D92121",
"$ c #D92121",
"% c #D92121",
"& c None",
/* pixels */
"&&&&&&&&&&&&&&&&&&&&&&&&&&&&&&&&&&&&&&&&&&&&&&&&",
"&&&&&&&&&&&&&&&&&&&&&&&&&&&&&&&&&&&&&&&&&&&&&&&&",
"&&&&&&&&&&&&&&&&&&&&&&&&&&&&&&&&&&&&&&&&&&&&&&&&",
"&&&&&&&&&&&&&&&&&&&&&&&&&&&&&&&&&&&&&&&&&&&&&&&&",
"&&&&&&&&&&&&&&&&&&&&&&&&&&&&&&&&&&&&&&&&&&&&&&&&",
"&&&&&&&&&&&&&&&&&&&&&&&&&&&&&&&&&&&&&&&&&&&&&&&&",
"&&&&&&&&&&&&&&&&&&&&&&&&&&&&&&&&&&&&&&&&&&&&&&&&",
"&&&&&&&&&&&&&&&&&&&&&&&&&&&&&&&&&&&&&&&&&&&&&&&&",
"&&&&&&&&&&&&&&&&&&&&&&&&&&&+&&&&&&&&&&&&&&&&&&&&",
"&&&&&&&&&&&&&&&&&&&&&&&&&&X++&&&&&&&&&&&&&&&&&&&",
"&&&&&&&&&&&&&&&&&&&&&&&&&@++++&&&&&&&&&&&&&&&&&&",
"&&&&&&&&&&&&&&&&&&&&&&&&&++++++&&&&&&&&&&&&&&&&&",
"&&&&&&&&&&&&&&&&&&&&&&&&o+++++$&&&&&&&&&&&&&&&&&",
"&&&&&&&&&&&&&&&&&&&&&&&o++++++&&&&&&&&&&&&&&&&&&",
"&&&&&&&&&&&&&&&&&&&&&&&++++++&&&&&&&&&&&&&&&&&&&",
"&&&&&&&&&&&&&&&&&&&&&&o++++++&&&&&&&&&&&&&&&&&&&",
"&&&&&&&&&&&&&&&&&&&&&+++++++&&&&&&&&&&&&&&&&&&&&",
"&&&&&&&&&&&&&&&&&&&&&++++++o&&&&&&&&&&&&&&&&&&&&",
"&&&&&&&&&&&&&&&&&&&&+++++++&&&&&&&&&&&&&&&&&&&&&",
"&&&&&&&&&&&&&&&&&&&O++++++&&&&&&&&&&&&&&&&&&&&&&",
"&&&&&&&&&&&&&&&&&&&+++++++&&&&&&&&&&&&&&&&&&&&&&",
"&&&&&&&&&&&&&&&&&&+++++++&&&&&&&&&&&&&&&&&&&&&&&",
"&&&&&&&&&&&&&&&&&+++++++O&&&&&&&&&&&&&&&&&&&&&&&",
"&&&&&&&&&&&&&&&&$+++++++&&&&&&&&&&&&&&&&&&&&&&&&",
"&&&&&&&&&&&&&&&&+++++++ &&&&&&&&&&&&&&&&&&&&&&&&",
"&&&&&&&&&&&&&&&++++++++&&&&&&&&&&&&&&&&&&&&&&&&&",
"&&&&&&&&&&&&&&$+++++++&&&&&&+++++&&&&&&&&&&&&&&&",
"&&&&&&&&&&&&&&+++++++@&&&&&&X++++X&&&&&&&&&&&&&&",
"&&&&&&&&&&&&&+++++++.&&&&&&&+++++&&&&&&&&&&&&&&&",
"&&&&&&&&&&&&&+++++++o######o++++++o++&&&&&&&&&&&",
"&&&&&&&&&&&&++++++++++++++++++++++++%&&&&&&&&&&&",
"&&&&&&&&&&&o+++++++++++++++++++++++oo&&&&&&&&&&&",
"&&&&&&&&&&&++++++++++++++++++++++++X+&&&&&&&&&&&",
"&&&&&&&&&&&&++++++++++++++++++++++++O&&&&&&&&&&&",
"&&&&&&&&&&&&&o++ooX++++++++++++++O&&&&&&&&&&&&&&",
"&&&&&&&&&&&&&&o&&&&&&&&&&&&++++++&&&&&&&&&&&&&&&",
"&&&&&&&&&&&&&&&&&&&&&&&&&&&++++++&&&&&&&&&&&&&&&",
"&&&&&&&&&&&&&&&&&&&&&&&&&&&++++++&&&&&&&&&&&&&&&",
"&&&&&&&&&&&&&&&&&&&&&&&&&&&o+++++&&&&&&&&&&&&&&&",
"&&&&&&&&&&&&&&&&&&&&&&&&&&&X++++o&&&&&&&&&&&&&&&",
"&&&&&&&&&&&&&&&&&&&&&&&&&&&++++++&&&&&&&&&&&&&&&",
"&&&&&&&&&&&&&&&&&&&&&&&&&&&++++++&&&&&&&&&&&&&&&",
"&&&&&&&&&&&&&&&&&&&&&&&&&&&++++++&&&&&&&&&&&&&&&",
"&&&&&&&&&&&&&&&&&&&&&&&&&&&++++++&&&&&&&&&&&&&&&",
"&&&&&&&&&&&&&&&&&&&&&&&&&&&++++++&&&&&&&&&&&&&&&",
"&&&&&&&&&&&&&&&&&&&&&&&&&&&+++++ &&&&&&&&&&&&&&&",
"&&&&&&&&&&&&&&&&&&&&&&&&&&&+++++&&&&&&&&&&&&&&&&",
"&&&&&&&&&&&&&&&&&&&&&&&&&&&+++++&&&&&&&&&&&&&&&&",
"&&&&&&&&&&&&&&&&&&&&&&&&&&&+++++&&&&&&&&&&&&&&&&",
"&&&&&&&&&&&&&&&&&&&&&&&&&&&+++++&&&&&&&&&&&&&&&&",
"&&&&&&&&&&&&&&&&&&&&&&&&&&&+++++&&&&&&&&&&&&&&&&",
"&&&&&&&&&&&&&&&&&&&&&&&&&&&+o+oo&&&&&&&&&&&&&&&&",
"&&&&&&&&&&&&&&&&&&&&&&&&&&& ++++&&&&&&&&&&&&&&&&",
"&&&&&&&&&&&&&&&&&&&&&&&&&&&X+o++ &&&&&&&&&&&&&&&",
"&&&&&&&&&&&&&&&&&&&&&&&&&&&XoX.+&&&&&&&&&&&&&&&&",
"&&&&&&&&&&&&&&&&&&&&&&&&&&&&&&&&&&&&&&&&&&&&&&&&",
"&&&&&&&&&&&&&&&&&&&&&&&&&&&&&&&&&&&&&&&&&&&&&&&&",
"&&&&&&&&&&&&&&&&&&&&&&&&&&&&&&&&&&&&&&&&&&&&&&&&",
"&&&&&&&&&&&&&&&&&&&&&&&&&&&&&&&&&&&&&&&&&&&&&&&&",
"&&&&&&&&&&&&&&&&&&&&&&&&&&&&&&&&&&&&&&&&&&&&&&&&",
"&&&&&&&&&&&&&&&&&&&&&&&&&&&&&&&&&&&&&&&&&&&&&&&&",
"&&&&&&&&&&&&&&&&&&&&&&&&&&&&&&&&&&&&&&&&&&&&&&&&",
"&&&&&&&&&&&&&&&&&&&&&&&&&&&&&&&&&&&&&&&&&&&&&&&&",
"&&&&&&&&&&&&&&&&&&&&&&&&&&&&&&&&&&&&&&&&&&&&&&&&"
};
