/* XPM */
static char *result[] = {
/* columns rows colors chars-per-pixel */
"48 64 14 1 ",
"  c #D92121",
". c #D92121",
"X c #D92121",
"o c #D92121",
"O c #D92121",
"+ c #D92121",
"@ c #D92121",
"# c #D92121",
"$ c #D92121",
"% c #D92121",
"& c #D92121",
"* c #D92121",
"= c #D92121",
"- c None",
/* pixels */
"------------------------------------------------",
"------------------------------------------------",
"------------------------------------------------",
"------------------------------------------------",
"------------------------------------------------",
"------------------------------------------------",
"------------------------------------------------",
"------------------------------------------------",
"------------------------------------------------",
"------------------------------------------------",
"------------------------------------------------",
"------------------------------------------------",
"------------------------------------------------",
"------------------------------------------------",
"-----------------o#++##+%+O+$-------------------",
"-------------++++++++++++++++++++---------------",
"------------+++++++++++++++++++++---------------",
"------------+++++++++++++++++++++---------------",
"------------+++++++++++++++++++++---------------",
"------------+++++++++++++++++++++---------------",
"------------++++++------------------------------",
"------------++++++------------------------------",
"------------+++++X------------------------------",
"------------++++++------------------------------",
"------------++++++------------------------------",
"------------=+++++------------------------------",
"------------&+++++@--$OoX-----------------------",
"-------------+++++++++++++++%-------------------",
"-------------++++++++++++++++++-----------------",
"-------------+++++++++++++++++++----------------",
"-------------++++++++++++++++++++---------------",
"-------------+++++++++++++++++++++--------------",
"--------------+++++ -----o+++++++++-------------",
"--------------++++++-------o+++++++.------------",
"--------------o+++++---------+++++++------------",
"--------------X+++++---------++++++++-----------",
"---------------+++++----------+++++++-----------",
"---------------++o-------------++++++-----------",
"-------------------------------++++++-----------",
"-------------------------------O+++++-----------",
"-------------------------------o+++++-----------",
"-------------------------------++++++-----------",
"-------------------------------X+++++-----------",
"-------------------------------++++++-----------",
"------------------------------+++++++-----------",
"------------------------------++++++------------",
"-----------------------------+++++++------------",
"---------------------------$+++++++-------------",
"--------------------------++++++++O-------------",
"----------------------*%++++++++++--------------",
"--------------++o+o++++++++++++++---------------",
"--------------++++++X+++++++++++----------------",
"--------------+O+++o++++++++++$-----------------",
"-------------@++++XX++++++++--------------------",
"-------------@o+o++++o+++ o---------------------",
"------------------------------------------------",
"------------------------------------------------",
"------------------------------------------------",
"------------------------------------------------",
"------------------------------------------------",
"------------------------------------------------",
"------------------------------------------------",
"------------------------------------------------",
"------------------------------------------------"
};
