/* XPM */
static char *result[] = {
/* columns rows colors chars-per-pixel */
"40 99 14 1 ",
"  c #D92121",
". c #D92121",
"X c #D92121",
"o c #D92121",
"O c #D92121",
"+ c #D92121",
"@ c #D92121",
"# c #D92121",
"$ c #D92121",
"% c #D92121",
"& c #D92121",
"* c #D92121",
"= c #D92121",
"- c None",
/* pixels */
"----------------------------------------",
"----------------------------------------",
"----------------------------------------",
"----------------------------------------",
"----------------------------------------",
"----------------------------------------",
"----------------------------------------",
"----------------------------------------",
"----------------------------------------",
"----------------------------------------",
"----------------------------------------",
"----------------------------------------",
"----------------------------------------",
"----------------------------------------",
"----------------------------------------",
"----------------------------------------",
"----------------------------------------",
"----------------------------------------",
"----------------------------------------",
"----------------------------------------",
"----------------------------------------",
"----------------------------------------",
"-----------------------XO---------------",
"----------------------++++--------------",
"---------------------++++++-------------",
"--------------------+++++++-------------",
"-------------------+++++++--------------",
"------------------+++++++%--------------",
"-----------------+++++++&---------------",
"----------------+++++++O----------------",
"---------------+++++++.-----------------",
"--------------+++++++%------------------",
"-------------#+++++++-------------------",
"-------------++++++O--------------------",
"------------+++++++---------------------",
"-----------O++++++----------------------",
"----------$+++++++----------------------",
"----------+++++++-----------------------",
"---------#++++++++++X++++ --------------",
"---------++++++++++++++++++o------------",
"--------@+++++++++++X++X+++++$----------",
"--------++++++++++++++++++++++o---------",
"--------+++++++++++++XX++++++++X--------",
"-------*++++++++++------o+++++++--------",
"-------O++++++++----------++++++O-------",
"-------++++++++------------++++++-------",
"-------++++++XO------------o++++++------",
"-------+++++X---------------+++++O------",
"-------++++++---------------.+++++------",
"-------++++++---------------.+++++------",
"-------++++++----------------+++++------",
"-------++++++----------------+++++------",
"-------++++++---------------o+++++------",
"-------++++++&--------------++++++------",
"-------+++++++-------------++++++O------",
"--------++++++o------------++++++@------",
"--------+++++++---------- +++++++-------",
"--------O+++++++$-------++++++++#-------",
"---------o++++++++---- +++++++++--------",
"----------+++++++++++++++++++++---------",
"----------=+++++++++++++++++++----------",
"-----------$++++++++++++++++X-----------",
"-------------+++++++++++++++------------",
"--------------+++++++++++o--------------",
"-----------------%X++++X----------------",
"----------------------------------------",
"----------------------------------------",
"----------------------------------------",
"----------------------------------------",
"----------------------------------------",
"----------------------------------------",
"----------------------------------------",
"----------------------------------------",
"----------------------------------------",
"----------------------------------------",
"----------------------------------------",
"----------------------------------------",
"----------------------------------------",
"----------------------------------------",
"----------------------------------------",
"----------------------------------------",
"----------------------------------------",
"----------------------------------------",
"----------------------------------------",
"----------------------------------------",
"----------------------------------------",
"----------------------------------------",
"----------------------------------------",
"----------------------------------------",
"----------------------------------------",
"----------------------------------------",
"----------------------------------------",
"----------------------------------------",
"----------------------------------------",
"----------------------------------------",
"----------------------------------------",
"----------------------------------------",
"----------------------------------------",
"----------------------------------------"
};
