/* XPM */
static char *result[] = {
/* columns rows colors chars-per-pixel */
"40 99 14 1 ",
"  c #B7DAE5",
". c #B6DBE5",
"X c #B7DBE5",
"o c #B7DAE6",
"O c #B6DBE6",
"+ c #B7DBE6",
"@ c #B7DAE7",
"# c #B7DBE7",
"$ c #B6DCE6",
"% c #B7DCE6",
"& c #B8DBE5",
"* c #B8DAE6",
"= c #B8DBE6",
"- c None",
/* pixels */
"----------------------------------------",
"----------------------------------------",
"----------------------------------------",
"----------------------------------------",
"----------------------------------------",
"----------------------------------------",
"----------------------------------------",
"----------------------------------------",
"----------------------------------------",
"----------------------------------------",
"----------------------------------------",
"----------------------------------------",
"----------------------------------------",
"----------------------------------------",
"----------------------------------------",
"----------------------------------------",
"----------------------------------------",
"----------------------------------------",
"----------------------------------------",
"----------------------------------------",
"----------------------------------------",
"----------------+ O++=@#XO&++++++-------",
"------+++++++++++++++++++++++++++-------",
"------+++++++++++++++++++++++++X+-------",
"------+++++++++++++++++++++++++++-------",
"------+++++++++++++++++++++++++++-------",
"------X++++++++++++++++++++++++---------",
"--------------$ %@$O*----+++++X---------",
"------------------------++++++----------",
"------------------------++++++----------",
"-----------------------++++++ ----------",
"-----------------------++++++-----------",
"----------------------++++++.-----------",
"----------------------++++++------------",
"---------------------o++++++------------",
"---------------------++++++-------------",
"--------------------++++++o-------------",
"--------------------++++++$-------------",
"------------------- ++++++--------------",
"-------------------++++++X--------------",
"------------------+++++++---------------",
"------------------++++++=---------------",
"-----------------X++++++----------------",
"-----------------O++++++----------------",
"-----------------++++++-----------------",
"----------------o++++++-----------------",
"----------------++++++$-----------------",
"---------------O++++++------------------",
"---------------++++++=------------------",
"---------------++++++-------------------",
"--------------++++++ -------------------",
"--------------++++++--------------------",
"-------------O++++++--------------------",
"-------------++++++---------------------",
"-------------+++++X---------------------",
"------------o++++++---------------------",
"------------++++++----------------------",
"------------++++++----------------------",
"-----------o+++++-----------------------",
"-----------+++++=-----------------------",
"----------$+++++------------------------",
"----------O+++++------------------------",
"----------+++++X------------------------",
"---------$+++++-------------------------",
"---------++++++-------------------------",
"---------++++X--------------------------",
"---------+++o+--------------------------",
"-----------o+.--------------------------",
"----------------------------------------",
"----------------------------------------",
"----------------------------------------",
"----------------------------------------",
"----------------------------------------",
"----------------------------------------",
"----------------------------------------",
"----------------------------------------",
"----------------------------------------",
"----------------------------------------",
"----------------------------------------",
"----------------------------------------",
"----------------------------------------",
"----------------------------------------",
"----------------------------------------",
"----------------------------------------",
"----------------------------------------",
"----------------------------------------",
"----------------------------------------",
"----------------------------------------",
"----------------------------------------",
"----------------------------------------",
"----------------------------------------",
"----------------------------------------",
"----------------------------------------",
"----------------------------------------",
"----------------------------------------",
"----------------------------------------",
"----------------------------------------",
"----------------------------------------",
"----------------------------------------"
};
