/* XPM */
static char *result[] = {
/* columns rows colors chars-per-pixel */
"40 99 15 1 ",
"  c #D92121",
". c #D92121",
"X c #D92121",
"o c #D92121",
"O c #D92121",
"+ c #D92121",
"@ c #D92121",
"# c #D92121",
"$ c #D92121",
"% c #D92121",
"& c #D92121",
"* c #D92121",
"= c #D92121",
"- c #D92121",
"; c None",
/* pixels */
";;;;;;;;;;;;;;;;;;;;;;;;;;;;;;;;;;;;;;;;",
";;;;;;;;;;;;;;;;;;;;;;;;;;;;;;;;;;;;;;;;",
";;;;;;;;;;;;;;;;;;;;;;;;;;;;;;;;;;;;;;;;",
";;;;;;;;;;;;;;;;;;;;;;;;;;;;;;;;;;;;;;;;",
";;;;;;;;;;;;;;;;;;;;;;;;;;;;;;;;;;;;;;;;",
";;;;;;;;;;;;;;;;;;;;;;;;;;;;;;;;;;;;;;;;",
";;;;;;;;;;;;;;;;;;;;;;;;;;;;;;;;;;;;;;;;",
";;;;;;;;;;;;;;;;;;;;;;;;;;;;;;;;;;;;;;;;",
";;;;;;;;;;;;;;;;;;;;;;;;;;;;;;;;;;;;;;;;",
";;;;;;;;;;;;;;;;;;;;;;;;;;;;;;;;;;;;;;;;",
";;;;;;;;;;;;;;;;;;;;;;;;;;;;;;;;;;;;;;;;",
";;;;;;;;;;;;;;;;;;;;;;;;;;;;;;;;;;;;;;;;",
";;;;;;;;;;;;;;;;;;;;;;;;;;;;;;;;;;;;;;;;",
";;;;;;;;;;;;;;;;;;;;;;;;;;;;;;;;;;;;;;;;",
";;;;;;;;;;;;;;;;;;;;;;;;;;;;;;;;;;;;;;;;",
";;;;;;;;;;;;;;;;;;;;;;;;;;;;;;;;;;;;;;;;",
";;;;;;;;;;;;;;;;;;;;;;;;;;;;;;;;;;;;;;;;",
";;;;;;;;;;;;;;;;;;;;;;;;;;;;;;;;;;;;;;;;",
";;;;;;;;;;;;;;;;;;;;;;;;;;;;;;;;;;;;;;;;",
";;;;;;;;;;;;;;;;;;;;;;;;;;;;;;;;;;;;;;;;",
";;;;;;;;;;;;;;;;;;;;;;;;;;;;;;;;;;;;;;;;",
";;;;;;;;;;;;;;;;;;;;;;;;;;;;;;;;;;;;;;;;",
";;;;;;;;;;;;;;;;;;;;;;;;;;;;;;;;;;;;;;;;",
";;;;;;;;;;;;;;;;;;;;;;;;;;;;;;;;;;;;;;;;",
";;;;;;;;;;;;;;;;;-+.+-;;;;;;;;;;;;;;;;;;",
";;;;;;;;;;;;;;o++++++++X&;;;;;;;;;;;;;;;",
";;;;;;;;;;;;+++++++++++++++;;;;;;;;;;;;;",
";;;;;;;;;;;X++++++++++++++++;;;;;;;;;;;;",
";;;;;;;;;;X+++++++++++++++++X;;;;;;;;;;;",
";;;;;;;;;;+++++++++++++++++++;;;;;;;;;;;",
";;;;;;;;;O+++++++&;;Xo++++++++;;;;;;;;;;",
";;;;;;;;;++++++.;;;;;;;+++++++;;;;;;;;;;",
";;;;;;;;;++++++;;;;;;;;;++++++@;;;;;;;;;",
";;;;;;;;;+++++.;;;;;;;;;;+++++o;;;;;;;;;",
";;;;;;;;;++++++;;;;;;;;;;+++++O;;;;;;;;;",
";;;;;;;;;+++++++;;;;;;;;;+++++=;;;;;;;;;",
";;;;;;;;;;+++++++O;;;;;;=++++++;;;;;;;;;",
";;;;;;;;;;-+++++++oo++++++++++;;;;;;;;;;",
";;;;;;;;;;;o++++++++++++++++++;;;;;;;;;;",
";;;;;;;;;;;++++++++++++++++++;;;;;;;;;;;",
";;;;;;;;;+++++++++++++++++++++;;;;;;;;;;",
";;;;;;;;++++++++o+++++++++++++++;;;;;;;;",
";;;;;;;;++++++++;$++X+++++++++++;;;;;;;;",
";;;;;;;++++++++;;;X+%;;;*o+++++++;;;;;;;",
";;;;;;X++++++;;;;;;;;;;;;;;+++++++;;;;;;",
";;;;;;++++++;;;;;;;;;;;;;;;;++++++;;;;;;",
";;;;;++++++ ;;;;;;;;;;;;;;;;.+++++ ;;;;;",
";;;;;++++++;;;;;;;;;;;;;;;;;;++++++;;;;;",
";;;;;+++++o;;;;;;;;;;;;;;;;;;o++++O;;;;;",
";;;;;+++++o;;;;;;;;;;;;;;;;;;++++++;;;;;",
";;;;;+++++%;;;;;;;;;;;;;;;;;;X+++++;;;;;",
";;;;;++++++;;;;;;;;;;;;;;;;;;++++++;;;;;",
";;;;;+++++X;;;;;;;;;;;;;;;;;;o+++++;;;;;",
";;;;;++++++;;;;;;;;;;;;;;;;;;++++++;;;;;",
";;;;;X++++++;;;;;;;;;;;;;;;;X+++++o;;;;;",
";;;;;;++++++@;;;;;;;;;;;;;; ++++++;;;;;;",
";;;;;;+++++++X;;;;;;;;;;;;@+++++++;;;;;;",
";;;;;;;+++++++o;;;;;;;;;;#+++++++;;;;;;;",
";;;;;;;++++++++++$;;;;Xo++++++++O;;;;;;;",
";;;;;;;;+++++++++++++++++++++++X;;;;;;;;",
";;;;;;;;;+++++++++++++++++++++X;;;;;;;;;",
";;;;;;;;;;++++++++++++++++++++;;;;;;;;;;",
";;;;;;;;;;;X++++++++++++++++ ;;;;;;;;;;;",
";;;;;;;;;;;;;&+++++++++++++;;;;;;;;;;;;;",
";;;;;;;;;;;;;;;;+.+++oO=;;;;;;;;;;;;;;;;",
";;;;;;;;;;;;;;;;;;;;;;;;;;;;;;;;;;;;;;;;",
";;;;;;;;;;;;;;;;;;;;;;;;;;;;;;;;;;;;;;;;",
";;;;;;;;;;;;;;;;;;;;;;;;;;;;;;;;;;;;;;;;",
";;;;;;;;;;;;;;;;;;;;;;;;;;;;;;;;;;;;;;;;",
";;;;;;;;;;;;;;;;;;;;;;;;;;;;;;;;;;;;;;;;",
";;;;;;;;;;;;;;;;;;;;;;;;;;;;;;;;;;;;;;;;",
";;;;;;;;;;;;;;;;;;;;;;;;;;;;;;;;;;;;;;;;",
";;;;;;;;;;;;;;;;;;;;;;;;;;;;;;;;;;;;;;;;",
";;;;;;;;;;;;;;;;;;;;;;;;;;;;;;;;;;;;;;;;",
";;;;;;;;;;;;;;;;;;;;;;;;;;;;;;;;;;;;;;;;",
";;;;;;;;;;;;;;;;;;;;;;;;;;;;;;;;;;;;;;;;",
";;;;;;;;;;;;;;;;;;;;;;;;;;;;;;;;;;;;;;;;",
";;;;;;;;;;;;;;;;;;;;;;;;;;;;;;;;;;;;;;;;",
";;;;;;;;;;;;;;;;;;;;;;;;;;;;;;;;;;;;;;;;",
";;;;;;;;;;;;;;;;;;;;;;;;;;;;;;;;;;;;;;;;",
";;;;;;;;;;;;;;;;;;;;;;;;;;;;;;;;;;;;;;;;",
";;;;;;;;;;;;;;;;;;;;;;;;;;;;;;;;;;;;;;;;",
";;;;;;;;;;;;;;;;;;;;;;;;;;;;;;;;;;;;;;;;",
";;;;;;;;;;;;;;;;;;;;;;;;;;;;;;;;;;;;;;;;",
";;;;;;;;;;;;;;;;;;;;;;;;;;;;;;;;;;;;;;;;",
";;;;;;;;;;;;;;;;;;;;;;;;;;;;;;;;;;;;;;;;",
";;;;;;;;;;;;;;;;;;;;;;;;;;;;;;;;;;;;;;;;",
";;;;;;;;;;;;;;;;;;;;;;;;;;;;;;;;;;;;;;;;",
";;;;;;;;;;;;;;;;;;;;;;;;;;;;;;;;;;;;;;;;",
";;;;;;;;;;;;;;;;;;;;;;;;;;;;;;;;;;;;;;;;",
";;;;;;;;;;;;;;;;;;;;;;;;;;;;;;;;;;;;;;;;",
";;;;;;;;;;;;;;;;;;;;;;;;;;;;;;;;;;;;;;;;",
";;;;;;;;;;;;;;;;;;;;;;;;;;;;;;;;;;;;;;;;",
";;;;;;;;;;;;;;;;;;;;;;;;;;;;;;;;;;;;;;;;",
";;;;;;;;;;;;;;;;;;;;;;;;;;;;;;;;;;;;;;;;",
";;;;;;;;;;;;;;;;;;;;;;;;;;;;;;;;;;;;;;;;",
";;;;;;;;;;;;;;;;;;;;;;;;;;;;;;;;;;;;;;;;",
";;;;;;;;;;;;;;;;;;;;;;;;;;;;;;;;;;;;;;;;",
";;;;;;;;;;;;;;;;;;;;;;;;;;;;;;;;;;;;;;;;"
};
