/* XPM */
static char *result[] = {
/* columns rows colors chars-per-pixel */
"40 99 12 1 ",
"  c #D92121",
". c #D92121",
"X c #D92121",
"o c #D92121",
"O c #D92121",
"+ c #D92121",
"@ c #D92121",
"# c #D92121",
"$ c #D92121",
"% c #D92121",
"& c #D92121",
"* c None",
/* pixels */
"****************************************",
"****************************************",
"****************************************",
"****************************************",
"****************************************",
"****************************************",
"****************************************",
"****************************************",
"****************************************",
"****************************************",
"****************************************",
"****************************************",
"****************************************",
"****************************************",
"****************************************",
"****************************************",
"****************************************",
"****************************************",
"****************************************",
"****************************************",
"****************************************",
"****************************************",
"****************+++++++++***************",
"**************O+++++++++++o*************",
"************o++++++++++++++++***********",
"***********++++++++++++++++++X**********",
"**********+++++++++++++++++++++*********",
"*********O+++++++++%o++++++++++*********",
"*********++++++++&*****o++++++++********",
"********o++++++O*********+++++++X*******",
"********+++++++***********+++++++*******",
"*******X+++++O************O++++++*******",
"*******++++++**************++++++.******",
"*******++++++***************++++++******",
"*******+++++****************++++++******",
"*******+++++****************++++++******",
"*******+++++****************++++++******",
"*******+++++ ***************.+++++******",
"*******++++++***************X+++++******",
"*******++++++**************+++++++******",
"*******@++++++************++++++++******",
"********+++++++**********+++++++++******",
"********+++++++@********+++++++++*******",
"*********+++++++++****+++++++++++*******",
"**********+++++++++++++X+O++++++o*******",
"**********#+++++++++++++++++++++********",
"************O+++++++oX+++++++++X********",
"**************+++++++++++++++++&********",
"****************o@OX+++*O++++++*********",
"***********************O++++++**********",
"***********************++++++O**********",
"**********************+++++++***********",
"********************* ++++++%***********",
"********************#+++++++************",
"********************+++++++*************",
"*******************+++++++**************",
"******************+++++++X**************",
"*****************o++++++X***************",
"****************++++++++****************",
"***************O++++++o*****************",
"**************O++++++X******************",
"**************+++++++*******************",
"***************+++++********************",
"*************** ++$*********************",
"****************O **********************",
"****************************************",
"****************************************",
"****************************************",
"****************************************",
"****************************************",
"****************************************",
"****************************************",
"****************************************",
"****************************************",
"****************************************",
"****************************************",
"****************************************",
"****************************************",
"****************************************",
"****************************************",
"****************************************",
"****************************************",
"****************************************",
"****************************************",
"****************************************",
"****************************************",
"****************************************",
"****************************************",
"****************************************",
"****************************************",
"****************************************",
"****************************************",
"****************************************",
"****************************************",
"****************************************",
"****************************************",
"****************************************",
"****************************************",
"****************************************"
};
