/* XPM */
static char *result[] = {
/* columns rows colors chars-per-pixel */
"64 64 18 1 ",
"  c #B6DBE5",
". c #B7DBE5",
"X c #B6DBE6",
"o c #B7DBE6",
"O c #B7DCE5",
"+ c #B7DCE6",
"@ c #B8DCE5",
"# c #B8DDE5",
"$ c #B9DDE5",
"% c #B8DCE6",
"& c #B8DDE6",
"* c #B9DDE6",
"= c #BADEE6",
"- c #C7E0E9",
"; c #E3E6EE",
": c #F2EAF1",
"> c #EDF6F9",
", c white",
/* pixels */
"@@@@@@@@@@@@@@@@@@@@@@@.@@@@@@@@@@@@@@@@@.@@.@@@@@@@@@@@@%.@@@@@",
"@@@@@@@@@@@@@@@@@@@@@@@%@@@@@@@@@@@@@@@@@%@@%@@@@@@@@@@@@@@@@@@@",
"@@@@@@@@@@@@@@@@@@@@@@.@@@@@@@@@@@@@@@@@@@.@@.@@@@@@@@@@@..@*.@@",
"@@@@::::@@@@@@@@@@@@@@%@@@@@@@@@@@@@@@@@@@%@@%@@@@@@::@@@%%..@@@",
"@@@@:::::@@@@@@@@@@@@@@@@@@@@@@@@@@@@@@@@@@@@@@@@@@@@:@@@@.o%%.@",
"@@@@:::,:::@@@@@@@@@@@@@@@@@@@@@@@@@@@@@@@@@@@@@@@@@@@@@@@%%..%@",
"@@@@:::,:::@@@@@@@@@@@@@@@@@@@@@@@@@@@@@@@@@@@@@@@@@@@@@@@@@%%%.",
"@@@@:::,>-@@@@@%.@@@@@@@@@@@@@@@@@@@@@@@@@@@@@@@@@@@@@@@@@@@@@@%",
"@@@@@:;-@@@@@@@@@%.@@@@@@@@@@@@@@@@@@@@@@@@@@@@@@@@@@@@@@@@@@@@@",
"@@@@@@@@@@@@@@@@@@@@@@%@@@@@@@@@@@@@@@@@@@%@@%@@@@@@@@@@@@@@@@@@",
"@@@@@@@@@@@@@@@@@@@@@@.@@@@@@@@@@@@@@@@@@@.@@.@@@@@@@@@@@@@@@@@@",
"@@@.@@@@@@@@@@@@@@@@@.@%@@@@@@@@@@@@@@@@@%@@%@@@@@@@@@@@@@%%@@@@",
"@@@%@@@@@@@@@@@@@@@@@%@.@@@@@@@@@@@@@@@@@.@@.@@@@@@@@@@@@@..%%%@",
"@@.@@@@@@@@@@@@@@@@@@@.@@@@@@@@@@@@@@@@@@@@@@@@@@@@@@@@@@%%@...%",
"@@%@@@@@@@@@@@@@@@@@@@%@@@@@@@@@@@@@@@@@@@@@@@@@@@@@@@@@@..%%%@.",
"@@@@@@@@@@@@@@@@@@@@@@@@@%o%@@@@@@@@@%.@%.@@@@@@@@@@@@@@@@@...%@",
"@@@@@@@@@@@@@@@@@@@@@@@@@. @.%@@@@@%.@%.@@@@@@@@@@@@@@@@@@@@@@.@",
"@@@@@@@@@@@@@@@@@@@@@@@@@@%%@@@@@@@@@@@@@@.+@@@@@@@@@%o.@@@@@@@@",
"@@@@@@@@@@@@@@@@@@@@@@@@@@. @@@@@@@@@@@@@@@@ %@@@@@%o.@%oo.@@@@@",
"@@@@@@@@@@@@@@@@@@@@@@@@@@@@@@@@@@@@@@@@@@@@@@.%@@@@@%oo.@%.@@@@",
"@@%@@@@@@@@@@@@@@@@@@@%@@@@@@@@@@@@@@@@@@@@@@@@@. %@@@@@%.@@%.@@",
"@@.@@@@@@@@@@@@@@@@@@@.@@@@@@.o%@@@@@@@@@% @@@@@%o..%@@@@@%.@@@@",
"@@.%@@@@@@@@@@@@@@@@@%@@@@@@@@@.o%@@@@@% @@@@@@..%%@@@@@@@@@@@@@",
"@@@.@@@@@@@@@@@@@@@@@.@@@@@@@@@@@@@@@@@@@@@@@@@%%@@@@@@@@@@@@@@@",
"@@@@@@@@@@@@@@@@@@@@@@@@@::::@@@@@@@@@@@@@@@@@@@@@@@@@@@@@@@@@@@",
"@@@@@@@@@@@@@@@@@@@@@@@@@::::::@@@@:::::@@@@@@@@@@@@@@@@@@@@@@@@",
"@@@@@@.%@@@@@@@@@%.@@@@@@::::::@@@@:::::@@@@@@@@@@@@@@@@@@@@@@@@",
"@@@@@@@@.%@@@@@%.@.@@@@@@:::,:::@:::::::@@@@@@@@@@@@@@@@@@@@@@@@",
"@@@@@@@@@@@@@@@@@@%@@@@@@:::,,,::::,,:::@@@@@@@@@%%@@@@@@@@@@@@@",
"@@@@@@@@@@@@@@@@@@@@@@@@@@@::,,,,,,,:::@@@@@@@@%%o.@@@@@@@@@@@@@",
"@@@@@@@@@@@@@@@@ %@@@@@% @@::,,,,,,,:::@@@@@@@@%..%%@@@@@@@@@@@@",
"@@@@@@@@@@@@@@ %@@@@@@@@@% @:,,,,,,::@@@@@@@@@@.%%o.@@@@@@@@@@@@",
"@@@@@@@@@@@@@@@@@@@@@@@@@@@$:,,,,,,:@@@@@@@@@@.%@@@@@%.@@@@@@@@@",
"@@@@@@@@@@@@@@@@@@@@@@@@@@@@::,,,,,::@@@@@@@.%@@@@@@@@@%.@@@@@@@",
"@@@@@@@@@@@ @@@@@@@@@@@@@@@@@:,,,,,::@@@@@@@@@@@@@@@@@@@@@@@@@@@",
"@@@@@@@@@@@%@@@@@@@@@@@@@@@@@::::,,,:::@@@@@@@@@@@@@@@@@@@@@@@@%",
"@@@@@@@@@@ @@@@@@@@@@@@@@@@@@@:::::,,::@@.@@@@@@@@@@@@@@@@@.@@& ",
"@@@@@@@@@@%@@@@:@@@@@@@@@@@@@@%@:::::::@@%@@@@@@@@@@@@@@@@@%%.@@",
"@@@@@@@@@@@@@@@@@@@@@@@@@@@@@@@@@::::::@.@@@@@@@@@@@@@@@@@@@.@@@",
"@@@@@@@@@@@@@@@@@@@@@@@@@@@@@@@@@@@:::::%@@@@@@@@@@@@@@@@@@@-:@@",
"@@.%@@@@@@@@@@@@@@@@@@@@@@@@@@@@@@@@@@@@@@@@@@@@@@@@@@@@@@@@@@@@",
"@@@@.%@@@@@@@@@@@.%%@@@@@%.@@@@@@@@@@@@@@@@@@@@@@@@@@@@@@@@@@@@@",
"@@@@@@@@@@@@@@@.%%.%@@@@@%.%.@@@@@@@@@@@@@@@@@@@@@@@@@@@@@@@@@@@",
"@@@@@@@@@@%@@@#@.%.o%@@@@@%o.@%@@@@@@@@@@@@@@@@@@@@@@@@@@@@@@@@@",
"@@@@@@@@@@ @.*@@.o%.o%@@@@@%o.O@@@@@@@@@@@@@@@@@@@@@@@@@@@@@@@@@",
"@@@@@@@@@@@@..@@@.o%.%@@@@@%.%..@@@@@@@@%@@@@@@@@@@@@@@@@@@@%@@@",
"@@@@@@@@@@@@%o@@@@.%@.o%@@@@@% =@@@@@@@@.@@@@@@@@@@@@@@@@@@@.@@@",
"@@@@@@@@@.. .o.@@@@.o%.oooo%@@@@@%.@@@@@@%@@@@@@@@@@@@@@@@@%@@@@",
"@@@@@@@@@%%%ooo.@@@@.oooo%.o%@@@@@%%.@@@@.@@@@@@@@@@@@@@@@@.@@@@",
"@@@@@@@@...@oo%o@@@@@@::.o%.o%@@@@@%o@@@@@@@@@@@@@@@@@@@@@@@@@@@",
"@@oooooooo%@oo.%..@@@@::@.o%.%@@@@@%.%@@@@@@@@@@@@@@@@@@@@@@@@@@",
".oooooooooo.%%o@%o....@:@@.%@@@@@@@@@%.#@@@@.%@@@@@@@@@%.@@@@@@@",
"oooooooooooo.@%..%%%%o.@@@@@@@@@@@@@@@@@#@@@@@.%@@@@@%.@@@@@@@@@",
"ooooooooooooo@@%o....%o.@@@@@@@@@@@@@@@@@.@@@@@@@@@@@@::@@@@@@@@",
"oooooooooooooo@@%%%%o.%o@@@@@@@@@@@@@@@@@%@@@@@@@@@@@::,::@@@@@@",
"oooooooooooooo@@@@@@%o.%@@@@@@@@@@@@@@@@@%.@@@@@@@@@@:,,:::@@@@@",
"oooooooooooooo@@@@@@@%o@@@@@@@@@@@@@@@@@@@%@@@@@@@@@@@:,,,::@@@@",
"oooooooooooooo@@@@@@@@%@@@@@@@@@@@@@@@@@@@%@@@@@@@@@@@:,,,::@@@@",
"oooooooooooooo%@@@@@@@@@@@@@@@@@@@@@@@@@@@@@@@@@@@@@@@::,,,:@@@@",
"ooooooooooooooo%@@@@@@@@@@@@@@@@@@@@@@@@@@@@@@@@@@@@@@@:::::@@@@",
"oooooooooooooo.o%%%%@@@@@@@@@@@@@@@@@@@@@@@@@@@@@@@@@@@@::::::@@",
"oooooooooooooo@.o...%@@@@@@@@@@@@@@@@@@@@@@@@@@@@@@@@@@@::::::@@",
"ooooooooooooooo@.%%%o%@@@@@@@@@@@@@@@@@@@@@@@@@@@@@@@@@@@@@@@@@@",
"ooooooooooooo.%oX....o%@@@@@@@@@@@@@@@@@@@%@@@@@@@@@@@@@@@@@@@@@"
};
