/* XPM */
static char *result[] = {
/* columns rows colors chars-per-pixel */
"64 64 6 1 ",
"  c #141B1B",
". c #ABC2BC",
"X c #B8DCE5",
"o c #F2EAF1",
"O c white",
"+ c None",
/* pixels */
"++++++++++++++++++++++++++++++++++++++++++++++++++++++++++++++++",
"+++++++++++++++++++++++++++          +++++++++++++++++++++++++++",
"+++++++++++++++++++++++++++          +++++++++++++++++++++++++++",
"+++++++++++++++++++++      OOOOOOOOOO     ++++++++++++++++++++++",
"++++++++++++++++++   OOOOOOOOOOOOOOOOOOOOO    ++++++++++++++++++",
"+++++++++++++++   OOOOOOOOOooooooooooOOOOOOOOO   +++++++++++++++",
"+++++++++++++++   OOOOOOOOOooooooooooOOOOOOOOO   +++++++++++++++",
"++++++++++++   OooOOOOOOoooOOOOOOOOOOoooOOOOOOooO   ++++++++++++",
"+++++++++++ OOOoOOOOOOOoOOOOOOOOOOOOOOOOoOOOOOOOoOOO +++++++++++",
"++++++++++ oOOoOOOOOOooOOOOOOOOOOOOOOOOOOoOOOOOOOoOOo ++++++++++",
"++++++++++ oOOoOOOOOOooOOOOOOOOOOOOOOOOOOoOOOOOOOoOOo ++++++++++",
"++++++++  ooOOoOOOOOOooOOOOOOOOOOOOOOOOOOoOOOOOOOoOOoo  ++++++++",
"+++++++ oooOOOoOOOOOOooOOOOOOOOOOOOOOOOOOoOOOOOOOoOOOooo +++++++",
"++++++ ooooOOOoOOOOOOooOOOOOOOOOOOOOOOOOOoOOOOOOOoOOOoooo ++++++",
"++++++ ooooOOOoOOOOOOooOOOOOOOOOOOOOOOOOOoOOOOOOOoOOOoooo ++++++",
"++++  ooooOOOOOoOOOOOOOoOOOOOOOOOOOOOOOOoOOOOOOOoOOOOOoooo  ++++",
"++++  ooooOOOOooOOOOOOOooOOOOOOOOOOOOOOooOOOOOOOooOOOOoooo  ++++",
"+++ ..ooooOOooOoOOOOOooOOooooooooooooooOOoOOOOOOoOooOOoooo.. +++",
"+++ ..ooooOOooOoOOOOOooOOooooooooooooooOOoOOOOOOoOooOOoooo.. +++",
"+++ ..ooooOoOOOOooOOoOOOOOOOOOOOOOOOOOOOOOooOOooOOOOoOoooo.. +++",
"++ X..oooooOOOOOOOooOOOOOOOOOOOOOOOOOOOOOOOOooOOOOOOOooooo..X ++",
"++ X..XooooOOOOOOOOooOOOOOOOOOOOOOOOOOOOOOoooOOOOOOOOooooX..X ++",
"++ X..XoooooOOOOOOOOOooooOOOOOOOOOOOOOOoooOOOOOOOOOOoooooX..X ++",
"++ X..XoooooOOOOOOOOOooooOOOOOOOOOOOOOOoooOOOOOOOOOOoooooX..X ++",
"+ .X..XoooooooOOOOOOOOOoOooooooooooooooOoOOOOOOOOOoooooooX..X. +",
"+ ....XoooooooOOOOOOOooOOOOOOOOOOOOOOOOOOoOOOOOOOOoooooooX.... +",
"+ .X..XoooooooooOOOOoOOOOOOOOOOOOOOOOOOOOOooOOOOoooooooooX..X. +",
"+ .X..XoooooooooOOOOoOOOOOOOOOOOOOOOOOOOOOooOOOOoooooooooX..X. +",
"+ .XXX.ooooooooooooOoOOOOOOOOOOOOOOOOOOOOOooOoooooooooooo.XXX. +",
"+ .XXX.ooooooooooooooOOOOOOOOOOOOOOOOOOOOOooooooooooooooo.XXX. +",
"+ .XXX..oooooooooooooooooooooooooooooooooooooooooooooooo..XXX. +",
"+ .XXX..oooooooooooooooooooooooooooooooooooooooooooooooo..XXX. +",
"+ .X..XXooooooooooooooooooooooooooooooooooooooooooooooooXX..X. +",
"+ .X..XXXXooooooooooooooooooooooooooooooooooooooooooooXXXX..X. +",
"+ ..XXXXXXXooooooooooooooOOOOOOOOooOOOOooooooooooooooXXXXXXX.. +",
"+ ..XXXXXXXooooooooooooooOOOOOOOOooOOOOooooooooooooooXXXXXXX.. +",
"+ ..XXXoooXXoooooooooooOOOOOOOOOOooOOOOOOoooooooooooXXoooXXX.. +",
"+ ..XXXoooXXXXXXXXoooOOOOOOOOOOOOooOOOOOOOooooXXXXXXXXoooXXX.. +",
"+ ..XXXXXXXoooooooooOOOOOOOOOOOOOooOOOOOOOOOoooooooooXXXXXXX.. +",
"+ ..XXXXXXXoooooooooOOOOOOOOOOOOOooOOOOOOOOOoooooooooXXXXXXX.. +",
"+ .X..XXXXooooooooooOOOOOOOOOOOOOooOOOOOOOOOooooooooooXXXX..X. +",
"+ .XXX.XXXoooooooooOOOOOOOOooooooooooOOOOOOOOoooooooooXXX.XXX. +",
"++ .XXXXXXoooooooooOOOOOooooooooooooooooOOOOOoooooooooXXXXXX. ++",
"++ .XXXXXXXoooooooXOOOOooooooooooooooooooOOOOXoooooooXXXXXXX. ++",
"++ .XXXXXXXoooooooXOOOOooooooooooooooooooOOOOXoooooooXXXXXXX. ++",
"+++ ..XXoooXXXooooXOOoooooo          oooooOOOXooooXXXoooXX.. +++",
"++++  XXoooXooXXXXXOoooo                ooooOXXXXXooXoooXX  ++++",
"++++++ .ooXoooooooXoooo                  ooooXoooooooXoo. ++++++",
"++++++ .ooXoooooooXoooo                  ooooXoooooooXoo. ++++++",
"+++++++ ...ooooo...oooo                  oooo...ooooo... +++++++",
"++++++++  ..ooo....oo                     ooo....ooo..  ++++++++",
"++++++++++  .......oo                     ooo.......  ++++++++++",
"+++++++++++ .......oo                     ooo....... +++++++++++",
"++++++++++++       oo                     ooo       ++++++++++++",
"++++++++++++++++++ oo                     ooo ++++++++++++++++++",
"++++++++++++++++++ oo                     ooo ++++++++++++++++++",
"++++++++++++++++++ oo                     ooo ++++++++++++++++++",
"++++++++++++++++++ oo                     ooo ++++++++++++++++++",
"++++++++++++++++++ oo                     ooo ++++++++++++++++++",
"++++++++++++++++++ oo    ..............   ooo ++++++++++++++++++",
"++++++++++++++++++ oo    ..............   ooo ++++++++++++++++++",
"++++++++++++++++++ oo  .................. ooo ++++++++++++++++++",
"++++++++++++++++++                            ++++++++++++++++++",
"++++++++++++++++++++++++++++++++++++++++++++++++++++++++++++++++"
};
