/* XPM */
static char *result[] = {
/* columns rows colors chars-per-pixel */
"64 64 10 1 ",
"  c gray1",
". c gray49",
"X c gray50",
"o c #808080",
"O c #818181",
"+ c gray51",
"@ c gray57",
"# c #929292",
"$ c gray63",
"% c None",
/* pixels */
"%%%%%%%%%%%%%%%%%%%%%%%%%%%%%%%%%%%%%%%%%%%%%%%%%%%%%%%%%%%%%%%%",
"%%%%%%%%%%%%%%%%%%%%%%%%%%%          %%%%%%%%%%%%%%%%%%%%%%%%%%%",
"%%%%%%%%%%%%%%%%%%%%%%%%%%%          %%%%%%%%%%%%%%%%%%%%%%%%%%%",
"%%%%%%%%%%%%%%%%%%%%%      $$$$$$$$$$     %%%%%%%%%%%%%%%%%%%%%%",
"%%%%%%%%%%%%%%%%%%   $$$$$$$$$$$$$$$$$$$$$    %%%%%%%%%%%%%%%%%%",
"%%%%%%%%%%%%%%%   $$$$$$$$$$$$$$$$$$$$$$$$$$$$   %%%%%%%%%%%%%%%",
"%%%%%%%%%%%%%%%   $$$$$$$$$$$$$$$$$$$$$$$$$$$$   %%%%%%%%%%%%%%%",
"%%%%%%%%%%%%   $$$$$$$$$$$$$$$$$$$$$$$$$$$$$$$$$$   %%%%%%%%%%%%",
"%%%%%%%%%%% $$$$$$$$$$$$$$$$$$$$$$$$$$$$$$$$$$$$$$$$ %%%%%%%%%%%",
"%%%%%%%%%% $$$$$$$$$$$$$$$$$$$$$$$$$$$$$$$$$$$$$$$$$$ %%%%%%%%%%",
"%%%%%%%%%% $$$$$$$$$$$$$$$$$$$$$$$$$$$$$$$$$$$$$$$$$$ %%%%%%%%%%",
"%%%%%%%%  $$$$$$$$$$$$$$$$$$$$$$$$$$$$$$$$$$$$$$$$$$$$  %%%%%%%%",
"%%%%%%% $$$$$$$$$$$$$$$$$$$$$$$$$$$$$$$$$$$$$$$$$$$$$$$$ %%%%%%%",
"%%%%%% $$$$$$$$$$$$$$$$$$$$$$$$$$$$$$$$$$$$$$$$$$$$$$$$$$ %%%%%%",
"%%%%%% $$$$$$$$$$$$$$$$$$$$$$$$$$$$$$$$$$$$$$$$$$$$$$$$$$ %%%%%%",
"%%%%  $$$$$$$$$$$$$$$$$$$$$$$$$$$$$$$$$$$$$$$$$$$$$$$$$$$$  %%%%",
"%%%%  $$$$$$$$$$$$$$$$$$$$$$$$$$$$$$$$$$$$$$$$$$$$$$$$$$$$  %%%%",
"%%% +O$$$$$$$$$$$$$$$$$$$$$$$$$$$$$$$$$$$$$$$$$$$$$$$$$$$$O+ %%%",
"%%% OO$$$$$$$$$$$$$$$$$$$$$$$$$$$$$$$$$$$$$$$$$$$$$$$$$$$$OO %%%",
"%%% OO$$$$$$$$$$$$$$$$$$$$$$$$$$$$$$$$$$$$$$$$$$$$$$$$$$$$OO %%%",
"%% #Oo$$$$$$$$$$$$$$$$$$$$$$$$$$$$$$$$$$$$$$$$$$$$$$$$$$$$oO# %%",
"%% #Oo@$$$$$$$$$$$$$$$$$$$$$$$$$$$$$$$$$$$$$$$$$$$$$$$$$$@oO# %%",
"%% #Oo@$$$$$$$$$$$$$$$$$$$$$$$$$$$$$$$$$$$$$$$$$$$$$$$$$$@oO# %%",
"%% #Oo@$$$$$$$$$$$$$$$$$$$$$$$$$$$$$$$$$$$$$$$$$$$$$$$$$$@oO# %%",
"% +#Oo@$$$$$$$$$$$$$$$$$$$$$$$$$$$$$$$$$$$$$$$$$$$$$$$$$$@oO#+ %",
"% +Ooo@$$$$$$$$$$$$$$$$$$$$$$$$$$$$$$$$$$$$$$$$$$$$$$$$$$@ooO+ %",
"% +#oo@$$$$$$$$$$$$$$$$$$$$$$$$$$$$$$$$$$$$$$$$$$$$$$$$$$@oo#+ %",
"% O#oo@$$$$$$$$$$$$$$$$$$$$$$$$$$$$$$$$$$$$$$$$$$$$$$$$$$@oo#+ %",
"% O##@X$$$$$$$$$$$$$$$$$$$$$$$$$$$$$$$$$$$$$$$$$$$$$$$$$$X@##O %",
"% O##@X$$$$$$$$$$$$$$$$$$$$$$$$$$$$$$$$$$$$$$$$$$$$$$$$$$X@##O %",
"% O##@X.$$$$$$$$$$$$$$$$$$$$$$$$$$$$$$$$$$$$$$$$$$$$$$$$.X@##O %",
"% O##@X.$$$$$$$$$$$$$$$$$$$$$$$$$$$$$$$$$$$$$$$$$$$$$$$$.X@##O %",
"% O#oo@@$$$$$$$$$$$$$$$$$$$$$$$$$$$$$$$$$$$$$$$$$$$$$$$$@@oo#O %",
"% O#oo@@@@$$$$$$$$$$$$$$$$$$$$$$$$$$$$$$$$$$$$$$$$$$$$@@@@oo#O %",
"% OO#@@@@@@$$$$$$$$$$$$$$$$$$$$$$$$$$$$$$$$$$$$$$$$$$@@@@@@#OO %",
"% OO#@@@@@@$$$$$$$$$$$$$$$$$$$$$$$$$$$$$$$$$$$$$$$$$$@@@@@@#OO %",
"% OO#@@$$$@@$$$$$$$$$$$$$$$$$$$$$$$$$$$$$$$$$$$$$$$$@@$$$@@#OO %",
"% OO#@@$$$@@@@@@@@$$$$$$$$$$$$$$$$$$$$$$$$$$$$@@@@@@@@$$$@@#OO %",
"% OO#@@@@@@$$$$$$$$$$$$$$$$$$$$$$$$$$$$$$$$$$$$$$$$$$@@@@@@#O+ %",
"% +O#@@@@@@$$$$$$$$$$$$$$$$$$$$$$$$$$$$$$$$$$$$$$$$$$@@@@@@#O+ %",
"% +#Oo@@@@$$$$$$$$$$$$$$$$$$$$$$$$$$$$$$$$$$$$$$$$$$$$@@@@oO#+ %",
"% +##@o@@@$$$$$$$$$$$$$$$$$$$$$$$$$$$$$$$$$$$$$$$$$$$$@@@o@##+ %",
"%% O##@@@@$$$$$$$$$$$$$$$$$$$$$$$$$$$$$$$$$$$$$$$$$$$$@@@@##O %%",
"%% +##@@@@@$$$$$$$@$$$$$$$$$$$$$$$$$$$$$$$$$$@$$$$$$$@@@@@##+ %%",
"%% +###@@@@$$$$$$$@$$$$$$$$$$$$$$$$$$$$$$$$$$@$$$$$$$@@@@###+ %%",
"%%% +O#@$$$@@@$$$$@$$$$$$$$          $$$$$$$$@$$$$@@@$$$@#O+ %%%",
"%%%%  ##$$$@$$@@@@@$$$$$                $$$$$@@@@@$$@$$$##  %%%%",
"%%%%%% O$$@$$$$$$$@$$$$                  $$$$@$$$$$$$@$$O %%%%%%",
"%%%%%% +$$#$$$$$$$@$$$$                  $$$$@$$$$$$$#$$+ %%%%%%",
"%%%%%%% +OO$$$$$ooo$$$$                  $$$$ooo$$$$$OO+ %%%%%%%",
"%%%%%%%%  OO$$$oooo$$                     $$$oooo$$$OO  %%%%%%%%",
"%%%%%%%%%%  OOOOOOO$$                     $$$oooOOOO  %%%%%%%%%%",
"%%%%%%%%%%% ++OOOOO$$                     $$$OOOOO++ %%%%%%%%%%%",
"%%%%%%%%%%%%       $$                     $$$       %%%%%%%%%%%%",
"%%%%%%%%%%%%%%%%%% $$                     $$$ %%%%%%%%%%%%%%%%%%",
"%%%%%%%%%%%%%%%%%% $$                     $$$ %%%%%%%%%%%%%%%%%%",
"%%%%%%%%%%%%%%%%%% $$                     $$$ %%%%%%%%%%%%%%%%%%",
"%%%%%%%%%%%%%%%%%% $$                     $$$ %%%%%%%%%%%%%%%%%%",
"%%%%%%%%%%%%%%%%%% $$                     $$$ %%%%%%%%%%%%%%%%%%",
"%%%%%%%%%%%%%%%%%% $$    ++++++++++++++   $$$ %%%%%%%%%%%%%%%%%%",
"%%%%%%%%%%%%%%%%%% $$    ++++++++++++++   $$$ %%%%%%%%%%%%%%%%%%",
"%%%%%%%%%%%%%%%%%% $$  ++++++++++++++++++ $$$ %%%%%%%%%%%%%%%%%%",
"%%%%%%%%%%%%%%%%%%                            %%%%%%%%%%%%%%%%%%",
"%%%%%%%%%%%%%%%%%%%%%%%%%%%%%%%%%%%%%%%%%%%%%%%%%%%%%%%%%%%%%%%%"
};
