/* XPM */
static char *_5d64dc5adb74b7d98884ada208c1f2eh20yJiCWeq5W5RFK[] = {
/* columns rows colors chars-per-pixel */
"64 64 11 1 ",
"  c None",
". c #141B1B",
"X c #3B3643",
"o c #D14B34",
"O c #8F3E56",
"+ c #E0394C",
"@ c #56864C",
"# c #A8A129",
"$ c #EF914F",
"% c #548789",
"& c #79B8CE",
/* pixels */
"                     .........            .........             ",
"                     .........            .........             ",
"                     .........            .........             ",
"                     .........            .........             ",
"                     .........            .........             ",
"                 ....#########............#########....         ",
"                 ....#########............#########....         ",
"                 ....#########............#########....         ",
"                 ....#########............#########....         ",
"                 ....#########............#########....         ",
"             ....#################XXXX#################....     ",
"             ....#################XXXX#################....     ",
"             ....#################XXXX#################....     ",
"             ....#################XXXX#################....     ",
"             ....#################XXXX#################....     ",
"             ....######################################....     ",
"             ....####....######################....####....     ",
"             ....####....######################....####....     ",
"             ....####.......################.......####....     ",
"             ....####.......################.......####....     ",
"        .....###########....##....####....##....###########.....",
"        .....###########....##....####....##....###########.....",
"        .....#################....####....#################.....",
"        .....#################....####....#################.....",
"        .....#################....####....#################.....",
".............####++++++++#####............#####++++++++####.....",
".............####++++++++#####............#####++++++++####.....",
".............####++++++++#####............#####++++++++####.....",
".............####++++++++#####............#####++++++++####.....",
".............####++++++++#####............#####++++++++####.....",
"oooooooo.....##############################################.....",
"oooooooo.....##############################################.....",
"oooooooo.....##############################################.....",
"oooooooo.....##############################################.....",
"oooooooo.....@@@@#############........#####################.....",
"oooooooo.....@@@@#############........#####################.....",
"oooooooo.....@@@@#############........#####################.....",
"oooooooo.....@@@@#############........#####################.....",
"oooooooo.....@@@@#############........#####################.....",
"........%%%%%....@@@@#########....$$$$....#########@@@@....OOOOO",
"........%%%%%....@@@@#########....$$$$....#########@@@@....OOOOO",
"........%%%%%....@@@@#########....$$$$....#########@@@@....OOOOO",
"........%%%%%....@@@@#########....$$$$....#########@@@@....OOOOO",
"........%%%%%....@@@@#########....$$$$....#########@@@@....OOOOO",
"        .....OOOOOOOO@@@@@@@@@....$$$$oooo.............OOOOOOOOO",
"        .....OOOOOOOO@@@@@@@@@....$$$$oooo.............OOOOOOOOO",
"        .....OOOOOOOO@@@@@@@@@....$$$$oooo.............OOOOOOOOO",
"        .....OOOOOOOO@@@@@@@@@....$$$$oooo.............OOOOOOOOO",
"        .....OOOOOOOO@@@@@@@@@....$$$$oooo.............OOOOOOOOO",
"        .....%%%%OOOO+++++++++....$$$$oooo&&&&&&&&&&&&&&&&&.....",
"        .....%%%%OOOO+++++++++....$$$$oooo&&&&&&&&&&&&&&&&&.....",
"        .....%%%%OOOO+++++++++....$$$$oooo&&&&&&&&&&&&&&&&&.....",
"        .....%%%%OOOO+++++++++....$$$$oooo&&&&&&&&&&&&&&&&&.....",
"        .....%%%%OOOO+++++++++....$$$$oooo&&&&&&&&&&&&&&&&&.....",
"        .....&&&&%%%%OOOOOOOOO........oooo&&&&&&&&&&&&&%%%%%%%%%",
"        .....&&&&%%%%OOOOOOOOO........oooo&&&&&&&&&&&&&%%%%%%%%%",
"        .....&&&&%%%%OOOOOOOOO........oooo&&&&&&&&&&&&&%%%%%%%%%",
"        .....&&&&%%%%OOOOOOOOO........oooo&&&&&&&&&&&&&%%%%%%%%%",
"        .....&&&&%%%%OOOOOOOOO........oooo&&&&&&&&&&&&&%%%%%%%%%",
"    ....%%%%%%%%%%%%%%%%%%%%%%............%%%%%%%%%%%%%%%%%%%%%%",
"    ....%%%%%%%%%%%%%%%%%%%%%%............%%%%%%%%%%%%%%%%%%%%%%",
"    ....%%%%%%%%%%%%%%%%%%%%%%............%%%%%%%%%%%%%%%%%%%%%%",
"    ....%%%%%%%%%%%%%%%%%%%%%%............%%%%%%%%%%%%%%%%%%%%%%",
"    ....%%%%%%%%%%%%%%%%%%%%%%............%%%%%%%%%%%%%%%%%%%%%%"
};
