/* XPM */
static char *a054b493b63c4627cd0544be8b830096Uk6kOb1TWJbyldzR[] = {
/* columns rows colors chars-per-pixel */
"64 64 8 1 ",
"  c None",
". c #141B1B",
"X c #2D697B",
"o c #D14B34",
"O c #EF914F",
"+ c #548789",
"@ c #79B8CE",
"# c #E3F1F5",
/* pixels */
"           ........................................             ",
"           ........................................             ",
"           ........................................             ",
"           ........................................             ",
"       ....++++++++++++++++++++++++++++++++++++++++....         ",
"       ....++++++++++++++++++++++++++++++++++++++++....         ",
"       ....++++++++++++++++++++++++++++++++++++++++....         ",
"       ....++++++++++++++++++++++++++++++++++++++++....         ",
"   ....++++++++++++@@@@@@@@@@@@@@@@@@@@@@@@++++++++++++....     ",
"   ....++++++++++++@@@@@@@@@@@@@@@@@@@@@@@@++++++++++++....     ",
"   ....++++++++++++@@@@@@@@@@@@@@@@@@@@@@@@++++++++++++....     ",
"   ....++++++++++++@@@@@@@@@@@@@@@@@@@@@@@@++++++++++++....     ",
"...XXXX++++++++@@@@@@@@@@@@@@@@@@@@@@@@@@@@@@@@++++++++XXXX.....",
"...XXXX++++++++@@@@@@@@@@@@@@@@@@@@@@@@@@@@@@@@++++++++XXXX.....",
"...XXXX++++++++@@@@@@@@@@@@@@@@@@@@@@@@@@@@@@@@++++++++XXXX.....",
"...XXXX++++++++@@@@@@@@@@@@@@@@@@@@@@@@@@@@@@@@++++++++XXXX.....",
"...XXXX++++++++@@@@@@@@@@@@@@@@@@@@@@@@@@@@@@@@++++++++XXXX.....",
"...XXXX++++########################################++++XXXX.....",
"...XXXX++++########################################++++XXXX.....",
"...XXXX++++########################################++++XXXX.....",
"...XXXX++++########################################++++XXXX.....",
"...XXXX################################################XXXX.....",
"...XXXX################################################XXXX.....",
"...XXXX################################################XXXX.....",
"...XXXX################################################XXXX.....",
"...XXXX############oooooooooooooooooooooooo############XXXX.....",
"...XXXX############oooooooooooooooooooooooo############XXXX.....",
"...XXXX############oooooooooooooooooooooooo############XXXX.....",
"...XXXX############oooooooooooooooooooooooo############XXXX.....",
"...XXXX########oooo........oooooooo........oooo########XXXX.....",
"...XXXX########oooo........oooooooo........oooo########XXXX.....",
"...XXXX########oooo........oooooooo........oooo########XXXX.....",
"...XXXX########oooo........oooooooo........oooo########XXXX.....",
"...XXXX########oooo........oooooooo........oooo########XXXX.....",
"...XXXX########ooooOOOOOOOOOOOOOOOOOOOOOOOOoooo########XXXX.....",
"...XXXX########ooooOOOOOOOOOOOOOOOOOOOOOOOOoooo########XXXX.....",
"...XXXX########ooooOOOOOOOOOOOOOOOOOOOOOOOOoooo########XXXX.....",
"...XXXX########ooooOOOOOOOOOOOOOOOOOOOOOOOOoooo########XXXX.....",
"   ....############OOOOOOOOOOOOOOOOOOOOOOOO############....     ",
"   ....############OOOOOOOOOOOOOOOOOOOOOOOO############....     ",
"   ....############OOOOOOOOOOOOOOOOOOOOOOOO############....     ",
"   ....############OOOOOOOOOOOOOOOOOOOOOOOO############....     ",
"       ....XXXX################################XXXX....         ",
"       ....XXXX################################XXXX....         ",
"       ....XXXX################################XXXX....         ",
"       ....XXXX################################XXXX....         ",
"   ....XXXXXXXXXXXXXXXX####XXXXXXXX####XXXXXXXXXXXXXXXX....     ",
"   ....XXXXXXXXXXXXXXXX####XXXXXXXX####XXXXXXXXXXXXXXXX....     ",
"   ....XXXXXXXXXXXXXXXX####XXXXXXXX####XXXXXXXXXXXXXXXX....     ",
"   ....XXXXXXXXXXXXXXXX####XXXXXXXX####XXXXXXXXXXXXXXXX....     ",
"   ....XXXXXXXXXXXXXXXX####XXXXXXXX####XXXXXXXXXXXXXXXX....     ",
"   ....oooooooo################################oooooooo....     ",
"   ....oooooooo################################oooooooo....     ",
"   ....oooooooo################################oooooooo....     ",
"   ....oooooooo################################oooooooo....     ",
"   ....OOOOOOOO++++++++++++........++++++++++++OOOOOOOO....     ",
"   ....OOOOOOOO++++++++++++........++++++++++++OOOOOOOO....     ",
"   ....OOOOOOOO++++++++++++........++++++++++++OOOOOOOO....     ",
"   ....OOOOOOOO++++++++++++........++++++++++++OOOOOOOO....     ",
"       ........XXXXXXXXXXXX........XXXXXXXXXXXX........         ",
"       ........XXXXXXXXXXXX........XXXXXXXXXXXX........         ",
"       ........XXXXXXXXXXXX........XXXXXXXXXXXX........         ",
"       ........XXXXXXXXXXXX........XXXXXXXXXXXX........         ",
"                                                                "
};
