/* XPM */
static char *ac83719e4f56493bbbe11cae9c577695LZxasLy5dB25LdS1[] = {
/* columns rows colors chars-per-pixel */
"64 64 8 1 ",
"  c None",
". c #141B1B",
"X c #2D697B",
"o c #D14B34",
"O c #EF914F",
"+ c #548789",
"@ c #79B8CE",
"# c #E3F1F5",
/* pixels */
"           .........................................            ",
"           .........................................            ",
"           .........................................            ",
"           .........................................            ",
"   ........@@@@@@@@@@@@@@@@@@@@@@@@@@@@+++++++++++++...         ",
"   ........@@@@@@@@@@@@@@@@@@@@@@@@@@@@+++++++++++++...         ",
"   ........@@@@@@@@@@@@@@@@@@@@@@@@@@@@+++++++++++++...         ",
"   ........@@@@@@@@@@@@@@@@@@@@@@@@@@@@+++++++++++++...         ",
"   ........@@@@@@@@@@@@@@@@@@@@@@@@@@@@+++++++++++++...         ",
"...########@@@@@@@@@@@@@@@@@@@@@@@@@@@@@@@@++++++++++++....     ",
"...########@@@@@@@@@@@@@@@@@@@@@@@@@@@@@@@@++++++++++++....     ",
"...########@@@@@@@@@@@@@@@@@@@@@@@@@@@@@@@@++++++++++++....     ",
"...########@@@@@@@@@@@@@@@@@@@@@@@@@@@@@@@@++++++++++++....    .",
"...############@@@@@@@@@@@@@@@@@@@@@@@@@@@@++++++++++++XXXX.... ",
"...############@@@@@@@@@@@@@@@@@@@@@@@@@@@@++++++++++++XXXX.... ",
"...############@@@@@@@@@@@@@@@@@@@@@@@@@@@@++++++++++++XXXX.... ",
"...############@@@@@@@@@@@@@@@@@@@@@@@@@@@@++++++++++++XXXX.... ",
"......#############@@@@@@@@@@@@@@@@@@@@++++++++++++++++XXXX.... ",
"......#############@@@@@@@@@@@@@@@@@@@@++++++++++++++++XXXX.... ",
"......#############@@@@@@@@@@@@@@@@@@@@++++++++++++++++XXXX.... ",
"......#############@@@@@@@@@@@@@@@@@@@@++++++++++++++++XXXX.... ",
"   ...ooooo########@@@@@@@@@@@@@@@@++++++++++++++++++++XXXX.... ",
"   ...ooooo########@@@@@@@@@@@@@@@@++++++++++++++++++++XXXX.... ",
"   ...ooooo########@@@@@@@@@@@@@@@@++++++++++++++++++++XXXX.... ",
"   ...ooooo########@@@@@@@@@@@@@@@@++++++++++++++++++++XXXX.... ",
"   ...ooooo########@@@@@@@@@@@@@@@@++++++++++++++++++++XXXX.... ",
"   ........########++++++++++++++++++++++++++++++++++++XXXX.... ",
"   ........########++++++++++++++++++++++++++++++++++++XXXX.... ",
"   ........########++++++++++++++++++++++++++++++++++++XXXX.... ",
"   ........########++++++++++++++++++++++++++++++++++++XXXX.... ",
"...OOOOOOOO########+++++++++++++++++++++++++++++++++XXXXXXX.... ",
"...OOOOOOOO########+++++++++++++++++++++++++++++++++XXXXXXX.... ",
"...OOOOOOOO########+++++++++++++++++++++++++++++++++XXXXXXX.... ",
"...OOOOOOOO########+++++++++++++++++++++++++++++++++XXXXXXX.... ",
"...OOOOOOOO########+++++++++++++++++++++++++++++++++XXXXXXX.... ",
"...OOOOOOOO########+++++++++++++++++++++++++++++++++XXXXXXX.... ",
"...OOOOOOOO########+++++++++++++++++++++++++++++++++XXXXXXX.... ",
"...OOOOOOOO########+++++++++++++++++++++++++++++++++XXXXXXX.... ",
"...################++++++++++++++++++++++++XXXXXXXXXXXX....     ",
"...################++++++++++++++++++++++++XXXXXXXXXXXX....     ",
"...################++++++++++++++++++++++++XXXXXXXXXXXX....     ",
"...################++++++++++++++++++++++++XXXXXXXXXXXX....     ",
"...################++++++++++++++++++++++++XXXXXXXXXXXX....     ",
"   ...#########XXXXXXXXXXXXXXXXXXXXXXXXXXXXXXXXXXXXX...         ",
"   ...#########XXXXXXXXXXXXXXXXXXXXXXXXXXXXXXXXXXXXX...         ",
"   ...#########XXXXXXXXXXXXXXXXXXXXXXXXXXXXXXXXXXXXX...         ",
"   ...#########XXXXXXXXXXXXXXXXXXXXXXXXXXXXXXXXXXXXX...         ",
"      .........####XXXXXXXXXXXXXXXXXXXXXXXXXXXXXXXXX...         ",
"      .........####XXXXXXXXXXXXXXXXXXXXXXXXXXXXXXXXX...         ",
"      .........####XXXXXXXXXXXXXXXXXXXXXXXXXXXXXXXXX...         ",
"      .........####XXXXXXXXXXXXXXXXXXXXXXXXXXXXXXXXX...         ",
"           ....############....oooooooo....####.....            ",
"           ....############....oooooooo....####.....            ",
"           ....############....oooooooo....####.....            ",
"           ....############....oooooooo....####.....            ",
"               ....++++++++....OOOOOOOO....++++.....            ",
"               ....++++++++....OOOOOOOO....++++.....            ",
"               ....++++++++....OOOOOOOO....++++.....            ",
"               ....++++++++....OOOOOOOO....++++.....            ",
"               ....++++++++....OOOOOOOO....++++.....            ",
"               ....XXXXXXXXXXXX........XXXX....                 ",
"               ....XXXXXXXXXXXX........XXXX....                 ",
"               ....XXXXXXXXXXXX........XXXX....                 ",
"               ....XXXXXXXXXXXX........XXXX....                 "
};
