/* XPM */
static char *result[] = {
/* columns rows colors chars-per-pixel */
"64 64 8 1 ",
"  c #141B1B",
". c #2D697B",
"X c #D14B34",
"o c #EF914F",
"O c #548789",
"+ c #79B8CE",
"@ c #E3F1F5",
"# c None",
/* pixels */
"#########            #########             #####################",
"#########            #########             #####################",
"#########            #########             #####################",
"#########            #########             #####################",
"####     @@@@@@@@             oooooooo@@@@@    #################",
"####     @@@@@@@@             oooooooo@@@@@    #################",
"####     @@@@@@@@             oooooooo@@@@@    #################",
"####     @@@@@@@@             oooooooo@@@@@    #################",
"####     @@@@@@@@@@@@XXXXX    oooooooo@@@@@@@@@    #############",
"####     @@@@@@@@@@@@XXXXX    oooooooo@@@@@@@@@    #############",
"####     @@@@@@@@@@@@XXXXX    oooooooo@@@@@@@@@    #############",
"####     @@@@@@@@@@@@XXXXX    oooooooo@@@@@@@@@    #############",
"    +++++++++@@@@@@@@@@@@@@@@@@@@@@@@@@@@@@@@@@        #########",
"    +++++++++@@@@@@@@@@@@@@@@@@@@@@@@@@@@@@@@@@        #########",
"    +++++++++@@@@@@@@@@@@@@@@@@@@@@@@@@@@@@@@@@        #########",
"    +++++++++@@@@@@@@@@@@@@@@@@@@@@@@@@@@@@@@@@        #########",
"    +++++++++++++@@@@@@@@@@@@@@@@@@@@@@@@@@....@@@@@@@@         ",
"    +++++++++++++@@@@@@@@@@@@@@@@@@@@@@@@@@....@@@@@@@@         ",
"    +++++++++++++@@@@@@@@@@@@@@@@@@@@@@@@@@....@@@@@@@@         ",
"    +++++++++++++@@@@@@@@@@@@@@@@@@@@@@@@@@....@@@@@@@@         ",
"    ++++++++++++++++++++++OOOOOOOOOOOOOOOOO........@@@@OOOOO....",
"    ++++++++++++++++++++++OOOOOOOOOOOOOOOOO........@@@@OOOOO....",
"    ++++++++++++++++++++++OOOOOOOOOOOOOOOOO........@@@@OOOOO....",
"    ++++++++++++++++++++++OOOOOOOOOOOOOOOOO........@@@@OOOOO....",
"    ++++++++++++++++++++++OOOOOOOOOOOOOOOOO........@@@@OOOOO....",
"    ++++++++++++++++++++++OOOOOOOOOOOOOOOOO........@@@@OOOOO....",
"    ++++++++++++++++++++++OOOOOOOOOOOOOOOOO........@@@@OOOOO....",
"    ++++++++++++++++++++++OOOOOOOOOOOOOOOOO........@@@@OOOOO....",
"    ++++++++++++++++++++++OOOOOOOOOOOOOOOOO........         ....",
"    ++++++++++++++++++++++OOOOOOOOOOOOOOOOO........         ....",
"    ++++++++++++++++++++++OOOOOOOOOOOOOOOOO........         ....",
"    ++++++++++++++++++++++OOOOOOOOOOOOOOOOO........         ....",
"    ++++++++++++++++++++++OOOOOOOOOOOOOOOOO........XXXXooooo    ",
"    ++++++++++++++++++++++OOOOOOOOOOOOOOOOO........XXXXooooo    ",
"    ++++++++++++++++++++++OOOOOOOOOOOOOOOOO........XXXXooooo    ",
"    ++++++++++++++++++++++OOOOOOOOOOOOOOOOO........XXXXooooo    ",
"    +++++++++++++++++OOOOOOOOOOOOOOOOOOOOOO........XXXXooooo    ",
"    +++++++++++++++++OOOOOOOOOOOOOOOOOOOOOO........XXXXooooo    ",
"    +++++++++++++++++OOOOOOOOOOOOOOOOOOOOOO........XXXXooooo    ",
"    +++++++++++++++++OOOOOOOOOOOOOOOOOOOOOO........XXXXooooo    ",
"    OOOOO++++++++OOOOOOOOOOOOOOOOOOOOOOOOOO........         ....",
"    OOOOO++++++++OOOOOOOOOOOOOOOOOOOOOOOOOO........         ....",
"    OOOOO++++++++OOOOOOOOOOOOOOOOOOOOOOOOOO........         ....",
"    OOOOO++++++++OOOOOOOOOOOOOOOOOOOOOOOOOO........         ....",
"    OOOOOOOOOOOOOOOOOOOOOOOOOOOOOOOOOO.............@@@@OOOOO    ",
"    OOOOOOOOOOOOOOOOOOOOOOOOOOOOOOOOOO.............@@@@OOOOO    ",
"    OOOOOOOOOOOOOOOOOOOOOOOOOOOOOOOOOO.............@@@@OOOOO    ",
"    OOOOOOOOOOOOOOOOOOOOOOOOOOOOOOOOOO.............@@@@OOOOO    ",
"    OOOOOOOOOOOOOOOOOOOOOOOOOOOOOOOOOO.............         ####",
"    OOOOOOOOOOOOOOOOOOOOOOOOOOOOOOOOOO.............         ####",
"    OOOOOOOOOOOOOOOOOOOOOOOOOOOOOOOOOO.............         ####",
"    OOOOOOOOOOOOOOOOOOOOOOOOOOOOOOOOOO.............         ####",
"####     OOOOOOOOOOOOOOOOOOOOO.............        #############",
"####     OOOOOOOOOOOOOOOOOOOOO.............        #############",
"####     OOOOOOOOOOOOOOOOOOOOO.............        #############",
"####     OOOOOOOOOOOOOOOOOOOOO.............        #############",
"#########    .........................     #####################",
"#########    .........................     #####################",
"#########    .........................     #####################",
"#########    .........................     #####################",
"#############                         ##########################",
"#############                         ##########################",
"#############                         ##########################",
"#############                         ##########################"
};
