/* XPM */
static char *result[] = {
/* columns rows colors chars-per-pixel */
"64 64 7 1 ",
"  c #141B1B",
". c #2D697B",
"X c #D14B34",
"o c #548789",
"O c #79B8CE",
"+ c #E3F1F5",
"@ c None",
/* pixels */
"@@@@@@@@@@@                                           @@@@@@@@@@",
"@@@@@@@@@@@                                           @@@@@@@@@@",
"@@@@@@@    ooooOOOOOOOOOOOOOOOOOOOOOOOOOOOOOOOOOOOoooo     @@@@@",
"@@@@@@@    ooooOOOOOOOOOOOOOOOOOOOOOOOOOOOOOOOOOOOoooo     @@@@@",
"@@@@@@@    ooooOOOOOOOOOOOOOOOOOOOOOOOOOOOOOOOOOOOoooo     @@@@@",
"@@@@@@@    ooooOOOOOOOOOOOOOOOOOOOOOOOOOOOOOOOOOOOoooo     @@@@@",
"@@     ooooOOOOOOOOOOOOOOOOOOOOOOOOOOOOOOOOOOOOOOOOOOOooooo    @",
"@@     ooooOOOOOOOOOOOOOOOOOOOOOOOOOOOOOOOOOOOOOOOOOOOooooo    @",
"@@     ooooOOOOOOOOOOOOOOOOOOOOOOOOOOOOOOOOOOOOOOOOOOOooooo    @",
"@@     ooooOOOOOOOOOOOOOOOOOOOOOOOOOOOOOOOOOOOOOOOOOOOooooo    @",
"  .....OOOOOOOOOOOOOOOOOOOOOOOOOOOOOOOOOOOOOOOOOOOOOOOOOOOO.... ",
"  .....OOOOOOOOOOOOOOOOOOOOOOOOOOOOOOOOOOOOOOOOOOOOOOOOOOOO.... ",
"  .....OOOOOOOOOOOOOOOOOOOOOOOOOOOOOOOOOOOOOOOOOOOOOOOOOOOO.... ",
"  .....OOOOOOOOOOOOOOOOOOOOOOOOOOOOOOOOOOOOOOOOOOOOOOOOOOOO.... ",
"  .....OOOOOOOOOOOOOOOOOOOOOOOOOOOOOOOOOOOOOOOOOOOOOOOOOOOO.... ",
"  .....ooooOOOOOOOOOOOOOOOOOOOOOOOOOOOOOOOOOOOOOOOOOOOooooo.... ",
"  .....ooooOOOOOOOOOOOOOOOOOOOOOOOOOOOOOOOOOOOOOOOOOOOooooo.... ",
"  .....ooooOOOOOOOOOOOOOOOOOOOOOOOOOOOOOOOOOOOOOOOOOOOooooo.... ",
"  .....ooooOOOOOOOOOOOOOOOOOOOOOOOOOOOOOOOOOOOOOOOOOOOooooo.... ",
"  .........ooooOOOOOOOOOOOOOOOOOOOOOOOOOOOOOOOOOOOoooo......... ",
"  .........ooooOOOOOOOOOOOOOOOOOOOOOOOOOOOOOOOOOOOoooo......... ",
"  .........ooooOOOOOOOOOOOOOOOOOOOOOOOOOOOOOOOOOOOoooo......... ",
"  .........ooooOOOOOOOOOOOOOOOOOOOOOOOOOOOOOOOOOOOoooo......... ",
"  .............ooooooooooooooooooooooooooooooooooo............. ",
"  .............ooooooooooooooooooooooooooooooooooo............. ",
"  .............ooooooooooooooooooooooooooooooooooo............. ",
"  .............ooooooooooooooooooooooooooooooooooo............. ",
"  .............ooooooooooooooooooooooooooooooooooo............. ",
"  ............................................................. ",
"  ............................................................. ",
"  ............................................................. ",
"  ............................................................. ",
"  ............................................................. ",
"  ............................................................. ",
"  ............................................................. ",
"  ............................................................. ",
"@@     ....................................................    @",
"@@     ....................................................    @",
"@@     ....................................................    @",
"@@     ....................................................    @",
"@@     ....................................................    @",
"@@@@@@@        ...................................         @@@@@",
"@@@@@@@        ...................................         @@@@@",
"@@@@@@@        ...................................         @@@@@",
"@@@@@@@        ...................................         @@@@@",
"@@     .............oooooooooooooooooooooooooo.............    @",
"@@     .............oooooooooooooooooooooooooo.............    @",
"@@     .............oooooooooooooooooooooooooo.............    @",
"@@     .............oooooooooooooooooooooooooo.............    @",
"@@     XXXXXXXX+++++++++++++++++++++++++++++++++++XXXXXXXXX    @",
"@@     XXXXXXXX+++++++++++++++++++++++++++++++++++XXXXXXXXX    @",
"@@     XXXXXXXX+++++++++++++++++++++++++++++++++++XXXXXXXXX    @",
"@@     XXXXXXXX+++++++++++++++++++++++++++++++++++XXXXXXXXX    @",
"@@     XXXXXXXX+++++++++++++++++++++++++++++++++++XXXXXXXXX    @",
"@@     XXXXXXXXooooooooooooo.........ooooooooo....XXXXXXXXX    @",
"@@     XXXXXXXXooooooooooooo.........ooooooooo....XXXXXXXXX    @",
"@@     XXXXXXXXooooooooooooo.........ooooooooo....XXXXXXXXX    @",
"@@     XXXXXXXXooooooooooooo.........ooooooooo....XXXXXXXXX    @",
"@@@@@@@        .............         .............         @@@@@",
"@@@@@@@        .............         .............         @@@@@",
"@@@@@@@        .............         .............         @@@@@",
"@@@@@@@        .............         .............         @@@@@",
"@@@@@@@@@@@                                           @@@@@@@@@@",
"@@@@@@@@@@@                                           @@@@@@@@@@"
};
