/* XPM */
static char *result[] = {
/* columns rows colors chars-per-pixel */
"64 64 8 1 ",
"  c #141B1B",
". c #2D697B",
"X c #D14B34",
"o c #EF914F",
"O c #548789",
"+ c #79B8CE",
"@ c #E3F1F5",
"# c None",
/* pixels */
"############                                        ############",
"############                                        ############",
"############                                        ############",
"############                                        ############",
"########    OOOOOOOOOOOO++++++++++++++++++++++++++++        ####",
"########    OOOOOOOOOOOO++++++++++++++++++++++++++++        ####",
"########    OOOOOOOOOOOO++++++++++++++++++++++++++++        ####",
"########    OOOOOOOOOOOO++++++++++++++++++++++++++++        ####",
"########    OOOOOOOOOOOO++++++++++++++++++++++++++++        ####",
"####    OOOOOOOOOOOO++++++++++++++++++++++++++++++++@@@@@@@@    ",
"####    OOOOOOOOOOOO++++++++++++++++++++++++++++++++@@@@@@@@    ",
"####    OOOOOOOOOOOO++++++++++++++++++++++++++++++++@@@@@@@@    ",
"####    OOOOOOOOOOOO++++++++++++++++++++++++++++++++@@@@@@@@    ",
"    ....OOOOOOOOOOOO++++++++++++++++++++++++++++@@@@@@@@@@@@    ",
"    ....OOOOOOOOOOOO++++++++++++++++++++++++++++@@@@@@@@@@@@    ",
"    ....OOOOOOOOOOOO++++++++++++++++++++++++++++@@@@@@@@@@@@    ",
"    ....OOOOOOOOOOOO++++++++++++++++++++++++++++@@@@@@@@@@@@    ",
"    ....OOOOOOOOOOOOOOOO++++++++++++++++++++@@@@@@@@@@@@        ",
"    ....OOOOOOOOOOOOOOOO++++++++++++++++++++@@@@@@@@@@@@        ",
"    ....OOOOOOOOOOOOOOOO++++++++++++++++++++@@@@@@@@@@@@        ",
"    ....OOOOOOOOOOOOOOOO++++++++++++++++++++@@@@@@@@@@@@        ",
"    ....OOOOOOOOOOOOOOOOOOOO++++++++++++++++@@@@@@@@XXXX    ####",
"    ....OOOOOOOOOOOOOOOOOOOO++++++++++++++++@@@@@@@@XXXX    ####",
"    ....OOOOOOOOOOOOOOOOOOOO++++++++++++++++@@@@@@@@XXXX    ####",
"    ....OOOOOOOOOOOOOOOOOOOO++++++++++++++++@@@@@@@@XXXX    ####",
"    ....OOOOOOOOOOOOOOOOOOOO++++++++++++++++@@@@@@@@XXXX    ####",
"    ....OOOOOOOOOOOOOOOOOOOOOOOOOOOOOOOOOOOO@@@@@@@@        ####",
"    ....OOOOOOOOOOOOOOOOOOOOOOOOOOOOOOOOOOOO@@@@@@@@        ####",
"    ....OOOOOOOOOOOOOOOOOOOOOOOOOOOOOOOOOOOO@@@@@@@@        ####",
"    ....OOOOOOOOOOOOOOOOOOOOOOOOOOOOOOOOOOOO@@@@@@@@        ####",
"    ........OOOOOOOOOOOOOOOOOOOOOOOOOOOOOOOO@@@@@@@@oooooooo    ",
"    ........OOOOOOOOOOOOOOOOOOOOOOOOOOOOOOOO@@@@@@@@oooooooo    ",
"    ........OOOOOOOOOOOOOOOOOOOOOOOOOOOOOOOO@@@@@@@@oooooooo    ",
"    ........OOOOOOOOOOOOOOOOOOOOOOOOOOOOOOOO@@@@@@@@oooooooo    ",
"    ........OOOOOOOOOOOOOOOOOOOOOOOOOOOOOOOO@@@@@@@@oooooooo    ",
"    ........OOOOOOOOOOOOOOOOOOOOOOOOOOOOOOOO@@@@@@@@oooooooo    ",
"    ........OOOOOOOOOOOOOOOOOOOOOOOOOOOOOOOO@@@@@@@@oooooooo    ",
"    ........OOOOOOOOOOOOOOOOOOOOOOOOOOOOOOOO@@@@@@@@oooooooo    ",
"####    ............OOOOOOOOOOOOOOOOOOOOOOOO@@@@@@@@@@@@@@@@    ",
"####    ............OOOOOOOOOOOOOOOOOOOOOOOO@@@@@@@@@@@@@@@@    ",
"####    ............OOOOOOOOOOOOOOOOOOOOOOOO@@@@@@@@@@@@@@@@    ",
"####    ............OOOOOOOOOOOOOOOOOOOOOOOO@@@@@@@@@@@@@@@@    ",
"####    ............OOOOOOOOOOOOOOOOOOOOOOOO@@@@@@@@@@@@@@@@    ",
"########    ....................................@@@@@@@@    ####",
"########    ....................................@@@@@@@@    ####",
"########    ....................................@@@@@@@@    ####",
"########    ....................................@@@@@@@@    ####",
"########    ................................@@@@        ########",
"########    ................................@@@@        ########",
"########    ................................@@@@        ########",
"########    ................................@@@@        ########",
"############    @@@@    XXXXXXXX    @@@@@@@@@@@@    ############",
"############    @@@@    XXXXXXXX    @@@@@@@@@@@@    ############",
"############    @@@@    XXXXXXXX    @@@@@@@@@@@@    ############",
"############    @@@@    XXXXXXXX    @@@@@@@@@@@@    ############",
"############    OOOO    oooooooo    OOOOOOOO    ################",
"############    OOOO    oooooooo    OOOOOOOO    ################",
"############    OOOO    oooooooo    OOOOOOOO    ################",
"############    OOOO    oooooooo    OOOOOOOO    ################",
"############    OOOO    oooooooo    OOOOOOOO    ################",
"################    ....        ............    ################",
"################    ....        ............    ################",
"################    ....        ............    ################",
"################    ....        ............    ################"
};
