/* XPM */
static char *result[] = {
/* columns rows colors chars-per-pixel */
"64 64 7 1 ",
"  c #141B1B",
". c #D14B34",
"X c #8F3E56",
"o c #EF914F",
"O c #FFAD5D",
"+ c white",
"@ c None",
/* pixels */
"@@@@@@@@@@@@@@@@@@@@@                          @@@@@@@@@@@@@@@@@",
"@@@@@@@@@@@@@@@@@@@@@                          @@@@@@@@@@@@@@@@@",
"@@@@@@@@@@@@@@@@@@@@@                          @@@@@@@@@@@@@@@@@",
"@@@@@@@@@@@@@@@@@    oooooooooOOOOOOOOOOOOOOOOO    @@@@@@@@@@@@@",
"@@@@@@@@@@@@@@@@@    oooooooooOOOOOOOOOOOOOOOOO    @@@@@@@@@@@@@",
"@@@@@@@@@@@@@@@@@    oooooooooOOOOOOOOOOOOOOOOO    @@@@@@@@@@@@@",
"@@@@@@@@@@@@@@@@@    oooooooooOOOOOOOOOOOOOOOOO    @@@@@@@@@@@@@",
"@@@@@@@@@@@@@@@@@    oooooooooOOOOOOOOOOOOOOOOO    @@@@@@@@@@@@@",
"@@@@@@@@@@@@@    OOOOOOOOOOOOOooooOOOOOOOOOOOOOoooo    @@@@@@@@@",
"@@@@@@@@@@@@@    OOOOOOOOOOOOOooooOOOOOOOOOOOOOoooo    @@@@@@@@@",
"@@@@@@@@@@@@@    OOOOOOOOOOOOOooooOOOOOOOOOOOOOoooo    @@@@@@@@@",
"@@@@@@@@@@@@@    OOOOOOOOOOOOOooooOOOOOOOOOOOOOoooo    @@@@@@@@@",
"@@@@         ++++OOOOOOOOOOOOOooooOOOOOOOOoooooooooOOOO    @@@@@",
"@@@@         ++++OOOOOOOOOOOOOooooOOOOOOOOoooooooooOOOO    @@@@@",
"@@@@         ++++OOOOOOOOOOOOOooooOOOOOOOOoooooooooOOOO    @@@@@",
"@@@@         ++++OOOOOOOOOOOOOooooOOOOOOOOoooooooooOOOO    @@@@@",
"    +++++++++++++++++++++OOOOOOOOOooooooooOOOOOOOOOOOOO    @@@@@",
"    +++++++++++++++++++++OOOOOOOOOooooooooOOOOOOOOOOOOO    @@@@@",
"    +++++++++++++++++++++OOOOOOOOOooooooooOOOOOOOOOOOOO    @@@@@",
"    +++++++++++++++++++++OOOOOOOOOooooooooOOOOOOOOOOOOO    @@@@@",
"    +++++++++++++++++++++OOOOO    OOOOOOOOOOOOOoooooooooooo     ",
"    +++++++++++++++++++++OOOOO    OOOOOOOOOOOOOoooooooooooo     ",
"    +++++++++++++++++++++OOOOO    OOOOOOOOOOOOOoooooooooooo     ",
"    +++++++++++++++++++++OOOOO    OOOOOOOOOOOOOoooooooooooo     ",
"    +++++++++++++++++++++OOOOO    OOOOOOOOOOOOOoooooooooooo     ",
"    +++++++++++++++++OOOOOOOOO        ooooooooooooooooooooo     ",
"    +++++++++++++++++OOOOOOOOO        ooooooooooooooooooooo     ",
"    +++++++++++++++++OOOOOOOOO        ooooooooooooooooooooo     ",
"    +++++++++++++++++OOOOOOOOO        ooooooooooooooooooooo     ",
"    +++++++++++++OOOO         @@@@@@@@    ooooooooooooooooo     ",
"    +++++++++++++OOOO         @@@@@@@@    ooooooooooooooooo     ",
"    +++++++++++++OOOO         @@@@@@@@    ooooooooooooooooo     ",
"    +++++++++++++OOOO         @@@@@@@@    ooooooooooooooooo     ",
"    +++++++++++++OOOO         @@@@@@@@    ooooooooooooooooo     ",
"@@@@                 @@@@@@@@@@@@@@@@@    ooooooooooooooooo     ",
"@@@@                 @@@@@@@@@@@@@@@@@    ooooooooooooooooo     ",
"@@@@                 @@@@@@@@@@@@@@@@@    ooooooooooooooooo     ",
"@@@@                 @@@@@@@@@@@@@@@@@    ooooooooooooooooo     ",
"@@@@                 @@@@@@@@@@@@@@@@@    ooooooooooooooooo     ",
"@@@@@@@@@@@@@@@@@@@@@@@@@                 .........oooo    @@@@@",
"@@@@@@@@@@@@@@@@@@@@@@@@@                 .........oooo    @@@@@",
"@@@@@@@@@@@@@@@@@@@@@@@@@                 .........oooo    @@@@@",
"@@@@@@@@@@@@@@@@@@@@@@@@@                 .........oooo    @@@@@",
"@@@@@@@@@@@@@@@@@@@@@    ..........................    @@@@@@@@@",
"@@@@@@@@@@@@@@@@@@@@@    ..........................    @@@@@@@@@",
"@@@@@@@@@@@@@@@@@@@@@    ..........................    @@@@@@@@@",
"@@@@@@@@@@@@@@@@@@@@@    ..........................    @@@@@@@@@",
"@@@@@@@@@@@@@@@@@    .................XXXX.........    @@@@@@@@@",
"@@@@@@@@@@@@@@@@@    .................XXXX.........    @@@@@@@@@",
"@@@@@@@@@@@@@@@@@    .................XXXX.........    @@@@@@@@@",
"@@@@@@@@@@@@@@@@@    .................XXXX.........    @@@@@@@@@",
"@@@@@@@@@@@@@@@@@             XXXXXXXX.........    @@@@@@@@@@@@@",
"@@@@@@@@@@@@@@@@@             XXXXXXXX.........    @@@@@@@@@@@@@",
"@@@@@@@@@@@@@@@@@             XXXXXXXX.........    @@@@@@@@@@@@@",
"@@@@@@@@@@@@@@@@@             XXXXXXXX.........    @@@@@@@@@@@@@",
"@@@@@@@@@@@@@@@@@             XXXXXXXX.........    @@@@@@@@@@@@@",
"@@@@@@@@@@@@@@@@@@@@@    .................     @@@@@@@@@@@@@@@@@",
"@@@@@@@@@@@@@@@@@@@@@    .................     @@@@@@@@@@@@@@@@@",
"@@@@@@@@@@@@@@@@@@@@@    .................     @@@@@@@@@@@@@@@@@",
"@@@@@@@@@@@@@@@@@@@@@    .................     @@@@@@@@@@@@@@@@@",
"@@@@@@@@@@@@@@@@@@@@@@@@@                 @@@@@@@@@@@@@@@@@@@@@@",
"@@@@@@@@@@@@@@@@@@@@@@@@@                 @@@@@@@@@@@@@@@@@@@@@@",
"@@@@@@@@@@@@@@@@@@@@@@@@@                 @@@@@@@@@@@@@@@@@@@@@@",
"@@@@@@@@@@@@@@@@@@@@@@@@@                 @@@@@@@@@@@@@@@@@@@@@@"
};
