/* XPM */
static char *result[] = {
/* columns rows colors chars-per-pixel */
"64 64 105 2 ",
"   c #12191A",
".  c #13191A",
"X  c #12191B",
"o  c #13191B",
"O  c #111B1A",
"+  c #121A1A",
"@  c #131A1A",
"#  c #131B1A",
"$  c #121A1B",
"%  c #131A1B",
"&  c #121B1B",
"*  c #131B1B",
"=  c #141A1A",
"-  c #141B1A",
";  c #141A1B",
":  c #141B1B",
">  c #131C1B",
",  c #12191C",
"<  c #121A1C",
"1  c #131A1C",
"2  c #121B1C",
"3  c #131B1C",
"4  c #131A1D",
"5  c #121B1D",
"6  c #131B1D",
"7  c #131B1E",
"8  c #131B1F",
"9  c #141A1C",
"0  c #141B1C",
"q  c #141B1D",
"w  c #151B1D",
"e  c #141B1E",
"r  c #151B1F",
"t  c #131D1D",
"y  c #131C1E",
"u  c #151C1D",
"i  c #141C1E",
"p  c #151C1E",
"a  c #151D1E",
"s  c #141C1F",
"d  c #141D1F",
"f  c #151D1F",
"g  c #141D20",
"h  c #151D20",
"j  c #141D21",
"k  c #151D21",
"l  c #161D20",
"z  c #161C21",
"x  c #151E20",
"c  c #141E21",
"v  c #151E21",
"b  c #151F21",
"n  c #161E20",
"m  c #161E21",
"M  c #171F21",
"N  c #151F22",
"B  c #141F23",
"V  c #151F23",
"C  c #161F22",
"Z  c #253A4A",
"A  c #275762",
"S  c #2A5460",
"D  c #285761",
"F  c #2A5661",
"G  c #295462",
"H  c #295762",
"J  c #285962",
"K  c #2A5862",
"L  c #2A5963",
"P  c #295964",
"I  c #2D5C69",
"U  c #29586C",
"Y  c #2A5C71",
"T  c #2D606B",
"R  c #2B626D",
"E  c #2B6271",
"W  c #2C6376",
"Q  c #2E6675",
"!  c #2E6576",
"~  c #2F6576",
"^  c #2E6877",
"/  c #2D697B",
"(  c #306877",
")  c #306878",
"_  c #4A5270",
"`  c #4B7F84",
"'  c #4C7F84",
"]  c #4E8084",
"[  c #4D8384",
"{  c #4E8384",
"}  c #548789",
"|  c #98B1AE",
" . c #9BB6B1",
".. c #9CB5B1",
"X. c #9EB5B4",
"o. c #A0B6B4",
"O. c #ABC2BC",
"+. c #E4ECEB",
"@. c #E8EFED",
"#. c #EBF0F0",
"$. c #EEF0F1",
"%. c #F3F5F6",
"&. c #FAFCFC",
"*. c white",
"=. c None",
/* pixels */
"=.=.=.=.=.=.=.=.=.=.=.=.=.=.=.=.=.=.=.=.=.=.=.=.=.=.=.=.=.: : : : : : : : : : : : : : : : : : : : =.=.=.=.=.=.=.=.=.=.=.=.=.=.=.",
"=.=.=.=.=.=.=.=.=.=.=.=.=.=.=.=.=.=.=.=.=.=.=.=.=.=.=.=.=.: : : : : : : : : : : : : : : : : : : : =.=.=.=.=.=.=.=.=.=.=.=.=.=.=.",
"=.=.=.=.=.=.=.=.=.=.=.=.=.=.=.=.=.=.=.=.=.=.=.=.=.=.=.=.=.: : : : : : : : : : : : : : : : : : : : =.=.=.=.=.=.=.=.=.=.=.=.=.=.=.",
"=.=.=.=.=.=.=.=.=.=.=.=.=.=.=.=.=.=.=.=.=.=.=.=.=.=.=.=.=.: : : : : : : : : : : : : : : : : : : : =.=.=.=.=.=.=.=.=.=.=.=.=.=.=.",
"=.=.=.=.=.=.=.=.=.=.=.=.=.=.=.=.=.=.=.=.=.=.=.=.=.: : : : *.*.*.*.*.O.O.O.O.O.*.*.*.*.*.*.*.*.*.*.: : : : : =.=.=.=.=.=.=.=.=.=.",
"=.=.=.=.=.=.=.=.=.=.=.=.=.=.=.=.=.=.=.=.=.=.=.=.=.: : : : *.*.*.*.*.O.O.O.O.O.*.*.*.*.*.*.*.*.*.*.: : : : : =.=.=.=.=.=.=.=.=.=.",
"=.=.=.=.=.=.=.=.=.=.=.=.=.=.=.=.=.=.=.=.=.=.=.=.=.: : : : *.*.*.*.*.O.O.O.O.O.*.*.*.*.*.*.*.*.*.*.: : : : : =.=.=.=.=.=.=.=.=.=.",
"=.=.=.=.=.=.=.=.=.=.=.=.=.=.=.=.=.=.=.=.=.=.=.=.=.: : : : *.*.*.*.*.O.O.O.O.O.*.*.*.*.*.*.*.*.*.*.: : : : : =.=.=.=.=.=.=.=.=.=.",
"=.=.=.=.=.=.=.=.=.=.=.=.=.=.=.=.=.=.=.=.: : : : : *.*.*.*.*.*.*.*.*.*.*.*.*.*.O.O.O.O.O.*.*.*.*.*.*.*.*.*.*.: : : : : =.=.=.=.=.",
"=.=.=.=.=.=.=.=.=.=.=.=.=.=.=.=.=.=.=.=.: : : : : *.*.*.*.*.*.*.*.*.*.*.*.*.*.O.O.O.O.O.*.*.*.*.*.*.*.*.*.*.: : : : : =.=.=.=.=.",
"=.=.=.=.=.=.=.=.=.=.=.=.=.=.=.=.=.=.=.=.: : : : : *.*.*.*.*.*.*.*.*.*.*.*.*.*.O.O.O.O.O.*.*.*.*.*.*.*.*.*.*.: : : : : =.=.=.=.=.",
"=.=.=.=.=.=.=.=.=.=.=.=.=.=.=.=.=.=.=.=.: : : : : *.*.*.*.*.*.*.*.*.*.*.*.*.*.O.O.O.O.O.*.*.*.*.*.*.*.*.*.*.: : : : : =.=.=.=.=.",
"=.=.=.=.=.=.=.=.=.=.=.=.=.=.=.=.=.=.=.=.: : : : : *.*.*.*.*.*.*.*.*.*.*.*.*.*.O.O.O.O.O.*.*.*.*.*.*.*.*.*.*.: : : : : =.=.=.=.=.",
"=.=.=.=.=.=.=.=.=.=.=.=.=.=.=.: : : : : O.O.O.O.O.*.*.*.*.*.*.*.*.*.*.*.*.*.*.*.*.*.*.*.O.O.O.O.O.*.*.*.*.*.: : : : : =.=.=.=.=.",
"=.=.=.=.=.=.=.=.=.=.=.=.=.=.=.: : : : : O.O.O.O.O.*.*.*.*.*.*.*.*.*.*.*.*.*.*.*.*.*.*.*.O.O.O.O.O.*.*.*.*.*.: : : : : =.=.=.=.=.",
"=.=.=.=.=.=.=.=.=.=.=.=.=.=.=.: : : : : O.O.O.O.O.*.*.*.*.*.*.*.*.*.*.*.*.*.*.*.*.*.*.*.O.O.O.O.O.*.*.*.*.*.: : : : : =.=.=.=.=.",
"=.=.=.=.=.=.=.=.=.=.=.=.=.=.=.: : : : : O.O.O.O.O.*.*.*.*.*.*.*.*.*.*.*.*.*.*.*.*.*.*.*.O.O.O.O.O.*.*.*.*.*.: : : : : =.=.=.=.=.",
"=.=.=.=.=.=.=.=.=.=.=.=.=.=.=.: : : : : O.O.O.O.O.*.*.*.*.*.*.*.*.*.*.*.*.*.*.*.*.*.*.*.O.O.O.O.O.*.*.*.*.*.: : : : : =.=.=.=.=.",
"=.=.=.=.=.=.=.=.=.=.: : : : : *.*.*.*.*.O.O.O.O.O.O.O.O.O.*.*.*.*.*.*.*.*.*.*.*.*.*.*.*.O.O.O.O.O.*.*.*.*.*.: : : : : =.=.=.=.=.",
"=.=.=.=.=.=.=.=.=.=.: : : : : *.*.*.*.*.O.O.O.O.O.O.O.O.O.*.*.*.*.*.*.*.*.*.*.*.*.*.*.*.O.O.O.O.O.*.*.*.*.*.: : : : : =.=.=.=.=.",
"=.=.=.=.=.=.=.=.=.=.: : : : : *.*.*.*.*.O.O.O.O.O.O.O.O.O.*.*.*.*.*.*.*.*.*.*.*.*.*.*.*.O.O.O.O.O.*.*.*.*.*.: : : : : =.=.=.=.=.",
"=.=.=.=.=.=.=.=.=.=.: : : : : *.*.*.*.*.O.O.O.O.O.O.O.O.O.*.*.*.*.*.*.*.*.*.*.*.*.*.*.*.O.O.O.O.O.*.*.*.*.*.: : : : : =.=.=.=.=.",
"=.=.=.=.=.: : : : : *.*.*.*.*.*.*.*.*.*.*.*.*.*.*.O.O.O.O.O.O.O.O.O.*.*.*.*.*.*.*.*.*.*.O.O.O.O.O.*.*.*.*.*.*.*.*.*.*.: : : : : ",
"=.=.=.=.=.: : : : : *.*.*.*.*.*.*.*.*.*.*.*.*.*.*.O.O.O.O.O.O.O.O.O.*.*.*.*.*.*.*.*.*.*.O.O.O.O.O.*.*.*.*.*.*.*.*.*.*.: : : : : ",
"=.=.=.=.=.: : : : : *.*.*.*.*.*.*.*.*.*.*.*.*.*.*.O.O.O.O.O.O.O.O.O.*.*.*.*.*.*.*.*.*.*.O.O.O.O.O.*.*.*.*.*.*.*.*.*.*.: : : : : ",
"=.=.=.=.=.: : : : : *.*.*.*.*.*.*.*.*.*.*.*.*.*.*.O.O.O.O.O.O.O.O.O.*.*.*.*.*.*.*.*.*.*.O.O.O.O.O.*.*.*.*.*.*.*.*.*.&.: : : : : ",
"=.=.=.=.=.: : : : : *.*.*.*.*.*.*.*.*.*.*.*.*.*.*.O.O.O.O.O.O.O.O.O.*.*.*.*.*.*.*.*.*.*.O.O.O.O.O.*.*.*.*.*.*.*.*.*.%.: : : : : ",
"=.=.=.=.=.: : : : : O.O.O.O.O.*.*.*.*.*.*.*.*.*.*.O.O.O.O.O.O.O.O.O.O.O.O.O.O.O.O.O.O.O.O.O.O.O.O.*.*.*.*.*.*.*.*.*.$.: : : : * ",
"=.=.=.=.=.: : : : : O.O.O.O.O.*.*.*.*.*.*.*.*.*.*.O.O.O.O.O.O.O.O.O.O.O.O.O.O.O.O.O.O.O.O.O.O.O.O.*.*.*.*.*.*.*.*.*.#.- : : % % ",
"=.=.=.=.=.: : : : : O.O.O.O.O.*.*.*.*.*.*.*.*.*.*.O.O.O.O.O.O.O.O.O.O.O.O.O.O.O.O.O.O.O.O.O.O.O.O.*.*.*.*.*.*.*.*.*.@.: ; : ; : ",
"=.=.=.=.=.: : : : : O.O.O.O.O.*.*.*.*.*.*.*.*.*.*.O.O.O.O.O.O.O.O.O.O.O.O.O.O.O.O.O.O.O.O.O.O.O.O.*.*.*.*.*.*.*.*.*.+.= ; = % % ",
": : : : : / / / / / } } } } } O.O.O.O.O.O.O.O.O.O.O.O.O.O.*.*.*.*.*.*.*.*.*.*.O.O.O.O.O./ / / / / O.O.O.O.O.O.O.O.O.o.@ * = % % ",
": : : : : / / / / / } } } } } O.O.O.O.O.O.O.O.O.O.O.O.O.O.*.*.*.*.*.*.*.*.*.*.O.O.O.O.O./ / / / / O.O.O.O.O.O.O.O.O.X.= % = % @ ",
": : : : : / / / / / } } } } } O.O.O.O.O.O.O.O.O.O.O.O.O.O.*.*.*.*.*.*.*.*.*.*.O.O.O.O.O./ / / / / O.O.O.O.O.O.O.O.O. .# % = % @ ",
": : : : : / / / / / } } } } } O.O.O.O.O.O.O.O.O.O.O.O.O.O.*.*.*.*.*.*.*.*.*.*.O.O.O.O.O./ / / / / O.O.O.O.O.O.O.O.O...@ % ; @ % ",
": : : : : / / / / / } } } } } O.O.O.O.O.O.O.O.O.O.O.O.O.O.*.*.*.*.*.*.*.*.*.*.O.O.O.O.O./ / / / / O.O.O.O.O.O.O.O.O.| @ % = @ % ",
": : : : : / / / / / / / / / / } } } } } } } } } } O.O.O.O.*.*.*.*.*.*.*.*.*.*.O.O.O.O.O./ / / / / } } } } } } } } } { @ @ = @ @ ",
": : : : : / / / / / / / / / / } } } } } } } } } } O.O.O.O.*.*.*.*.*.*.*.*.*.*.O.O.O.O.O./ / / / / } } } } } } } } } [ @ % = % @ ",
": : : : : / / / / / / / / / / } } } } } } } } } } O.O.O.O.*.*.*.*.*.*.*.*.*.*.O.O.O.O.O./ / / / / } } } } } } } } } ' @ % = % @ ",
": : : : : / / / / / / / / / / } } } } } } } } } } O.O.O.O.*.*.*.*.*.*.*.*.*.*.O.O.O.O.O./ / / / / } } } } } } } } } ` @ % @ @ % ",
": : : : : / / / / / / / / / / } } } } } } } } } } O.O.O.O.*.*.*.*.*.*.*.*.*.*.O.O.O.O.O./ / / / / } } } } } } } } } ] + % * * o ",
": : : : : / / / / / / / / / / / / / / / } } } } } / / / / O.O.O.O.O.O.O.O.O.O.} } } } } / / / / / / / / / / / / / / ) @ % % % @ ",
": : : : : / / / / / / / / / / / / / / / } } } } } / / / / O.O.O.O.O.O.O.O.O.O.} } } } } / / / / / / / / / / / / / / )   # % % . ",
": : : : : / / / / / / / / / / / / / / / } } } } } / / / / O.O.O.O.O.O.O.O.O.O.} } } } } / / / / / / / / / / / / / / ( @ % % % @ ",
": : : : : / / / / / / / / / / / / / / / } } } } } / / / / O.O.O.O.O.O.O.O.O.O.} } } } } / / / / / / / / / / / / / / ^ + @ % @ X ",
"/ / / / / / / / / / / / / / / / / / / / / / / / / / / / / / / / / / / / / / / / / / / / _ _ _ _ _ / / / / / / / / / ~ + 1 * % X ",
"/ / / / / / / / / / / / / / / / / / / / / / / / / / / / / / / / / / / / / / / / / / / / _ _ _ _ _ / / / / / / / / / Q X 4 * % & ",
"/ / / / / / / / / / / / / / / / / / / / / / / / / / / / / / / / / / / / / / / / / / / / _ _ _ _ _ / / / / / / / / / ! & 3 > % * ",
"/ / / / / / / / / / / / / / / / / / / / / / / / / / / / / / / / / / / / / / / / / / / / _ _ _ _ _ / / / / / / / / / W $ 3 * 1 % ",
"/ / / / / / / / / / / / / / / / / / / / / / / / / / / / / / / / / / / / / / / / / / / / _ _ _ _ _ / / / / / / / / / E O 1 3 1 < ",
"L L L L L / / / / / / / / / / / / / / / / / / / / / / / / / / / / / / / / / / / / / / / _ _ _ _ _ / / / / / / / / / Y , 9 0 0 $ ",
"L L L L L / / / / / / / / / / / / / / / / / / / / / / / / / / / / / / / / / / / / / / / _ _ _ _ _ / / / / / / / / / T 3 3 1 1 2 ",
"L L L L L / / / / / / / / / / / / / / / / / / / / / / / / / / / / / / / / / / / / / / / _ _ _ _ _ / / / / / / / / / R $ 0 0 1 3 ",
"L L L L L / / / / / / / / / / / / / / / / / / / / / / / / / / / / / / / / / / / / / / / _ _ _ _ _ / / / / / / / / / U 6 6 u w 2 ",
"L L L L L / / / / / / / / / / / / / / / / / / / / / / / / / / / / / / / / / / / / / / / _ _ _ _ _ / / / / / / / / / I 5 q r q 7 ",
"L L L L L L L L L L / / / / / / / / / / / / / / / / / / / / / / / / / / / / / _ _ _ _ _ / / / / / / / / / / L L L L P 6 s i 8 p ",
"L L L L L L L L L L / / / / / / / / / / / / / / / / / / / / / / / / / / / / / _ _ _ _ _ / / / / / / / / / / L L L L J q a t p f ",
"L L L L L L L L L L / / / / / / / / / / / / / / / / / / / / / / / / / / / / / _ _ _ _ _ / / / / / / / / / / L L L L G y d a i e ",
"L L L L L L L L L L / / / / / / / / / / / / / / / / / / / / / / / / / / / / / _ _ _ _ _ / / / / / / / / / / L L L L K d g d j d ",
"L L L L L L L L L L L L L L L L L L L L L L L L L / / / / _ _ _ _ _ _ _ _ _ _ / / / / / L L L L L Z Z Z Z Z L L L L D j l f x g ",
"L L L L L L L L L L L L L L L L L L L L L L L L L / / / / _ _ _ _ _ _ _ _ _ _ / / / / / L L L L L Z Z Z Z Z L L L L H c v k z h ",
"L L L L L L L L L L L L L L L L L L L L L L L L L / / / / _ _ _ _ _ _ _ _ _ _ / / / / / L L L L L Z Z Z Z Z L L L L S b M m v c ",
"L L L L L L L L L L L L L L L L L L L L L L L L L / / / / _ _ _ _ _ _ _ _ _ _ / / / / / L L L L L Z Z Z Z Z L L L L F N C n v B ",
"L L L L L L L L L L L L L L L L L L L L L L L L L / / / / _ _ _ _ _ _ _ _ _ _ / / / / / L L L L L Z Z Z Z Z L L L L A V C V N V "
};
